<!-- sample rectangle -->
<svg width="18" height="20" viewBox="0 0 18 20" fill="none" xmlns="http://www.w3.org/2000/svg">
<path d="M15.3871 5.92619C15.2342 6.07908 15.2342 6.32697 15.3871 6.47986L16.346 7.43876H11.0922C10.5737 7.43876 10.0862 7.64068 9.71947 8.00736C9.35283 8.374 9.15088 8.8615 9.15088 9.38005V10.4649C9.15088 10.6811 9.32615 10.8564 9.5424 10.8564C9.75861 10.8564 9.93393 10.6811 9.93393 10.4649V9.38005C9.93393 8.74138 10.4535 8.22181 11.0922 8.22181H16.346L15.3871 9.18072C15.2342 9.33361 15.2342 9.5815 15.3871 9.73439C15.4635 9.81083 15.5637 9.84908 15.6639 9.84908C15.7641 9.84908 15.8643 9.81083 15.9408 9.73439L17.568 8.10712C17.7209 7.95423 17.7209 7.70634 17.568 7.55345L15.9408 5.92623C15.7879 5.7733 15.54 5.7733 15.3871 5.92619Z" fill="#7C7A78"/>
<path d="M17.6085 13.2124C17.3625 12.6306 17.0102 12.1081 16.5616 11.6595C16.113 11.2109 15.5906 10.8587 15.0087 10.6126C14.4061 10.3577 13.7662 10.2285 13.1068 10.2285C12.4474 10.2285 11.8075 10.3577 11.2049 10.6126C10.6231 10.8587 10.1006 11.2109 9.65202 11.6595C9.20343 12.1081 8.8512 12.6305 8.60511 13.2124C8.35023 13.815 8.22101 14.4549 8.22101 15.1143C8.22101 15.7738 8.35023 16.4136 8.60511 17.0163C8.8512 17.5981 9.20343 18.1205 9.65202 18.5691C10.1006 19.0177 10.6231 19.37 11.2049 19.6161C11.8075 19.8709 12.4474 20.0002 13.1068 20.0002C13.7662 20.0002 14.4061 19.8709 15.0087 19.6161C15.5906 19.37 16.113 19.0177 16.5616 18.5691C17.0102 18.1205 17.3625 17.5981 17.6085 17.0163C17.8634 16.4136 17.9927 15.7738 17.9927 15.1143C17.9927 14.4549 17.8634 13.815 17.6085 13.2124ZM13.1069 19.2171C10.8446 19.2171 9.00409 17.3766 9.00409 15.1143C9.00409 12.852 10.8446 11.0115 13.1069 11.0115C15.3691 11.0115 17.2096 12.852 17.2096 15.1143C17.2096 17.3766 15.3691 19.2171 13.1069 19.2171Z" fill="#7C7A78"/>
<path d="M15.2765 14.7228H13.4983V11.8598C13.4983 11.6436 13.323 11.4683 13.1068 11.4683C12.8905 11.4683 12.7153 11.6436 12.7153 11.8598V15.1143C12.7153 15.3305 12.8905 15.5058 13.1068 15.5058H15.2764C15.4927 15.5058 15.668 15.3306 15.668 15.1143C15.668 14.8981 15.4927 14.7228 15.2765 14.7228ZM2.72343 5.73421C2.50722 5.73421 2.33191 5.90948 2.33191 6.12573V6.43569C2.33191 7.07886 2.85515 7.60206 3.49828 7.60206H3.72668V7.98542C3.72668 8.20163 3.90195 8.37694 4.1182 8.37694C4.33441 8.37694 4.50972 8.20167 4.50972 7.98542V7.60206H4.73812C5.38128 7.60206 5.90453 7.07882 5.90453 6.43569V5.81581C5.90453 5.17269 5.38128 4.64944 4.73812 4.64944H3.49832C3.28695 4.64944 3.11496 4.47745 3.11496 4.26608V3.64612C3.11496 3.43476 3.28695 3.26276 3.49832 3.26276H4.73812C4.94953 3.26276 5.12148 3.43476 5.12148 3.64612V3.95608C5.12148 4.17229 5.29675 4.34761 5.513 4.34761C5.72925 4.34761 5.90453 4.17233 5.90453 3.95608V3.64612C5.90453 3.00296 5.38128 2.47976 4.73812 2.47976H4.50972V2.09636C4.50972 1.88015 4.33445 1.70483 4.1182 1.70483C3.90199 1.70483 3.72668 1.88011 3.72668 2.09636V2.47976H3.49828C2.85515 2.47976 2.33191 3.003 2.33191 3.64612V4.26601C2.33191 4.90917 2.85515 5.43241 3.49828 5.43241H4.73808C4.94949 5.43241 5.12144 5.6044 5.12144 5.81577V6.43565C5.12144 6.64702 4.94945 6.81901 4.73808 6.81901H3.49828C3.28691 6.81901 3.11492 6.64702 3.11492 6.43565V6.12569C3.11496 5.90948 2.93968 5.73421 2.72343 5.73421Z" fill="#7C7A78"/>
<path d="M9.5424 19.217H1.01873C0.958178 19.2169 0.900126 19.1928 0.857308 19.15C0.814491 19.1072 0.790404 19.0491 0.790332 18.9886V2.09625C0.790332 1.37215 1.37943 0.783008 2.10357 0.783008H13.1775C12.8781 1.15414 12.7153 1.61266 12.7153 2.09625V6.59055C12.7153 6.80676 12.8906 6.98207 13.1069 6.98207C13.3231 6.98207 13.4984 6.8068 13.4984 6.59055V5.12234H16.2064C16.5932 5.12234 16.9078 4.80766 16.9078 4.4209V2.09625C16.9078 1.53633 16.6898 1.00992 16.2938 0.613984C15.8979 0.218047 15.3715 0 14.8116 0H2.10357C1.54365 0 1.01725 0.218047 0.621309 0.613984C0.225371 1.00988 0.00732422 1.53633 0.00732422 2.09625V18.9886C0.00732422 19.5463 0.461035 20 1.01873 20H9.5424C9.75861 20 9.93392 19.8247 9.93392 19.6085C9.93392 19.3922 9.75861 19.217 9.5424 19.217ZM16.1248 2.09625V4.33934H13.4983V2.09625C13.4983 1.37215 14.0874 0.783047 14.8115 0.783008H14.8116C15.5357 0.783008 16.1248 1.37211 16.1248 2.09625Z" fill="#7C7A78"/>
<path d="M7.06279 4.3475H11.4021C11.6183 4.3475 11.7936 4.17223 11.7936 3.95598C11.7936 3.73977 11.6183 3.56445 11.4021 3.56445H7.06279C6.84658 3.56445 6.67127 3.73973 6.67127 3.95598C6.67127 4.17223 6.84658 4.3475 7.06279 4.3475ZM11.7936 6.43559C11.7936 6.21938 11.6183 6.04406 11.4021 6.04406H7.06279C6.84658 6.04406 6.67127 6.21934 6.67127 6.43559C6.67127 6.6518 6.84654 6.82711 7.06279 6.82711H11.4021C11.6183 6.82711 11.7936 6.65184 11.7936 6.43559ZM7.83767 8.98863H2.41354C2.19732 8.98863 2.02201 9.16391 2.02201 9.38016C2.02201 9.59641 2.19729 9.77168 2.41354 9.77168H7.83767C8.05389 9.77168 8.2292 9.59641 8.2292 9.38016C8.2292 9.16391 8.05389 8.98863 7.83767 8.98863ZM8.22916 11.8598C8.22916 11.6436 8.05389 11.4682 7.83764 11.4682H2.41354C2.19732 11.4682 2.02201 11.6435 2.02201 11.8598C2.02201 12.076 2.19729 12.2513 2.41354 12.2513H7.83767C8.05389 12.2513 8.22916 12.076 8.22916 11.8598ZM7.06279 13.9479H2.4135C2.19729 13.9479 2.02197 14.1231 2.02197 14.3394C2.02197 14.5556 2.19725 14.7309 2.4135 14.7309H7.06275C7.27896 14.7309 7.45428 14.5556 7.45428 14.3394C7.45428 14.1231 7.279 13.9479 7.06279 13.9479ZM2.4135 16.4275C2.19729 16.4275 2.02197 16.6027 2.02197 16.819C2.02197 17.0352 2.19725 17.2105 2.4135 17.2105H7.06275C7.27896 17.2105 7.45428 17.0352 7.45428 16.819C7.45428 16.6027 7.279 16.4275 7.06275 16.4275H2.4135Z" fill="#7C7A78"/>
</svg>

