<svg width="48" height="48" viewBox="0 0 48 48" fill="none" xmlns="http://www.w3.org/2000/svg">
<rect width="48" height="48" rx="8" fill="#F3E9EB"/>
<path d="M24.974 31.996C24.7788 31.996 24.5836 31.9666 24.3885 31.9175C23.8123 31.7507 23.329 31.368 23.0223 30.8283L22.9108 30.632C22.3625 29.6311 21.6097 29.6311 21.0613 30.632L20.9591 30.8185C20.6524 31.368 20.1691 31.7605 19.5929 31.9175C19.0074 32.0843 18.4033 31.996 17.8922 31.6722L16.2937 30.7007C15.7268 30.3573 15.3178 29.798 15.1413 29.1209C14.974 28.4438 15.0576 27.7471 15.3829 27.1486C15.6524 26.6481 15.7268 26.1967 15.5688 25.9122C15.4108 25.6276 15.0112 25.4608 14.4628 25.4608C13.1059 25.4608 12 24.2931 12 22.8604V21.1334C12 19.7008 13.1059 18.533 14.4628 18.533C15.0112 18.533 15.4108 18.3662 15.5688 18.0817C15.7268 17.7971 15.6617 17.3457 15.3829 16.8453C15.0576 16.2467 14.974 15.5402 15.1413 14.8729C15.3086 14.1959 15.7175 13.6365 16.2937 13.2931L17.9015 12.3216C18.9517 11.6642 20.3364 12.0469 20.9684 13.1753L21.0799 13.3716C21.6283 14.3725 22.381 14.3725 22.9294 13.3716L23.0316 13.1852C23.6636 12.0469 25.0483 11.6642 26.1078 12.3315L27.7063 13.3029C28.2732 13.6464 28.6822 14.2057 28.8587 14.8827C29.026 15.5598 28.9424 16.2565 28.6171 16.8551C28.3476 17.3555 28.2732 17.8069 28.4312 18.0915C28.5892 18.376 28.9888 18.5429 29.5372 18.5429C30.8941 18.5429 32 19.7106 32 21.1432V22.8702C32 24.3029 30.8941 25.4706 29.5372 25.4706C28.9888 25.4706 28.5892 25.6374 28.4312 25.922C28.2732 26.2065 28.3383 26.6579 28.6171 27.1584C28.9424 27.7569 29.0353 28.4634 28.8587 29.1307C28.6914 29.8078 28.2825 30.3671 27.7063 30.7105L26.0985 31.682C25.7454 31.8881 25.3643 31.996 24.974 31.996ZM21.9907 28.3653C22.8178 28.3653 23.5892 28.9148 24.119 29.8863L24.2212 30.0727C24.3327 30.2788 24.5186 30.426 24.7416 30.4848C24.9647 30.5437 25.1877 30.5143 25.3736 30.3965L26.9814 29.4153C27.223 29.2681 27.4089 29.0228 27.4833 28.7284C27.5576 28.434 27.5204 28.1298 27.381 27.8747C26.8513 26.913 26.7862 25.922 27.1952 25.1664C27.6041 24.4108 28.4498 23.9791 29.5093 23.9791C30.1041 23.9791 30.5781 23.4786 30.5781 22.8506V21.1236C30.5781 20.5054 30.1041 19.9951 29.5093 19.9951C28.4498 19.9951 27.6041 19.5634 27.1952 18.8078C26.7862 18.0522 26.8513 17.0612 27.381 16.0995C27.5204 15.8444 27.5576 15.5402 27.4833 15.2458C27.4089 14.9514 27.2323 14.7159 26.9907 14.5589L25.3829 13.5875C24.9833 13.3323 24.4535 13.4795 24.2119 13.9113L24.1097 14.0977C23.5799 15.0692 22.8085 15.6187 21.9814 15.6187C21.1543 15.6187 20.3829 15.0692 19.8532 14.0977L19.7509 13.9015C19.5186 13.4893 18.9981 13.3422 18.5985 13.5875L16.9907 14.5687C16.7491 14.7159 16.5632 14.9612 16.4888 15.2556C16.4145 15.55 16.4517 15.8542 16.5911 16.1093C17.1208 17.071 17.1859 18.062 16.777 18.8176C16.368 19.5732 15.5223 20.0049 14.4628 20.0049C13.868 20.0049 13.3941 20.5054 13.3941 21.1334V22.8604C13.3941 23.4786 13.868 23.9889 14.4628 23.9889C15.5223 23.9889 16.368 24.4206 16.777 25.1762C17.1859 25.9318 17.1208 26.9229 16.5911 27.8845C16.4517 28.1396 16.4145 28.4438 16.4888 28.7382C16.5632 29.0326 16.7398 29.2681 16.9814 29.4251L18.5892 30.3965C18.7844 30.5241 19.0167 30.5535 19.2305 30.4947C19.4535 30.4358 19.6394 30.2788 19.7602 30.0727L19.8625 29.8863C20.3922 28.9246 21.1636 28.3653 21.9907 28.3653Z" fill="#871E35"/>
<path d="M21.9905 25.6764C20.0667 25.6764 18.5054 24.0279 18.5054 21.9966C18.5054 19.9654 20.0667 18.3169 21.9905 18.3169C23.9143 18.3169 25.4756 19.9654 25.4756 21.9966C25.4756 24.0279 23.9143 25.6764 21.9905 25.6764ZM21.9905 19.7888C20.8381 19.7888 19.8994 20.7799 19.8994 21.9966C19.8994 23.2134 20.8381 24.2045 21.9905 24.2045C23.1429 24.2045 24.0816 23.2134 24.0816 21.9966C24.0816 20.7799 23.1429 19.7888 21.9905 19.7888Z" fill="#871E35"/>
</svg>
