<svg width="56" height="56" viewBox="0 0 56 56" fill="none" xmlns="http://www.w3.org/2000/svg">
<rect x="0.5" y="0.969238" width="55" height="55" rx="6" fill="#F3E9EB"/>
<path d="M34.2448 40.7868C32.95 40.7868 31.5864 40.4774 30.177 39.8816C28.802 39.2972 27.4156 38.4951 26.0635 37.5212C24.7229 36.5357 23.4281 35.4357 22.202 34.2326C20.9875 33.0066 19.8875 31.7118 18.9135 30.3826C17.9281 29.0076 17.1375 27.6326 16.576 26.3035C15.9802 24.8826 15.6823 23.5076 15.6823 22.2128C15.6823 21.3191 15.8427 20.4712 16.152 19.6805C16.4729 18.867 16.9885 18.1107 17.6875 17.4576C18.5698 16.5868 19.5781 16.1514 20.6552 16.1514C21.102 16.1514 21.5604 16.2545 21.95 16.4378C22.3968 16.6441 22.775 16.9535 23.05 17.366L25.7083 21.1128C25.9489 21.4451 26.1323 21.766 26.2583 22.0868C26.4073 22.4305 26.4875 22.7743 26.4875 23.1066C26.4875 23.542 26.3614 23.966 26.1208 24.367C25.9489 24.6764 25.6854 25.0087 25.3531 25.341L24.5739 26.1545C24.5854 26.1889 24.5968 26.2118 24.6083 26.2347C24.7458 26.4753 25.0208 26.8878 25.5479 27.5066C26.1093 28.1482 26.6364 28.7326 27.1635 29.2712C27.8395 29.9357 28.401 30.4628 28.9281 30.8982C29.5812 31.4482 30.0052 31.7232 30.2573 31.8493L30.2343 31.9066L31.0708 31.0816C31.426 30.7264 31.7698 30.4628 32.102 30.291C32.7323 29.9014 33.5343 29.8326 34.3364 30.1649C34.6343 30.291 34.9552 30.4628 35.2989 30.7035L39.1031 33.4076C39.527 33.6941 39.8364 34.0607 40.0198 34.4962C40.1916 34.9316 40.2718 35.3326 40.2718 35.7337C40.2718 36.2837 40.1458 36.8337 39.9052 37.3493C39.6645 37.8649 39.3666 38.3118 38.9885 38.7243C38.3354 39.4462 37.625 39.9618 36.8 40.2941C36.0093 40.6149 35.15 40.7868 34.2448 40.7868ZM20.6552 17.8701C20.025 17.8701 19.4406 18.1451 18.8791 18.6951C18.352 19.1878 17.9854 19.7264 17.7562 20.3107C17.5156 20.9066 17.401 21.5368 17.401 22.2128C17.401 23.2785 17.6531 24.4357 18.1573 25.6274C18.6729 26.842 19.3948 28.1024 20.3114 29.3628C21.2281 30.6232 22.2708 31.8493 23.4166 33.0066C24.5625 34.141 25.8 35.1951 27.0718 36.1232C28.3093 37.0285 29.5812 37.7618 30.8416 38.2889C32.801 39.1253 34.6343 39.3201 36.1468 38.6899C36.7312 38.4493 37.2468 38.0826 37.7166 37.5555C37.9802 37.2691 38.1864 36.9597 38.3583 36.593C38.4958 36.3066 38.5645 36.0087 38.5645 35.7107C38.5645 35.5274 38.5302 35.3441 38.4385 35.1378C38.4041 35.0691 38.3354 34.943 38.1177 34.7941L34.3135 32.0899C34.0843 31.9295 33.8781 31.8149 33.6833 31.7347C33.4312 31.6316 33.3281 31.5285 32.9385 31.7691C32.7093 31.8837 32.5031 32.0555 32.2739 32.2847L31.4031 33.1441C30.9562 33.5795 30.2687 33.6826 29.7416 33.4878L29.4323 33.3503C28.9625 33.0982 28.4125 32.7087 27.8052 32.193C27.2552 31.7232 26.6593 31.1732 25.9375 30.4628C25.376 29.8899 24.8145 29.2826 24.2302 28.6066C23.6916 27.9764 23.302 27.4378 23.0614 26.991L22.9239 26.6472C22.8552 26.3837 22.8323 26.2347 22.8323 26.0743C22.8323 25.6618 22.9812 25.2951 23.2677 25.0087L24.127 24.1149C24.3562 23.8857 24.5281 23.668 24.6427 23.4732C24.7343 23.3243 24.7687 23.1982 24.7687 23.0837C24.7687 22.992 24.7343 22.8545 24.677 22.717C24.5968 22.5337 24.4708 22.3274 24.3104 22.1097L21.652 18.3514C21.5375 18.191 21.4 18.0764 21.2281 17.9962C21.0448 17.916 20.85 17.8701 20.6552 17.8701ZM30.2343 31.918L30.051 32.6972L30.3604 31.8951C30.3031 31.8837 30.2573 31.8951 30.2343 31.918Z" fill="#871E35"/>
<path d="M37.1666 25.6621C36.6968 25.6621 36.3073 25.2725 36.3073 24.8027V20.1621H31.6666C31.1968 20.1621 30.8073 19.7725 30.8073 19.3027C30.8073 18.8329 31.1968 18.4434 31.6666 18.4434H37.1666C37.6364 18.4434 38.026 18.8329 38.026 19.3027V24.8027C38.026 25.2725 37.6364 25.6621 37.1666 25.6621Z" fill="#871E35"/>
</svg>
