<svg width="24" height="24" viewBox="0 0 24 24" fill="none" xmlns="http://www.w3.org/2000/svg">
<path d="M7.1476 2.9108V2.4108V0.84C7.1476 0.749827 7.11178 0.663346 7.04802 0.599584C6.98425 0.535821 6.89777 0.5 6.8076 0.5C6.71751 0.5 6.6311 0.535754 6.56736 0.599412C6.50367 0.663007 6.4678 0.749257 6.4676 0.839252C6.4676 0.839339 6.4676 0.839427 6.4676 0.839514L6.4676 2.4108V2.9108H5.9676H2.4C1.89625 2.9108 1.41312 3.11085 1.05683 3.46696C0.7006 3.82302 0.500318 4.30594 0.5 4.8096L7.1476 2.9108ZM7.1476 2.9108H7.6476H16.668H17.168V2.4108V0.8508C17.168 0.760625 17.2038 0.674145 17.2676 0.610383C17.3313 0.546621 17.4178 0.5108 17.508 0.5108C17.5982 0.5108 17.6847 0.54662 17.7484 0.610385C17.8122 0.674147 17.848 0.760628 17.848 0.8508V2.4108V2.9108H18.348H21.6C22.1037 2.9108 22.5869 3.11085 22.9432 3.46696L23.2966 3.11332M7.1476 2.9108L23.2966 3.11332M23.2966 3.11332L22.9432 3.46696C23.2995 3.82308 23.4998 4.3061 23.5 4.80985M23.2966 3.11332L23.5 4.80985M23.5 4.80985V21.601C23.4998 22.1047 23.2995 22.5877 22.9432 22.9438C22.5869 23.3 22.1037 23.5 21.6 23.5H2.4C1.89625 23.5 1.41312 23.3 1.05683 22.9438C0.7006 22.5878 0.500318 22.1049 0.5 21.6012C0.5 21.6011 0.5 21.601 0.5 21.601L0.5 4.80974C0.5 4.80977 0.5 4.80981 0.5 4.80985L23.5 4.80985ZM1.68041 8.7904L1.18 8.78999V9.2904V21.6012C1.18 21.7614 1.21156 21.9201 1.27287 22.0681C1.33418 22.2161 1.42404 22.3506 1.53733 22.4639C1.65062 22.5772 1.78511 22.667 1.93312 22.7283C2.08115 22.7896 2.23979 22.8212 2.4 22.8212H21.6C21.7602 22.8212 21.9189 22.7896 22.0669 22.7283L21.8755 22.2664L22.0669 22.7283C22.2149 22.667 22.3494 22.5772 22.4627 22.4639C22.576 22.3506 22.6658 22.2161 22.7271 22.0681C22.7884 21.9201 22.82 21.7614 22.82 21.6012V9.3072V8.80761L22.3204 8.8072L1.68041 8.7904ZM6.4676 4.0896V3.5896H5.9676H2.4C2.23979 3.5896 2.08114 3.62116 1.93313 3.68247C1.78511 3.74378 1.65062 3.83364 1.53733 3.94693C1.42404 4.06022 1.33418 4.19471 1.27287 4.34273C1.21156 4.49074 1.18 4.64939 1.18 4.8096V7.6116V8.11119L1.67959 8.1116L22.3196 8.1284L22.82 8.12881V7.6284V4.8096C22.82 4.64938 22.7884 4.49074 22.7271 4.34273C22.6658 4.19472 22.576 4.06022 22.4627 3.94693C22.3494 3.83364 22.2149 3.74378 22.0669 3.68247C21.9189 3.62116 21.7602 3.5896 21.6 3.5896H18.348H17.848V4.0896V5.2044C17.848 5.29457 17.8122 5.38105 17.7484 5.44482C17.6847 5.50858 17.5982 5.5444 17.508 5.5444C17.4178 5.5444 17.3313 5.50858 17.2676 5.44482C17.2038 5.38106 17.168 5.29457 17.168 5.2044V4.0896V3.5896H16.668H7.6476H7.1476V4.0896V5.1936C7.1476 5.28377 7.11178 5.37025 7.04802 5.43402C6.98425 5.49778 6.89777 5.5336 6.8076 5.5336C6.71743 5.5336 6.63095 5.49778 6.56718 5.43402C6.50342 5.37025 6.4676 5.28377 6.4676 5.1936V4.0896ZM7.5004 18.0428V19.042H6.5V18.0428H7.5004ZM12.4996 18.0428V19.042H11.5004V18.0428H12.4996ZM17.5 18.0428V19.042H16.4996V18.0428H17.5ZM7.5004 13.2704V14.2696H6.5V13.2704H7.5004ZM12.4996 13.2704V14.2696H11.5004V13.2704H12.4996ZM17.5 13.2704V14.2696H16.4996V13.2704H17.5Z" fill="#24221E" stroke="#B0AFAE"/>
</svg>
