<svg width="25" height="25" viewBox="0 0 25 25" fill="none" xmlns="http://www.w3.org/2000/svg">
<path d="M7.5 17.1228L11.913 17.1078L21.545 7.56777C21.923 7.18977 22.131 6.68777 22.131 6.15377C22.131 5.61977 21.923 5.11777 21.545 4.73977L19.959 3.15377C19.203 2.39777 17.884 2.40177 17.134 3.15077L7.5 12.6928V17.1228ZM18.545 4.56777L20.134 6.15077L18.537 7.73277L16.951 6.14777L18.545 4.56777ZM9.5 13.5268L15.53 7.55377L17.116 9.13977L11.087 15.1108L9.5 15.1158V13.5268Z" fill="#898886"/>
<path d="M5.5 21.1099H19.5C20.603 21.1099 21.5 20.2129 21.5 19.1099V10.4419L19.5 12.4419V19.1099H8.658C8.632 19.1099 8.605 19.1199 8.579 19.1199C8.546 19.1199 8.513 19.1109 8.479 19.1099H5.5V5.10986H12.347L14.347 3.10986H5.5C4.397 3.10986 3.5 4.00686 3.5 5.10986V19.1099C3.5 20.2129 4.397 21.1099 5.5 21.1099Z" fill="#898886"/>
</svg>
