<!-- sample rectangle -->
<svg width="48" height="48" viewBox="0 0 48 48" fill="none" xmlns="http://www.w3.org/2000/svg">
<circle cx="24" cy="24" r="24" fill="#E3E2E2"/>
<g clip-path="url(#clip0_128_2385)">
<path d="M24.8932 10.9561L36.2265 17.2895C36.5592 17.4556 36.839 17.7111 37.0345 18.0274C37.23 18.3437 37.3334 18.7083 37.3332 19.0801V21.0001C37.3332 21.9201 36.5865 22.6668 35.6665 22.6668H34.6665V33.3335H35.9998C36.3535 33.3335 36.6926 33.4739 36.9426 33.724C37.1927 33.974 37.3332 34.3132 37.3332 34.6668C37.3332 35.0204 37.1927 35.3596 36.9426 35.6096C36.6926 35.8597 36.3535 36.0001 35.9998 36.0001H11.9998C11.6462 36.0001 11.3071 35.8597 11.057 35.6096C10.807 35.3596 10.6665 35.0204 10.6665 34.6668C10.6665 34.3132 10.807 33.974 11.057 33.724C11.3071 33.4739 11.6462 33.3335 11.9998 33.3335H13.3332V22.6668H12.3332C11.4132 22.6668 10.6665 21.9201 10.6665 21.0001V19.0801C10.6665 18.3841 11.0265 17.7441 11.6078 17.3815L23.1052 10.9561C23.3829 10.8172 23.6893 10.7449 23.9998 10.7449C24.3104 10.7449 24.6154 10.8172 24.8932 10.9561ZM31.9998 22.6668H15.9998V33.3335H19.9998V25.3335H22.6665V33.3335H25.3332V25.3335H27.9998V33.3335H31.9998V22.6668ZM23.9998 13.4908L13.3332 19.4908V20.0001H34.6665V19.4908L23.9998 13.4908ZM23.9998 16.0001C24.3535 16.0001 24.6926 16.1406 24.9426 16.3907C25.1927 16.6407 25.3332 16.9799 25.3332 17.3335C25.3332 17.6871 25.1927 18.0262 24.9426 18.2763C24.6926 18.5263 24.3535 18.6668 23.9998 18.6668C23.6462 18.6668 23.3071 18.5263 23.057 18.2763C22.807 18.0262 22.6665 17.6871 22.6665 17.3335C22.6665 16.9799 22.807 16.6407 23.057 16.3907C23.3071 16.1406 23.6462 16.0001 23.9998 16.0001Z" fill="#3C3A37"/>
</g>
<defs>
<clipPath id="clip0_128_2385">
<rect width="32" height="32" fill="white" transform="translate(8 8)"/>
</clipPath>
</defs>
</svg>

