<svg width="56" height="56" viewBox="0 0 56 56" fill="none" xmlns="http://www.w3.org/2000/svg">
<rect x="0.5" y="0.969238" width="55" height="55" rx="6" fill="#F3E9EB"/>
<path fill-rule="evenodd" clip-rule="evenodd" d="M17.0035 19.3111C17.1658 19.1488 17.3859 19.0576 17.6154 19.0576H38.3846C38.6141 19.0576 38.8342 19.1488 38.9965 19.3111C39.1588 19.4734 39.25 19.6935 39.25 19.923V33.7692C39.25 34.6107 38.9157 35.4178 38.3206 36.0129C37.7256 36.6079 36.9185 36.9422 36.0769 36.9422H19.9231C19.0815 36.9422 18.2744 36.6079 17.6794 36.0129C17.0843 35.4178 16.75 34.6107 16.75 33.7692V19.923C16.75 19.6935 16.8412 19.4734 17.0035 19.3111ZM19.5416 20.7884L28.0001 29.2469L36.4586 20.7884H19.5416ZM37.5192 21.8491V33.7692C37.5192 34.5653 36.8731 35.2115 36.0769 35.2115H19.9231C19.1269 35.2115 18.4808 34.5653 18.4808 33.7692V21.8489L27.4698 30.8379C27.7627 31.1308 28.2375 31.1308 28.5304 30.8379L37.5192 21.8491Z" fill="#871E35"/>
</svg>
