<svg width="109" height="110" viewBox="0 0 109 110" fill="none" xmlns="http://www.w3.org/2000/svg">
<path d="M33.2079 44.2246C26.8284 46.9426 21.0859 50.8287 16.1394 55.7752C15.4743 56.4405 14.6025 56.773 13.731 56.773C12.8594 56.773 11.9876 56.4405 11.3225 55.7754C9.99239 54.445 9.99218 52.2885 11.3225 50.9583C16.8881 45.3927 23.353 41.0187 30.5378 37.9573C32.2684 37.2201 34.2694 38.0252 35.0066 39.7558C35.7439 41.4864 34.9387 43.4871 33.2079 44.2246ZM23.9354 28.5544C23.0611 26.8887 21.0022 26.2473 19.3362 27.1216C12.5952 30.6603 6.4252 35.2063 0.997765 40.6336C-0.332588 41.9639 -0.332588 44.1205 0.997765 45.4506C1.66284 46.1159 2.53441 46.4484 3.4062 46.4484C4.27777 46.4484 5.14956 46.1157 5.81463 45.4508C10.7558 40.5099 16.3704 36.3723 22.5023 33.1536C24.1681 32.2791 24.8096 30.22 23.9354 28.5544ZM46.6219 51.6694C46.1359 49.8521 44.2703 48.7721 42.4512 49.2588C34.6098 51.356 27.4158 55.5135 21.6469 61.2827C20.3165 62.6128 20.3165 64.7696 21.6469 66.0997C22.3119 66.7648 23.1837 67.0973 24.0553 67.0973C24.9269 67.0973 25.7987 66.7648 26.4637 66.0997C31.3875 61.176 37.5245 57.6282 44.2109 55.8399C46.0286 55.3541 47.108 53.4868 46.6219 51.6694ZM108.002 40.6336C97.8362 30.4674 85.081 23.4401 71.1158 20.3112C58.0965 17.3944 44.5675 17.9573 31.8731 21.9256L17.4455 7.49777C16.1153 6.16741 13.9585 6.16741 12.6284 7.49777C11.2981 8.82791 11.2981 10.9847 12.6284 12.3148L93.9294 93.6156C94.5945 94.2809 95.4663 94.6135 96.3378 94.6135C97.2094 94.6135 98.0812 94.2809 98.7463 93.6156C100.077 92.2855 100.077 90.1287 98.7463 88.7986L66.1996 56.2516C72.3187 58.1374 77.9283 61.4919 82.5364 66.0997C83.2014 66.765 84.0732 67.0976 84.9448 67.0976C85.8164 67.0976 86.6882 66.765 87.3532 66.0997C88.6836 64.7696 88.6836 62.6128 87.3532 61.2827C79.4096 53.3391 68.9271 48.5722 57.7395 47.792L50.0175 40.0698C65.8366 38.7516 81.4785 44.393 92.8607 55.7754C93.5258 56.4407 94.3974 56.7732 95.2691 56.7732C96.1409 56.7732 97.0125 56.4405 97.6776 55.7756C99.0079 54.4453 99.0079 52.2887 97.6776 50.9585C83.5425 36.823 63.5742 30.5523 43.9389 33.9918L37.3818 27.4348C60.9563 21.3559 85.7648 28.0311 103.185 45.4511C103.85 46.1161 104.722 46.4487 105.593 46.4487C106.465 46.4487 107.337 46.1161 108.002 45.4508C109.333 44.1205 109.333 41.9637 108.002 40.6336ZM57.6707 65.6548C57.6554 63.7737 56.1245 62.2686 54.2366 62.2766C45.8266 62.3458 37.9194 65.6595 31.9714 71.6072C30.6411 72.9376 30.6411 75.0942 31.9714 76.4243C32.6365 77.0896 33.5081 77.4221 34.3799 77.4221C35.2517 77.4221 36.1232 77.0894 36.7883 76.4245C41.4644 71.7486 47.6808 69.1434 54.2926 69.0889C56.1737 69.0734 57.6863 67.5359 57.6707 65.6548ZM63.7681 81.2588C66.2438 83.7343 67.607 87.0258 67.607 90.5268C67.607 94.0278 66.2438 97.3193 63.7681 99.7948C61.2132 102.35 57.856 103.627 54.5002 103.627C51.1433 103.627 47.7877 102.35 45.2322 99.7946C42.7565 97.3191 41.3933 94.0278 41.3933 90.5266C41.3933 87.0256 42.7565 83.7343 45.2322 81.2586C50.3424 76.1482 58.6579 76.1482 63.7681 81.2588ZM60.7945 90.5268C60.7945 88.8456 60.1398 87.2649 58.9511 86.0759C57.7238 84.8488 56.112 84.2353 54.5002 84.2353C52.8884 84.2353 51.2764 84.8488 50.0493 86.0759C48.8605 87.2647 48.2058 88.8454 48.2058 90.5268C48.2058 92.2082 48.8605 93.7887 50.0493 94.9775C52.5037 97.4317 56.4967 97.4317 58.9511 94.9775C60.1398 93.7887 60.7945 92.208 60.7945 90.5268Z" fill="#CEA3AC"/>
</svg>
