<!-- sample rectangle -->
<svg width="20" height="20" viewBox="0 0 20 20" fill="none" xmlns="http://www.w3.org/2000/svg">
<path d="M2.13033 13.9247L3.33033 15.1247V18.3334C3.33086 18.7752 3.50662 19.1989 3.81907 19.5113C4.13151 19.8238 4.55513 19.9995 4.99699 20H18.3333C18.7752 19.9995 19.1988 19.8238 19.5113 19.5113C19.8237 19.1989 19.9995 18.7752 20 18.3334V10C19.9987 9.57934 19.8381 9.17474 19.5505 8.86767C19.2629 8.5606 18.8697 8.37387 18.45 8.34505C18.6181 8.03068 18.6811 7.67078 18.63 7.31799C18.5788 6.96521 18.4161 6.63805 18.1657 6.38438L13.921 2.13704L13.919 2.13338H13.916L12.2723 0.487711C11.9599 0.17587 11.5364 0.000732422 11.095 0.000732422C10.6535 0.000732422 10.2301 0.17587 9.91766 0.487711L0.486995 9.92204C0.1761 10.2362 0.00170898 10.6603 0.00170898 11.1022C0.00170898 11.5442 0.1761 11.9683 0.486995 12.2824L2.13033 13.9247ZM12.27 1.42804L13.2117 2.37038L7.252 8.33338H5.36666L12.27 1.42804ZM3.33333 12.252L2.36666 13.2187L1.42466 12.2767L3.33333 10.3667V12.252ZM2.838 13.69L3.33333 13.1947V14.1854L2.838 13.69ZM19.3333 10V18.3334C19.3333 18.5986 19.228 18.8529 19.0404 19.0405C18.8529 19.228 18.5985 19.3334 18.3333 19.3334H5C4.73478 19.3334 4.48042 19.228 4.29289 19.0405C4.10535 18.8529 3.99999 18.5986 3.99999 18.3334V10C3.99999 9.73483 4.10535 9.48047 4.29289 9.29294C4.48042 9.1054 4.73478 9.00004 5 9.00004H18.3333C18.5985 9.00004 18.8529 9.1054 19.0404 9.29294C19.228 9.48047 19.3333 9.73483 19.3333 10ZM17.6943 8.27104L17.6333 8.33338H8.19433L13.683 2.84204L17.6933 6.85471C17.8803 7.04289 17.9854 7.29737 17.9856 7.56267C17.9858 7.82798 17.8811 8.0826 17.6943 8.27104ZM0.958995 10.3924L10.389 0.959044C10.5789 0.777549 10.8314 0.676099 11.0941 0.675726C11.3568 0.675354 11.6096 0.776088 11.8 0.957044L4.22533 8.53338C3.93066 8.68951 3.6896 8.93045 3.53333 9.22504L0.953995 11.8047C0.769786 11.6155 0.667125 11.3616 0.66806 11.0975C0.668995 10.8335 0.773451 10.5803 0.958995 10.3924Z" fill="#7C7A78"/>
<path d="M5.33335 12.6667H7.33335C7.51016 12.6667 7.67973 12.5964 7.80476 12.4714C7.92978 12.3464 8.00002 12.1768 8.00002 12V10.6667C8.00002 10.4899 7.92978 10.3203 7.80476 10.1953C7.67973 10.0702 7.51016 10 7.33335 10H5.33335C5.15654 10 4.98697 10.0702 4.86195 10.1953C4.73693 10.3203 4.66669 10.4899 4.66669 10.6667V12C4.66669 12.1768 4.73693 12.3464 4.86195 12.4714C4.98697 12.5964 5.15654 12.6667 5.33335 12.6667ZM5.33335 10.6667H7.33335V12H5.33335V10.6667ZM5.00002 14.6667C5.08843 14.6667 5.17321 14.6315 5.23572 14.569C5.29823 14.5065 5.33335 14.4217 5.33335 14.3333V13.6667C5.33335 13.5783 5.29823 13.4935 5.23572 13.431C5.17321 13.3685 5.08843 13.3333 5.00002 13.3333C4.91161 13.3333 4.82683 13.3685 4.76432 13.431C4.70181 13.4935 4.66669 13.5783 4.66669 13.6667V14.3333C4.66669 14.4217 4.70181 14.5065 4.76432 14.569C4.82683 14.6315 4.91161 14.6667 5.00002 14.6667ZM6.33335 13.3333C6.24495 13.3333 6.16016 13.3685 6.09765 13.431C6.03514 13.4935 6.00002 13.5783 6.00002 13.6667V14.3333C6.00002 14.4217 6.03514 14.5065 6.09765 14.569C6.16016 14.6315 6.24495 14.6667 6.33335 14.6667C6.42176 14.6667 6.50654 14.6315 6.56906 14.569C6.63157 14.5065 6.66669 14.4217 6.66669 14.3333V13.6667C6.66669 13.5783 6.63157 13.4935 6.56906 13.431C6.50654 13.3685 6.42176 13.3333 6.33335 13.3333ZM7.33335 13.6667V14.3333C7.33335 14.4217 7.36847 14.5065 7.43098 14.569C7.4935 14.6315 7.57828 14.6667 7.66669 14.6667C7.75509 14.6667 7.83988 14.6315 7.90239 14.569C7.9649 14.5065 8.00002 14.4217 8.00002 14.3333V13.6667C8.00002 13.5783 7.9649 13.4935 7.90239 13.431C7.83988 13.3685 7.75509 13.3333 7.66669 13.3333C7.57828 13.3333 7.4935 13.3685 7.43098 13.431C7.36847 13.4935 7.33335 13.5783 7.33335 13.6667ZM9.00002 13.3333C8.91162 13.3333 8.82683 13.3685 8.76432 13.431C8.70181 13.4935 8.66669 13.5783 8.66669 13.6667V14.3333C8.66669 14.4217 8.70181 14.5065 8.76432 14.569C8.82683 14.6315 8.91162 14.6667 9.00002 14.6667C9.08843 14.6667 9.17321 14.6315 9.23572 14.569C9.29824 14.5065 9.33335 14.4217 9.33335 14.3333V13.6667C9.33335 13.5783 9.29824 13.4935 9.23572 13.431C9.17321 13.3685 9.08843 13.3333 9.00002 13.3333ZM10.3334 14.6667C10.4218 14.6667 10.5065 14.6315 10.5691 14.569C10.6316 14.5065 10.6667 14.4217 10.6667 14.3333V13.6667C10.6667 13.5783 10.6316 13.4935 10.5691 13.431C10.5065 13.3685 10.4218 13.3333 10.3334 13.3333C10.2449 13.3333 10.1602 13.3685 10.0977 13.431C10.0351 13.4935 10 13.5783 10 13.6667V14.3333C10 14.4217 10.0351 14.5065 10.0977 14.569C10.1602 14.6315 10.2449 14.6667 10.3334 14.6667ZM13 13.3333C12.9116 13.3333 12.8268 13.3685 12.7643 13.431C12.7018 13.4935 12.6667 13.5783 12.6667 13.6667V14.3333C12.6667 14.4217 12.7018 14.5065 12.7643 14.569C12.8268 14.6315 12.9116 14.6667 13 14.6667C13.0884 14.6667 13.1732 14.6315 13.2357 14.569C13.2982 14.5065 13.3334 14.4217 13.3334 14.3333V13.6667C13.3334 13.5783 13.2982 13.4935 13.2357 13.431C13.1732 13.3685 13.0884 13.3333 13 13.3333ZM14.3334 13.3333C14.2449 13.3333 14.1602 13.3685 14.0977 13.431C14.0351 13.4935 14 13.5783 14 13.6667V14.3333C14 14.4217 14.0351 14.5065 14.0977 14.569C14.1602 14.6315 14.2449 14.6667 14.3334 14.6667C14.4218 14.6667 14.5065 14.6315 14.5691 14.569C14.6316 14.5065 14.6667 14.4217 14.6667 14.3333V13.6667C14.6667 13.5783 14.6316 13.4935 14.5691 13.431C14.5065 13.3685 14.4218 13.3333 14.3334 13.3333ZM15.6667 13.3333C15.5783 13.3333 15.4935 13.3685 15.431 13.431C15.3685 13.4935 15.3334 13.5783 15.3334 13.6667V14.3333C15.3334 14.4217 15.3685 14.5065 15.431 14.569C15.4935 14.6315 15.5783 14.6667 15.6667 14.6667C15.7551 14.6667 15.8399 14.6315 15.9024 14.569C15.9649 14.5065 16 14.4217 16 14.3333V13.6667C16 13.5783 15.9649 13.4935 15.9024 13.431C15.8399 13.3685 15.7551 13.3333 15.6667 13.3333ZM17 13.3333C16.9116 13.3333 16.8268 13.3685 16.7643 13.431C16.7018 13.4935 16.6667 13.5783 16.6667 13.6667V14.3333C16.6667 14.4217 16.7018 14.5065 16.7643 14.569C16.8268 14.6315 16.9116 14.6667 17 14.6667C17.0884 14.6667 17.1732 14.6315 17.2357 14.569C17.2982 14.5065 17.3334 14.4217 17.3334 14.3333V13.6667C17.3334 13.5783 17.2982 13.4935 17.2357 13.431C17.1732 13.3685 17.0884 13.3333 17 13.3333ZM6.33335 15.3333H5.00002C4.91161 15.3333 4.82683 15.3685 4.76432 15.431C4.70181 15.4935 4.66669 15.5783 4.66669 15.6667C4.66669 15.7551 4.70181 15.8399 4.76432 15.9024C4.82683 15.9649 4.91161 16 5.00002 16H6.33335C6.42176 16 6.50654 15.9649 6.56906 15.9024C6.63157 15.8399 6.66669 15.7551 6.66669 15.6667C6.66669 15.5783 6.63157 15.4935 6.56906 15.431C6.50654 15.3685 6.42176 15.3333 6.33335 15.3333ZM9.00002 15.3333H7.66669C7.57828 15.3333 7.4935 15.3685 7.43098 15.431C7.36847 15.4935 7.33335 15.5783 7.33335 15.6667C7.33335 15.7551 7.36847 15.8399 7.43098 15.9024C7.4935 15.9649 7.57828 16 7.66669 16H9.00002C9.08843 16 9.17321 15.9649 9.23572 15.9024C9.29824 15.8399 9.33335 15.7551 9.33335 15.6667C9.33335 15.5783 9.29824 15.4935 9.23572 15.431C9.17321 15.3685 9.08843 15.3333 9.00002 15.3333ZM6.33335 16.6667H5.00002C4.91161 16.6667 4.82683 16.7018 4.76432 16.7643C4.70181 16.8268 4.66669 16.9116 4.66669 17C4.66669 17.0884 4.70181 17.1732 4.76432 17.2357C4.82683 17.2982 4.91161 17.3333 5.00002 17.3333H6.33335C6.42176 17.3333 6.50654 17.2982 6.56906 17.2357C6.63157 17.1732 6.66669 17.0884 6.66669 17C6.66669 16.9116 6.63157 16.8268 6.56906 16.7643C6.50654 16.7018 6.42176 16.6667 6.33335 16.6667ZM9.00002 16.6667H7.66669C7.57828 16.6667 7.4935 16.7018 7.43098 16.7643C7.36847 16.8268 7.33335 16.9116 7.33335 17C7.33335 17.0884 7.36847 17.1732 7.43098 17.2357C7.4935 17.2982 7.57828 17.3333 7.66669 17.3333H9.00002C9.08843 17.3333 9.17321 17.2982 9.23572 17.2357C9.29824 17.1732 9.33335 17.0884 9.33335 17C9.33335 16.9116 9.29824 16.8268 9.23572 16.7643C9.17321 16.7018 9.08843 16.6667 9.00002 16.6667ZM11.6667 15.3333H10.3334C10.2449 15.3333 10.1602 15.3685 10.0977 15.431C10.0351 15.4935 10 15.5783 10 15.6667C10 15.7551 10.0351 15.8399 10.0977 15.9024C10.1602 15.9649 10.2449 16 10.3334 16H11.6667C11.7551 16 11.8399 15.9649 11.9024 15.9024C11.9649 15.8399 12 15.7551 12 15.6667C12 15.5783 11.9649 15.4935 11.9024 15.431C11.8399 15.3685 11.7551 15.3333 11.6667 15.3333Z" fill="#7C7A78"/>
</svg>


