<svg width="27" height="28" viewBox="0 0 27 28" fill="none" xmlns="http://www.w3.org/2000/svg">
<circle cx="13.2706" cy="13.8706" r="13.2711" fill="#24221E"/>
<path d="M15.3921 20.0247C15.3921 21.1903 14.4596 22.146 13.2707 22.146C12.0818 22.146 11.1494 21.1903 11.1494 20.0247C11.1494 18.8592 12.0819 17.9035 13.2707 17.9035C14.4596 17.9035 15.3921 18.8592 15.3921 20.0247ZM14.2429 15.7821H12.2765C11.985 15.7821 11.745 15.5529 11.7317 15.2617L11.3154 6.16539C11.3012 5.85476 11.5492 5.59509 11.8601 5.59509H14.68C14.9915 5.59509 15.2396 5.85551 15.2247 6.16664L14.7876 15.2629C14.7736 15.5536 14.5339 15.7821 14.2429 15.7821Z" fill="white"/>
</svg>
