<!-- sample rectangle -->
<svg width="21" height="20" viewBox="0 0 21 20" fill="none" xmlns="http://www.w3.org/2000/svg">
<path d="M5.74304 11.3194C4.68748 11.3194 3.83331 10.4653 3.83331 9.40972C3.83331 8.35417 4.68748 7.5 5.74304 7.5C6.79859 7.5 7.65276 8.35417 7.65276 9.40972C7.65276 10.4653 6.79859 11.3194 5.74304 11.3194ZM5.74304 8.54167C5.26387 8.54167 4.87498 8.93056 4.87498 9.40972C4.87498 9.88889 5.26387 10.2778 5.74304 10.2778C6.2222 10.2778 6.61109 9.88889 6.61109 9.40972C6.61109 8.93056 6.2222 8.54167 5.74304 8.54167Z" fill="#7C7A78"/>
<path d="M15.4653 11.3194C14.4097 11.3194 13.5555 10.4653 13.5555 9.40972C13.5555 8.35417 14.4097 7.5 15.4653 7.5C16.5208 7.5 17.375 8.35417 17.375 9.40972C17.375 10.4653 16.5208 11.3194 15.4653 11.3194ZM15.4653 8.54167C14.9861 8.54167 14.5972 8.93056 14.5972 9.40972C14.5972 9.88889 14.9861 10.2778 15.4653 10.2778C15.9444 10.2778 16.3333 9.88889 16.3333 9.40972C16.3333 8.93056 15.9444 8.54167 15.4653 8.54167Z" fill="#7C7A78"/>
<path d="M10.6041 11.3194C9.54856 11.3194 8.6944 10.4653 8.6944 9.40972C8.6944 8.35417 9.54856 7.5 10.6041 7.5C11.6597 7.5 12.5138 8.35417 12.5138 9.40972C12.5138 10.4653 11.6597 11.3194 10.6041 11.3194ZM10.6041 8.54167C10.125 8.54167 9.73606 8.93056 9.73606 9.40972C9.73606 9.88889 10.125 10.2778 10.6041 10.2778C11.0833 10.2778 11.4722 9.88889 11.4722 9.40972C11.4722 8.93056 11.0833 8.54167 10.6041 8.54167Z" fill="#7C7A78"/>
</svg>



