<svg width="48" height="48" viewBox="0 0 48 48" fill="none" xmlns="http://www.w3.org/2000/svg">
<rect width="48" height="48" rx="8" fill="#F3E9EB"/>
<g clip-path="url(#clip0_124_2000)">
<path d="M31.6646 19.1117C31.4811 19.2952 31.4811 19.5927 31.6646 19.7761L32.8153 20.9268H26.5107C25.8885 20.9268 25.3035 21.1691 24.8635 21.6091C24.4235 22.0491 24.1812 22.6341 24.1812 23.2564V24.5582C24.1812 24.8176 24.3915 25.028 24.651 25.028C24.9104 25.028 25.1208 24.8177 25.1208 24.5582V23.2564C25.1208 22.49 25.7443 21.8665 26.5107 21.8665H32.8153L31.6646 23.0172C31.4811 23.2006 31.4811 23.4981 31.6646 23.6816C31.7563 23.7733 31.8766 23.8192 31.9968 23.8192C32.117 23.8192 32.2373 23.7733 32.329 23.6816L34.2817 21.7288C34.4652 21.5454 34.4652 21.2479 34.2817 21.0644L32.329 19.1118C32.1455 18.9282 31.8481 18.9282 31.6646 19.1117Z" fill="#871E35"/>
<path d="M34.3305 27.8546C34.0352 27.1564 33.6125 26.5295 33.0742 25.9911C32.5359 25.4528 31.9089 25.0302 31.2107 24.7348C30.4876 24.429 29.7197 24.2739 28.9284 24.2739C28.1371 24.2739 27.3693 24.429 26.6461 24.7348C25.9479 25.0302 25.321 25.4528 24.7826 25.9911C24.2443 26.5294 23.8217 27.1564 23.5264 27.8546C23.2205 28.5778 23.0654 29.3456 23.0654 30.1369C23.0654 30.9282 23.2205 31.6961 23.5264 32.4192C23.8217 33.1174 24.2443 33.7444 24.7826 34.2827C25.3209 34.821 25.9479 35.2437 26.6461 35.539C27.3693 35.8448 28.1371 35.9999 28.9284 35.9999C29.7197 35.9999 30.4876 35.8448 31.2107 35.539C31.9089 35.2437 32.5359 34.821 33.0742 34.2827C33.6125 33.7444 34.0352 33.1174 34.3305 32.4192C34.6363 31.6961 34.7914 30.9282 34.7914 30.1369C34.7914 29.3456 34.6363 28.5777 34.3305 27.8546ZM28.9285 35.0602C26.2137 35.0602 24.0051 32.8516 24.0051 30.1369C24.0051 27.4221 26.2137 25.2135 28.9285 25.2135C31.6432 25.2135 33.8518 27.4221 33.8518 30.1369C33.8518 32.8516 31.6432 35.0602 28.9285 35.0602Z" fill="#871E35"/>
<path d="M31.532 29.6675H29.3982V26.2319C29.3982 25.9724 29.1879 25.7621 28.9284 25.7621C28.6689 25.7621 28.4586 25.9724 28.4586 26.2319V30.1373C28.4586 30.3967 28.6689 30.6071 28.9284 30.6071H31.532C31.7914 30.6071 32.0018 30.3968 32.0018 30.1373C32.0018 29.8778 31.7915 29.6675 31.532 29.6675ZM16.4684 18.8811C16.2089 18.8811 15.9985 19.0915 15.9985 19.351V19.7229C15.9985 20.4947 16.6264 21.1226 17.3982 21.1226H17.6723V21.5826C17.6723 21.8421 17.8826 22.0524 18.1421 22.0524C18.4015 22.0524 18.6119 21.8421 18.6119 21.5826V21.1226H18.886C19.6578 21.1226 20.2857 20.4947 20.2857 19.7229V18.9791C20.2857 18.2073 19.6578 17.5794 18.886 17.5794H17.3982C17.1446 17.5794 16.9382 17.373 16.9382 17.1194V16.3754C16.9382 16.1218 17.1446 15.9154 17.3982 15.9154H18.886C19.1397 15.9154 19.346 16.1218 19.346 16.3754V16.7474C19.346 17.0069 19.5563 17.2172 19.8158 17.2172C20.0753 17.2172 20.2857 17.0069 20.2857 16.7474V16.3754C20.2857 15.6036 19.6578 14.9758 18.886 14.9758H18.6119V14.5157C18.6119 14.2563 18.4016 14.0459 18.1421 14.0459C17.8826 14.0459 17.6723 14.2562 17.6723 14.5157V14.9758H17.3982C16.6264 14.9758 15.9985 15.6037 15.9985 16.3754V17.1193C15.9985 17.8911 16.6264 18.519 17.3982 18.519H18.8859C19.1396 18.519 19.346 18.7254 19.346 18.979V19.7229C19.346 19.9765 19.1396 20.1829 18.8859 20.1829H17.3982C17.1445 20.1829 16.9381 19.9765 16.9381 19.7229V19.3509C16.9382 19.0915 16.7279 18.8811 16.4684 18.8811Z" fill="#871E35"/>
<path d="M24.6511 35.0604H14.4227C14.35 35.0603 14.2803 35.0314 14.229 34.98C14.1776 34.9286 14.1487 34.859 14.1486 34.7863V14.5155C14.1486 13.6466 14.8555 12.9396 15.7245 12.9396H29.0132C28.6539 13.385 28.4586 13.9352 28.4586 14.5155V19.9087C28.4586 20.1681 28.6689 20.3785 28.9284 20.3785C29.1879 20.3785 29.3982 20.1682 29.3982 19.9087V18.1468H32.6479C33.112 18.1468 33.4896 17.7692 33.4896 17.3051V14.5155C33.4896 13.8436 33.2279 13.2119 32.7528 12.7368C32.2777 12.2617 31.646 12 30.9741 12H15.7245C15.0526 12 14.4209 12.2617 13.9458 12.7368C13.4706 13.2119 13.209 13.8436 13.209 14.5155V34.7863C13.209 35.4555 13.7534 36 14.4227 36H24.6511C24.9105 36 25.1209 35.7897 25.1209 35.5302C25.1209 35.2707 24.9105 35.0604 24.6511 35.0604ZM32.5499 14.5155V17.2072H29.3982V14.5155C29.3982 13.6466 30.1051 12.9397 30.974 12.9396H30.9741C31.843 12.9396 32.5499 13.6465 32.5499 14.5155Z" fill="#871E35"/>
<path d="M21.6754 17.217H26.8826C27.1421 17.217 27.3524 17.0067 27.3524 16.7472C27.3524 16.4877 27.1421 16.2773 26.8826 16.2773H21.6754C21.416 16.2773 21.2056 16.4877 21.2056 16.7472C21.2056 17.0067 21.416 17.217 21.6754 17.217ZM27.3524 19.7227C27.3524 19.4632 27.1421 19.2529 26.8826 19.2529H21.6754C21.416 19.2529 21.2056 19.4632 21.2056 19.7227C21.2056 19.9822 21.4159 20.1925 21.6754 20.1925H26.8827C27.1421 20.1925 27.3524 19.9822 27.3524 19.7227ZM22.6053 22.7864H16.0963C15.8369 22.7864 15.6265 22.9967 15.6265 23.2562C15.6265 23.5157 15.8368 23.726 16.0963 23.726H22.6053C22.8648 23.726 23.0751 23.5157 23.0751 23.2562C23.0751 22.9967 22.8648 22.7864 22.6053 22.7864ZM23.0751 26.2317C23.0751 25.9723 22.8648 25.7619 22.6053 25.7619H16.0963C15.8369 25.7619 15.6265 25.9722 15.6265 26.2317C15.6265 26.4912 15.8368 26.7015 16.0963 26.7015H22.6053C22.8648 26.7015 23.0751 26.4912 23.0751 26.2317ZM21.6754 28.7374H16.0963C15.8368 28.7374 15.6265 28.9478 15.6265 29.2073C15.6265 29.4668 15.8368 29.6771 16.0963 29.6771H21.6754C21.9349 29.6771 22.1452 29.4668 22.1452 29.2073C22.1452 28.9478 21.9349 28.7374 21.6754 28.7374ZM16.0963 31.713C15.8368 31.713 15.6265 31.9233 15.6265 32.1828C15.6265 32.4423 15.8368 32.6526 16.0963 32.6526H21.6754C21.9349 32.6526 22.1452 32.4423 22.1452 32.1828C22.1452 31.9233 21.9349 31.713 21.6754 31.713H16.0963Z" fill="#871E35"/>
</g>
<defs>
<clipPath id="clip0_124_2000">
<rect width="24" height="24" fill="white" transform="translate(12 12)"/>
</clipPath>
</defs>
</svg>
