<svg width="20" height="20" viewBox="0 0 20 20" fill="none" xmlns="http://www.w3.org/2000/svg">
<path d="M15.6309 20H4.36527C2.55273 20 1.16776 19.3012 0.461336 18.0413C-0.235794 16.7815 -0.142843 15.1575 0.740188 13.4744L6.373 2.74606C7.30251 0.974409 8.58523 0 9.99808 0C11.4109 0 12.6936 0.974409 13.6232 2.74606L19.256 13.4843C20.139 15.1673 20.2412 16.7815 19.5348 18.0512C18.8284 19.3012 17.4434 20 15.6309 20ZM9.99808 1.47638C9.12434 1.47638 8.2692 2.18504 7.59066 3.46457L1.96714 14.2028C1.33507 15.4035 1.23283 16.5059 1.6697 17.3032C2.10656 18.1004 3.07325 18.5335 4.37456 18.5335H15.6402C16.9415 18.5335 17.8989 18.1004 18.3451 17.3032C18.7912 16.5059 18.6797 15.4134 18.0476 14.2028L12.4055 3.46457C11.727 2.18504 10.8718 1.47638 9.99808 1.47638Z" fill="#7C7A78"/>
<path d="M9.99809 12.7067C9.617 12.7067 9.30096 12.3721 9.30096 11.9685V7.04727C9.30096 6.64373 9.617 6.30908 9.99809 6.30908C10.3792 6.30908 10.6952 6.64373 10.6952 7.04727V11.9685C10.6952 12.3721 10.3792 12.7067 9.99809 12.7067Z" fill="#7C7A78"/>
<path d="M9.99811 15.9055C9.94234 15.9055 9.87727 15.8957 9.81221 15.8858C9.75644 15.876 9.70067 15.8563 9.6449 15.8268C9.58913 15.8071 9.53336 15.7776 9.47759 15.7382C9.43111 15.6988 9.38464 15.6595 9.33816 15.6201C9.17085 15.4331 9.0686 15.1772 9.0686 14.9213C9.0686 14.6654 9.17085 14.4095 9.33816 14.2225C9.38464 14.1831 9.43111 14.1437 9.47759 14.1044C9.53336 14.065 9.58913 14.0355 9.6449 14.0158C9.70067 13.9862 9.75644 13.9666 9.81221 13.9567C9.93305 13.9272 10.0632 13.9272 10.1747 13.9567C10.2398 13.9666 10.2956 13.9862 10.3513 14.0158C10.4071 14.0355 10.4629 14.065 10.5186 14.1044C10.5651 14.1437 10.6116 14.1831 10.6581 14.2225C10.8254 14.4095 10.9276 14.6654 10.9276 14.9213C10.9276 15.1772 10.8254 15.4331 10.6581 15.6201C10.6116 15.6595 10.5651 15.6988 10.5186 15.7382C10.4629 15.7776 10.4071 15.8071 10.3513 15.8268C10.2956 15.8563 10.2398 15.876 10.1747 15.8858C10.1189 15.8957 10.0539 15.9055 9.99811 15.9055Z" fill="#7C7A78"/>
</svg>
