<!-- sample rectangle -->
<svg width="125" height="120" viewBox="0 0 125 120" fill="none" xmlns="http://www.w3.org/2000/svg">
<circle cx="60.5" cy="60" r="60" fill="#E3AC1E"/>
<circle cx="64.5" cy="60" r="60" fill="url(#paint0_linear_128_2363)"/>
<path d="M84.6103 41.6536C84.1004 41.2967 83.5252 41.0438 82.9176 40.9093C82.31 40.7748 81.6818 40.7614 81.069 40.8698C80.4563 40.9782 79.8708 41.2064 79.3462 41.5412C78.8215 41.8761 78.368 42.3111 78.0114 42.8213L59.9968 68.5608L48.1851 60.4886C47.2378 59.8403 46.0718 59.595 44.9437 59.8068C43.8156 60.0185 42.8178 60.6699 42.1698 61.6177C41.5218 62.5655 41.2766 63.732 41.4883 64.8607C41.7 65.9893 42.3511 66.9876 43.2984 67.6359L59.1314 78.4555C59.619 78.7885 60.1701 79.0173 60.7501 79.1275C61.3302 79.2377 61.9267 79.2269 62.5024 79.0959C63.1165 78.9885 63.7033 78.7609 64.2293 78.4262C64.7553 78.0914 65.21 77.6561 65.5675 77.1452L85.7781 48.2592C86.4984 47.2278 86.7799 45.9524 86.5608 44.7134C86.3417 43.4744 85.6399 42.373 84.6095 41.6515" fill="white"/>
<defs>
<linearGradient id="paint0_linear_128_2363" x1="64.5" y1="0" x2="64.5" y2="120" gradientUnits="userSpaceOnUse">
<stop stop-color="#9B4457"/>
<stop offset="1" stop-color="#9B7209"/>
</linearGradient>
</defs>
</svg>
