<svg width="24" height="24" viewBox="0 0 24 24" fill="none" xmlns="http://www.w3.org/2000/svg">
<path d="M8.55755 15.3699C8.74755 15.3699 8.93755 15.2999 9.08755 15.1499C9.37755 14.8599 9.37755 14.3799 9.08755 14.0899L7.05755 12.0599L9.08755 10.0299C9.37755 9.73994 9.37755 9.25994 9.08755 8.96994C8.79755 8.67994 8.31755 8.67994 8.02755 8.96994L5.46755 11.5299C5.17755 11.8199 5.17755 12.2999 5.46755 12.5899L8.02755 15.1499C8.16755 15.2999 8.36755 15.3699 8.55755 15.3699Z" fill="#7C7A78"/>
<path d="M6.06755 12.8101H16.2375C16.6475 12.8101 16.9875 12.4701 16.9875 12.0601C16.9875 11.6501 16.6475 11.3101 16.2375 11.3101H6.06755C5.65755 11.3101 5.31755 11.6501 5.31755 12.0601C5.31755 12.4701 5.65755 12.8101 6.06755 12.8101Z" fill="#7C7A78"/>
<path d="M12 20.75C11.59 20.75 11.25 20.41 11.25 20C11.25 19.59 11.59 19.25 12 19.25C16.27 19.25 19.25 16.27 19.25 12C19.25 7.73 16.27 4.75 12 4.75C11.59 4.75 11.25 4.41 11.25 4C11.25 3.59 11.59 3.25 12 3.25C17.15 3.25 20.75 6.85 20.75 12C20.75 17.15 17.15 20.75 12 20.75Z" fill="#7C7A78"/>
</svg>
