<!-- sample rectangle -->
<svg width="21" height="27" viewBox="0 0 21 27" fill="none" xmlns="http://www.w3.org/2000/svg">
<path d="M18.4486 18.1666V11.5C18.4486 7.40663 16.2619 3.97996 12.4486 3.07329V2.16663C12.4486 1.05996 11.5553 0.166626 10.4486 0.166626C9.34195 0.166626 8.44862 1.05996 8.44862 2.16663V3.07329C4.62195 3.97996 2.44862 7.39329 2.44862 11.5V18.1666L0.728616 19.8866C-0.111384 20.7266 0.475282 22.1666 1.66195 22.1666H19.2219C20.4086 22.1666 21.0086 20.7266 20.1686 19.8866L18.4486 18.1666Z" fill="#24221E"/>
<path d="M13.1152 23.5C13.1152 24.9667 11.9152 26.1667 10.4485 26.1667C9.74128 26.1667 9.06301 25.8857 8.56291 25.3856C8.06281 24.8855 7.78186 24.2072 7.78186 23.5H13.1152Z" fill="#871E35"/>
</svg>



