<svg width="273" height="196" viewBox="0 0 273 196" fill="none" xmlns="http://www.w3.org/2000/svg">
<path d="M45.5608 124.77C37.3001 132.93 35.8992 145.555 37.6504 156.615C37.6987 156.865 38.0851 156.798 38.0851 156.56C38.0851 154.044 38.0066 151.551 38.0127 149.065C38.061 148.949 38.0972 148.84 38.1455 148.73C40.3013 147.146 42.3 145.366 43.5077 142.929C44.8905 140.187 45.434 137.104 46.4847 134.24C46.5873 133.966 46.2975 134.045 46.1042 134.191C41.0802 137.926 39.4619 141.954 38.0368 147.329C38.0653 144.516 38.3584 141.713 38.9124 138.956C39.9993 133.856 42.143 128.792 45.7782 125.008C45.8094 124.979 45.8279 124.939 45.8296 124.896C45.8313 124.853 45.8161 124.811 45.7872 124.78C45.7584 124.748 45.7183 124.729 45.6759 124.728C45.6334 124.726 45.592 124.741 45.5608 124.77Z" fill="#C8C8C7"/>
<path d="M47.1303 125.721C48.5493 125.77 49.443 128.061 50.5481 128.732C50.6644 128.827 50.7994 128.897 50.9441 128.936C51.0889 128.975 51.2402 128.983 51.3882 128.96C51.5363 128.936 51.6778 128.881 51.8035 128.799C51.9293 128.717 52.0364 128.609 52.1181 128.482C53.2171 126.934 51.7075 125.027 50.3065 123.96C51.321 124.381 52.1604 125.118 53.2533 125.331C53.393 125.376 53.5405 125.391 53.686 125.373C53.8316 125.356 53.9719 125.308 54.0975 125.232C54.2232 125.156 54.3314 125.054 54.4149 124.932C54.4984 124.811 54.5553 124.673 54.5818 124.527C55.0588 122.419 52.4442 121.48 50.6447 121.438C51.5142 120.828 54.0142 119.165 52.6857 118.348C51.3572 117.532 48.4105 119.902 47.4564 120.682C46.0494 121.834 44.3767 123.552 44.3103 125.35C44.2016 127.452 46.0192 126.16 47.1303 125.721Z" fill="#DBDBDB"/>
<path d="M46.7017 126.075C48.5132 125.24 52.0095 126.44 52.3054 125.746C52.9092 124.332 50.1195 123.363 48.6098 123.174C49.9987 122.796 52.6556 122.193 52.5771 120.846C52.4745 119.195 48.5011 120.615 46.4843 122.169C43.9542 124.131 43.9662 126.026 44.3889 126.404C44.9626 126.922 46.3998 126.209 46.7017 126.075Z" fill="white"/>
<path d="M26.7446 123.96C35.3072 131.797 37.1731 144.361 35.8446 155.482C35.8446 155.732 35.4219 155.683 35.4159 155.445C35.3193 152.929 35.3012 150.431 35.1985 147.95L35.0596 147.615C32.8495 146.122 30.7964 144.41 29.4801 142.009C27.9946 139.328 27.3364 136.263 26.177 133.442C26.0683 133.174 26.3582 133.241 26.5514 133.375C31.7143 136.921 33.4715 140.882 35.114 146.202C34.9714 143.391 34.5671 140.6 33.9063 137.866C32.6261 132.808 30.2832 127.836 26.5152 124.192C26.3944 124.04 26.5997 123.82 26.7446 123.96Z" fill="#C8C8C7"/>
<path d="M25.2292 124.972C23.8101 125.075 23.007 127.409 21.9261 128.11C21.8139 128.21 21.682 128.285 21.5389 128.33C21.3959 128.376 21.245 128.39 21.0961 128.372C20.9473 128.354 20.8039 128.305 20.6753 128.227C20.5467 128.149 20.4359 128.045 20.3501 127.921C19.1967 126.416 20.6279 124.454 22.0046 123.332C21.0083 123.796 20.1931 124.551 19.1122 124.813C18.9729 124.864 18.8243 124.885 18.6765 124.872C18.5287 124.86 18.3854 124.816 18.2563 124.742C18.1272 124.668 18.0154 124.568 17.9286 124.446C17.8418 124.325 17.7821 124.186 17.7535 124.039C17.192 121.949 19.7764 120.913 21.5699 120.798C20.6762 120.225 18.1158 118.659 19.4141 117.794C20.7124 116.928 23.7437 119.183 24.728 119.926C26.1772 121.023 27.9163 122.674 28.0431 124.472C28.2062 126.593 26.3403 125.368 25.2292 124.972Z" fill="#DBDBDB"/>
<path d="M25.6518 125.306C23.8101 124.544 20.3621 125.879 20.0421 125.196C19.3899 123.807 22.1374 122.759 23.6652 122.485C22.2643 122.162 19.5892 121.656 19.6194 120.31C19.6556 118.658 23.6833 119.92 25.7545 121.4C28.3571 123.265 28.4114 125.154 28.0069 125.55C27.4272 126.092 25.9598 125.434 25.6518 125.306Z" fill="white"/>
<path d="M35.4999 144.66C36.0807 148.852 36.9708 152.995 38.1629 157.054C38.1802 157.134 38.2278 157.203 38.2953 157.247C38.3628 157.292 38.445 157.308 38.524 157.292C38.6031 157.276 38.6728 157.229 38.7182 157.162C38.7636 157.095 38.781 157.012 38.7667 156.932C38.2052 153.118 37.1786 149.364 36.617 145.55C35.9999 141.685 35.7794 137.766 35.9588 133.856C36.3151 127.421 38.0482 120.572 42.2087 115.539C42.3053 115.417 42.106 115.253 42.0154 115.362C33.6823 125.167 35.0108 137.183 35.0168 138.262C33.8091 134.204 32.6014 129.548 28.1571 125.417C27.9639 125.24 27.8129 125.325 27.8491 125.63C28.6402 133.18 30.7114 137.086 35.0531 141.101C35.1618 142.32 35.3127 143.49 35.4999 144.66Z" fill="#C8C8C7"/>
<path d="M42.2994 116.666C43.797 115.996 45.8682 117.921 47.3476 118.049C47.5159 118.093 47.6916 118.1 47.8627 118.069C48.0338 118.038 48.1963 117.97 48.339 117.87C48.4818 117.77 48.6014 117.64 48.6898 117.489C48.7782 117.338 48.8332 117.17 48.8512 116.995C49.2195 114.832 46.7075 113.619 44.7027 113.236C45.9648 113.156 47.2027 113.491 48.4406 113.156C48.6069 113.13 48.7659 113.068 48.9072 112.975C49.0486 112.883 49.1692 112.762 49.2613 112.619C49.3534 112.477 49.4151 112.317 49.4422 112.149C49.4693 111.981 49.4613 111.81 49.4188 111.645C48.8693 109.208 45.681 109.573 43.797 110.426C44.4008 109.348 46.158 106.356 44.4008 106.161C42.6436 105.966 40.7415 109.945 40.1437 111.243C39.256 113.15 38.3744 115.789 39.2077 117.684C40.1256 119.944 41.3634 117.678 42.2994 116.666Z" fill="#DBDBDB"/>
<path d="M42.0279 117.239C43.5013 115.453 47.7222 114.923 47.6799 114.052C47.6014 112.285 44.2259 112.693 42.5713 113.266C43.8153 112.169 46.2729 110.189 45.5181 108.83C44.5882 107.172 41.1704 110.658 39.8601 113.302C38.2116 116.623 39.1717 118.579 39.7936 118.756C40.6511 119.006 41.7863 117.537 42.0279 117.239Z" fill="white"/>
<path d="M30.0171 146.927L26.3457 175.261H48.6881C48.2292 172.751 44.0687 146.896 44.0687 146.896L30.0171 146.927Z" fill="#DBDBDB"/>
<path d="M248.091 64.0975H264.081V57.2789H248.091V64.0975Z" fill="white"/>
<path d="M257.01 55.4994H273V48.6808H257.01V55.4994Z" fill="white"/>
<path d="M239.166 55.4994H255.156V48.6808H239.166V55.4994Z" fill="white"/>
<path d="M8.91878 152.039H24.9087V145.221H8.91878V152.039Z" fill="white"/>
<path d="M-0.000166893 143.441H15.9897V136.622H-0.000166893V143.441Z" fill="white"/>
<path d="M257.01 152.033H273V145.214H257.01V152.033Z" fill="white"/>
<path d="M69.4186 0.499878H53.4287V7.31849H69.4186V0.499878Z" fill="white"/>
<path d="M60.4933 9.09766H44.5034V15.9163H60.4933V9.09766Z" fill="white"/>
<path d="M20.5308 175.237L49.5215 175.091L78.5123 175.036L136.5 174.933L194.481 175.036L223.478 175.091L252.469 175.237L223.478 175.39L194.481 175.438L136.5 175.542L78.5123 175.438L49.5215 175.384L20.5308 175.237Z" fill="#24221E"/>
<path d="M90.2451 88.6237C90.0908 88.4447 89.9254 88.2757 89.7499 88.1179C89.592 87.9423 89.4247 87.7755 89.2487 87.6183C89.0929 87.4407 88.9276 87.2719 88.7536 87.1125C88.5972 86.9354 88.4298 86.7685 88.2524 86.6128C88.0954 86.4361 87.9263 86.2655 87.7572 86.1071C87.6045 85.9286 87.439 85.7615 87.2621 85.6074C87.1042 85.4298 86.9369 85.261 86.7609 85.1017C86.6081 84.9231 86.4426 84.7561 86.2657 84.602C86.1078 84.4264 85.9405 84.2596 85.7645 84.1023C85.2534 83.5337 84.6562 83.0504 83.9952 82.6703V32.3137C83.9952 32.0456 83.8684 31.9116 83.8684 31.6435C83.9011 31.37 83.855 31.0929 83.7356 30.8452C83.7356 30.7112 83.6088 30.443 83.6088 30.309C83.5361 30.035 83.4453 29.7663 83.337 29.5046C83.1974 29.3575 83.1067 29.17 83.0774 28.9684C82.9254 28.7277 82.7471 28.5049 82.546 28.3042C82.4071 28.1702 82.2803 27.9081 82.1475 27.768L81.6161 27.2318C81.6161 27.1526 81.5134 27.0672 81.3987 27.0185L81.139 26.7504H81.1088C81.1088 26.6651 81.0122 26.5859 80.8975 26.531L80.6318 26.269C80.6318 26.1898 80.5291 26.1045 80.4144 26.0496L80.1548 25.7876C80.1548 25.7023 80.0521 25.6231 79.9374 25.5682L79.6777 25.3001C79.6777 25.2209 79.5751 25.1356 79.4603 25.0808L79.1946 24.8188V24.7883C79.1946 24.7091 79.092 24.6299 78.9773 24.575L78.7176 24.3069H78.6874C78.6874 24.2277 78.5908 24.1424 78.4761 24.0875L78.2104 23.8255V23.795C78.2104 23.7158 78.1077 23.6366 77.993 23.5818L77.7333 23.3137H77.7031C77.7031 23.2283 77.6065 23.1491 77.4918 23.0943L77.2261 22.8323C77.2261 22.7531 77.1234 22.6677 77.0087 22.619L76.7189 22.3265C76.7189 22.1925 76.4592 22.0584 76.3203 22.0584C76.3211 22.0411 76.3185 22.0238 76.3125 22.0076C76.3064 21.9913 76.2972 21.9765 76.2854 21.964C76.2735 21.9514 76.2593 21.9414 76.2435 21.9346C76.2277 21.9278 76.2107 21.9243 76.1935 21.9243C75.9278 21.7964 75.7889 21.6562 75.5293 21.5222C75.3009 21.355 75.0812 21.176 74.8711 20.986C74.7382 20.986 74.4725 20.858 74.3397 20.858C74.074 20.7239 73.6755 20.7239 73.5426 20.5838C73.3138 20.6026 73.0842 20.5584 72.8784 20.4558H70.6321C70.4744 20.558 70.287 20.6031 70.1007 20.5838C69.7021 20.7239 69.4425 20.7239 69.3036 20.858C69.0439 20.858 68.9111 20.9859 68.7722 21.2602C68.4887 21.2668 68.2134 21.358 67.9812 21.5222C67.8544 21.6562 67.5826 21.7964 67.4498 21.9243C67.2734 22.1196 67.0448 22.2593 66.7916 22.3265C66.6926 22.5285 66.5575 22.7103 66.393 22.8627C66.2602 22.9968 66.2602 23.1248 66.1334 23.1248L16.9378 84.4314C15.7745 85.841 15.1938 87.6485 15.3164 89.4788C15.439 91.309 16.2553 93.0213 17.596 94.2602C17.7512 94.4442 17.9209 94.6154 18.1033 94.772C18.2549 94.9555 18.4226 95.1248 18.6044 95.2778C18.7597 95.4618 18.9293 95.633 19.1117 95.7896C19.2648 95.9736 19.4324 96.1448 19.6129 96.3015C19.7682 96.4836 19.9378 96.6527 20.1201 96.8072C20.2732 96.9912 20.4408 97.1624 20.6213 97.3191C20.7766 97.5012 20.9462 97.6703 21.1285 97.8249C21.2816 98.0088 21.4493 98.18 21.6297 98.3367C21.785 98.5188 21.9546 98.688 22.137 98.8425C22.4492 99.2006 22.7973 99.5253 23.1756 99.8113C24.4192 100.902 26.0275 101.475 27.6743 101.414H64.34V106.478C64.3291 107.508 64.5344 108.53 64.9423 109.475C65.3503 110.42 65.9517 111.268 66.707 111.962C66.864 112.132 67.0271 112.297 67.1901 112.449C67.344 112.623 67.5073 112.788 67.6792 112.943C67.8362 113.113 67.9993 113.278 68.1684 113.43C68.3222 113.604 68.4855 113.769 68.6575 113.924C68.8145 114.094 68.9775 114.259 69.1466 114.417C69.2989 114.592 69.4623 114.757 69.6357 114.911C69.7867 115.082 69.9497 115.246 70.1188 115.405C70.2727 115.578 70.4359 115.743 70.6079 115.898C70.7589 116.063 70.9219 116.227 71.091 116.386C72.0884 117.474 73.3874 118.234 74.8188 118.566C76.2503 118.899 77.7478 118.788 79.1162 118.25C80.4847 117.711 81.6607 116.769 82.4911 115.547C83.3215 114.324 83.7678 112.877 83.7718 111.395V101.39H85.1003C86.067 101.406 87.0273 101.228 87.9251 100.866C88.823 100.504 89.6405 99.965 90.3301 99.2811C91.0197 98.5971 91.5675 97.7816 91.9416 96.8819C92.3158 95.9823 92.5088 95.0165 92.5095 94.0408C92.5241 93.0289 92.3304 92.0249 91.9406 91.0925C91.5508 90.16 90.9734 89.3194 90.2451 88.6237ZM64.3279 59.9843V81.5796H47.082L64.3279 59.9843Z" fill="#871E35"/>
<path opacity="0.1" d="M90.2451 88.6237C90.0908 88.4447 89.9254 88.2757 89.7499 88.1179C89.592 87.9423 89.4247 87.7755 89.2487 87.6183C89.0929 87.4407 88.9276 87.2719 88.7536 87.1125C88.5972 86.9354 88.4298 86.7685 88.2524 86.6128C88.0954 86.4361 87.9263 86.2655 87.7572 86.1071C87.6045 85.9286 87.439 85.7615 87.2621 85.6074C87.1042 85.4298 86.9369 85.261 86.7609 85.1017C86.6081 84.9231 86.4426 84.7561 86.2657 84.602C86.1078 84.4264 85.9405 84.2596 85.7645 84.1023C85.2534 83.5337 84.6562 83.0504 83.9952 82.6703V32.3137C83.9952 32.0456 83.8684 31.9116 83.8684 31.6435C83.9011 31.37 83.855 31.0929 83.7356 30.8452C83.7356 30.7112 83.6088 30.443 83.6088 30.309C83.5361 30.035 83.4453 29.7663 83.337 29.5046C83.1974 29.3575 83.1067 29.17 83.0774 28.9684C82.9254 28.7277 82.7471 28.5049 82.546 28.3042C82.4071 28.1702 82.2803 27.9081 82.1475 27.768L81.6161 27.2318C81.6161 27.1526 81.5134 27.0672 81.3987 27.0185L81.139 26.7504H81.1088C81.1088 26.6651 81.0122 26.5859 80.8975 26.531L80.6318 26.269C80.6318 26.1898 80.5291 26.1045 80.4144 26.0496L80.1548 25.7876C80.1548 25.7023 80.0521 25.6231 79.9374 25.5682L79.6777 25.3001C79.6777 25.2209 79.5751 25.1356 79.4603 25.0808L79.1946 24.8188V24.7883C79.1946 24.7091 79.092 24.6299 78.9773 24.575L78.7176 24.3069H78.6874C78.6874 24.2277 78.5908 24.1424 78.4761 24.0875L78.2104 23.8255V23.795C78.2104 23.7158 78.1077 23.6366 77.993 23.5818L77.7333 23.3137H77.7031C77.7031 23.2283 77.6065 23.1491 77.4918 23.0943L77.2261 22.8323C77.2261 22.7531 77.1234 22.6677 77.0087 22.619L76.7189 22.3265C76.7189 22.1925 76.4592 22.0584 76.3203 22.0584C76.3211 22.0411 76.3185 22.0238 76.3125 22.0076C76.3064 21.9913 76.2972 21.9765 76.2854 21.964C76.2735 21.9514 76.2593 21.9414 76.2435 21.9346C76.2277 21.9278 76.2107 21.9243 76.1935 21.9243C75.9278 21.7964 75.7889 21.6562 75.5293 21.5222C75.3009 21.355 75.0812 21.176 74.8711 20.986C74.7382 20.986 74.4725 20.858 74.3397 20.858C74.074 20.7239 73.6755 20.7239 73.5426 20.5838C73.3138 20.6026 73.0842 20.5584 72.8784 20.4558H70.6321C70.4744 20.558 70.287 20.6031 70.1007 20.5838C69.7021 20.7239 69.4425 20.7239 69.3036 20.858C69.0439 20.858 68.9111 20.9859 68.7722 21.2602C68.4887 21.2668 68.2134 21.358 67.9812 21.5222C67.8544 21.6562 67.5826 21.7964 67.4498 21.9243C67.2734 22.1196 67.0448 22.2593 66.7916 22.3265C66.6926 22.5285 66.5575 22.7103 66.393 22.8627C66.2602 22.9968 66.2602 23.1248 66.1334 23.1248L16.9378 84.4314C15.7745 85.841 15.1938 87.6485 15.3164 89.4788C15.439 91.309 16.2553 93.0213 17.596 94.2602C17.7512 94.4442 17.9209 94.6154 18.1033 94.772C18.2549 94.9555 18.4226 95.1248 18.6044 95.2778C18.7597 95.4618 18.9293 95.633 19.1117 95.7896C19.2648 95.9736 19.4324 96.1448 19.6129 96.3015C19.7682 96.4836 19.9378 96.6527 20.1201 96.8072C20.2732 96.9912 20.4408 97.1624 20.6213 97.3191C20.7766 97.5012 20.9462 97.6703 21.1285 97.8249C21.2816 98.0088 21.4493 98.18 21.6297 98.3367C21.785 98.5188 21.9546 98.688 22.137 98.8425C22.4492 99.2006 22.7973 99.5253 23.1756 99.8113C24.4192 100.902 26.0275 101.475 27.6743 101.414H64.34V106.478C64.3291 107.508 64.5344 108.53 64.9423 109.475C65.3503 110.42 65.9517 111.268 66.707 111.962C66.864 112.132 67.0271 112.297 67.1901 112.449C67.344 112.623 67.5073 112.788 67.6792 112.943C67.8362 113.113 67.9993 113.278 68.1684 113.43C68.3222 113.604 68.4855 113.769 68.6575 113.924C68.8145 114.094 68.9775 114.259 69.1466 114.417C69.2989 114.592 69.4623 114.757 69.6357 114.911C69.7867 115.082 69.9497 115.246 70.1188 115.405C70.2727 115.578 70.4359 115.743 70.6079 115.898C70.7589 116.063 70.9219 116.227 71.091 116.386C72.0884 117.474 73.3874 118.234 74.8188 118.566C76.2503 118.899 77.7478 118.788 79.1162 118.25C80.4847 117.711 81.6607 116.769 82.4911 115.547C83.3215 114.324 83.7678 112.877 83.7718 111.395V101.39H85.1003C86.067 101.406 87.0273 101.228 87.9251 100.866C88.823 100.504 89.6405 99.965 90.3301 99.2811C91.0197 98.5971 91.5675 97.7816 91.9416 96.8819C92.3158 95.9823 92.5088 95.0165 92.5095 94.0408C92.5241 93.0289 92.3304 92.0249 91.9406 91.0925C91.5508 90.16 90.9734 89.3194 90.2451 88.6237ZM64.3279 59.9843V81.5796H47.082L64.3279 59.9843Z" fill="#E3AC1E"/>
<path d="M87.6249 88.9471C87.6243 89.9233 87.431 90.8896 87.0565 91.7896C86.6819 92.6897 86.1336 93.5055 85.4434 94.1896C84.7532 94.8736 83.935 95.4121 83.0364 95.7737C82.1378 96.1353 81.1769 96.3128 80.2097 96.2958H78.8872V106.454C78.8872 108.403 78.12 110.272 76.7543 111.65C75.3885 113.028 73.5362 113.802 71.6048 113.802C69.6734 113.802 67.8211 113.028 66.4554 111.65C65.0896 110.272 64.3224 108.403 64.3224 106.454V96.2958H22.6146C20.9777 96.3519 19.3808 95.7791 18.1461 94.6932C17.3811 94.1129 16.7406 93.3821 16.2633 92.5451C15.7859 91.708 15.4816 90.782 15.3688 89.823C15.2559 88.864 15.3368 87.8918 15.6066 86.9652C15.8763 86.0386 16.3294 85.1768 16.9384 84.4318L65.9105 22.9424C66.0434 22.9424 66.0434 22.8144 66.1762 22.6804C66.3407 22.5279 66.4758 22.3461 66.5748 22.1441C66.8288 22.0748 67.0588 21.9356 67.239 21.742C67.3658 21.6079 67.6315 21.4739 67.7643 21.3398C67.9973 21.1716 68.2751 21.0782 68.5614 21.0717C68.6943 20.8097 68.8271 20.6756 69.0928 20.6756C69.2196 20.5415 69.4853 20.5416 69.8838 20.4075C70.0711 20.4276 70.2594 20.3801 70.4152 20.2734H72.6676C72.8692 20.3823 73.0981 20.4289 73.3258 20.4075C73.4586 20.5416 73.8572 20.5415 74.1229 20.6756C74.2557 20.6756 74.5214 20.8097 74.6543 20.8097C74.9139 21.0717 75.1796 21.2057 75.3124 21.3398C75.5781 21.4739 75.711 21.6079 75.9767 21.742C76.0119 21.742 76.0457 21.7561 76.0706 21.7812C76.0955 21.8064 76.1095 21.8405 76.1095 21.876C76.2424 21.876 76.5081 22.0101 76.5081 22.1441L77.0334 22.6804C77.1663 22.8144 77.2991 23.0764 77.4319 23.2105C77.6345 23.4121 77.8129 23.6371 77.9633 23.8808C77.9965 24.0824 78.0891 24.2692 78.229 24.417C78.3382 24.6751 78.4251 24.9421 78.4887 25.2153C78.4887 25.3493 78.6215 25.6174 78.6215 25.7515C78.7411 26.0013 78.7872 26.2804 78.7544 26.5558C78.7544 26.8178 78.8872 26.9519 78.8872 27.22V81.5983H80.2097C82.1563 81.5885 84.028 82.3554 85.4169 83.7318C86.8058 85.1083 87.5995 86.9828 87.6249 88.9471ZM64.3224 48.596L37.9765 81.5983H64.3224V48.596Z" fill="#871E35"/>
<path d="M165.08 40.193C163.586 37.8976 161.848 35.7727 159.899 33.8557C159.827 33.776 159.751 33.7007 159.67 33.6303L159.603 33.5633C159.543 33.4962 159.483 33.4292 159.416 33.3683C159.247 33.1855 159.066 33.0148 158.891 32.8381L158.842 32.7955L158.661 32.6127C158.641 32.5888 158.619 32.5664 158.595 32.5456C158.535 32.4786 158.474 32.4116 158.408 32.3507C158.239 32.1678 158.057 31.9972 157.882 31.8205L157.834 31.7779L157.653 31.5951L157.586 31.528C157.526 31.461 157.466 31.394 157.399 31.333C157.23 31.1502 157.049 30.9796 156.874 30.8029L156.826 30.7603L156.644 30.5774C156.644 30.5774 156.602 30.5287 156.578 30.5104C156.518 30.4409 156.454 30.3758 156.385 30.3154C156.222 30.1265 156.041 29.962 155.866 29.7853L155.817 29.7426C155.761 29.6772 155.701 29.6161 155.636 29.5598C155.636 29.5598 155.594 29.5111 155.57 29.4928C150.25 23.9599 143.318 20.2977 135.54 20.2977C125.075 20.2977 116.476 26.5801 110.909 35.1232C105.082 43.6541 102.044 54.7747 101.912 67.0592C102.044 79.2462 105.082 90.4399 110.909 98.9951C112.401 101.256 114.119 103.357 116.036 105.265L116.301 105.527V105.558L116.772 106.033C116.851 106.125 116.935 106.204 117.014 106.283L117.28 106.545L117.31 106.575L117.781 107.051L118.022 107.307L118.288 107.563C118.301 107.569 118.311 107.58 118.318 107.593L118.789 108.068L119.031 108.324L119.296 108.58C119.304 108.584 119.31 108.589 119.315 108.595C119.32 108.602 119.324 108.609 119.327 108.617L119.798 109.092L120.045 109.342L120.305 109.598L120.341 109.634L120.812 110.11C126.041 115.381 132.792 118.921 140.552 118.921C150.745 118.921 159.483 112.504 165.05 104.083C170.738 95.5523 173.921 84.3098 173.921 72.1533C173.939 59.8384 170.768 48.7482 165.08 40.193ZM147.852 90.6897C144.012 96.4298 139.64 98.9708 135.54 98.9708C133.017 98.9091 130.575 98.0573 128.553 96.5334C128.366 96.2896 128.185 96.0337 128.004 95.7656C124.296 90.1535 121.645 81.6043 121.645 72.1168C121.645 62.4951 124.296 54.08 128.004 48.3522C131.983 42.74 136.458 40.0711 140.582 40.1991C142.973 40.1881 145.303 40.9576 147.224 42.3927C147.436 42.6791 147.641 42.9594 147.828 43.258C151.536 49.0042 154.181 57.4193 154.181 67.0226C154.205 76.5102 151.56 85.0715 147.852 90.6897Z" fill="#871E35"/>
<path opacity="0.1" d="M165.08 40.193C163.586 37.8976 161.848 35.7727 159.899 33.8557C159.827 33.776 159.751 33.7007 159.67 33.6303L159.603 33.5633C159.543 33.4962 159.483 33.4292 159.416 33.3683C159.247 33.1855 159.066 33.0148 158.891 32.8381L158.842 32.7955L158.661 32.6127C158.641 32.5888 158.619 32.5664 158.595 32.5456C158.535 32.4786 158.474 32.4116 158.408 32.3507C158.239 32.1678 158.057 31.9972 157.882 31.8205L157.834 31.7779L157.653 31.5951L157.586 31.528C157.526 31.461 157.466 31.394 157.399 31.333C157.23 31.1502 157.049 30.9796 156.874 30.8029L156.826 30.7603L156.644 30.5774C156.644 30.5774 156.602 30.5287 156.578 30.5104C156.518 30.4409 156.454 30.3758 156.385 30.3154C156.222 30.1265 156.041 29.962 155.866 29.7853L155.817 29.7426C155.761 29.6772 155.701 29.6161 155.636 29.5598C155.636 29.5598 155.594 29.5111 155.57 29.4928C150.25 23.9599 143.318 20.2977 135.54 20.2977C125.075 20.2977 116.476 26.5801 110.909 35.1232C105.082 43.6541 102.044 54.7747 101.912 67.0592C102.044 79.2462 105.082 90.4399 110.909 98.9951C112.401 101.256 114.119 103.357 116.036 105.265L116.301 105.527V105.558L116.772 106.033C116.851 106.125 116.935 106.204 117.014 106.283L117.28 106.545L117.31 106.575L117.781 107.051L118.022 107.307L118.288 107.563C118.301 107.569 118.311 107.58 118.318 107.593L118.789 108.068L119.031 108.324L119.296 108.58C119.304 108.584 119.31 108.589 119.315 108.595C119.32 108.602 119.324 108.609 119.327 108.617L119.798 109.092L120.045 109.342L120.305 109.598L120.341 109.634L120.812 110.11C126.041 115.381 132.792 118.921 140.552 118.921C150.745 118.921 159.483 112.504 165.05 104.083C170.738 95.5523 173.921 84.3098 173.921 72.1533C173.939 59.8384 170.768 48.7482 165.08 40.193ZM147.852 90.6897C144.012 96.4298 139.64 98.9708 135.54 98.9708C133.017 98.9091 130.575 98.0573 128.553 96.5334C128.366 96.2896 128.185 96.0337 128.004 95.7656C124.296 90.1535 121.645 81.6043 121.645 72.1168C121.645 62.4951 124.296 54.08 128.004 48.3522C131.983 42.74 136.458 40.0711 140.582 40.1991C142.973 40.1881 145.303 40.9576 147.224 42.3927C147.436 42.6791 147.641 42.9594 147.828 43.258C151.536 49.0042 154.181 57.4193 154.181 67.0226C154.205 76.5102 151.56 85.0715 147.852 90.6897Z" fill="#E3AC1E"/>
<path d="M101.906 67.0349C102.039 54.7443 105.088 43.6542 110.909 35.105C116.471 26.5741 125.075 20.2734 135.54 20.2734C145.733 20.2734 154.471 26.5558 160.032 35.105C165.727 43.6359 168.903 54.7443 168.903 67.0349C168.903 79.2219 165.727 90.4217 160.032 98.9709C154.471 107.386 145.733 113.802 135.54 113.802C125.075 113.802 116.471 107.386 110.909 98.9709C105.1 90.4217 102.039 79.1975 101.906 67.0349ZM154.205 67.0349C154.205 57.4194 151.56 48.9982 147.853 43.2703C144.012 37.6582 139.646 34.9892 135.54 35.1233C131.434 34.9892 126.929 37.6582 122.962 43.2703C119.254 49.0164 116.603 57.4376 116.603 67.0349C116.603 76.5224 119.254 85.0777 122.962 90.6837C126.929 96.4299 131.416 98.9709 135.54 98.9709C139.664 98.9709 143.994 96.4299 147.853 90.6837C151.56 85.0777 154.205 76.5103 154.205 67.0349Z" fill="#871E35"/>
<path d="M255.283 88.6237C255.126 88.447 254.957 88.2764 254.788 88.1179C254.625 87.9412 254.456 87.7767 254.287 87.6183C254.124 87.4416 253.961 87.2709 253.792 87.1125C253.629 86.9358 253.46 86.7652 253.291 86.6128C253.127 86.4361 252.964 86.2655 252.795 86.1071C252.632 85.9304 252.463 85.7598 252.294 85.6074C252.131 85.4307 251.962 85.2601 251.799 85.1017C251.643 84.9261 251.478 84.7593 251.304 84.602C251.141 84.4253 250.972 84.2608 250.803 84.1023C250.291 83.5318 249.692 83.0483 249.027 82.6704V32.3137C249.027 32.0456 248.901 31.9116 248.901 31.6435C248.933 31.37 248.887 31.0929 248.768 30.8452C248.768 30.7112 248.641 30.443 248.641 30.309C248.568 30.035 248.477 29.7663 248.369 29.5046C248.232 29.3557 248.142 29.1691 248.109 28.9684C247.959 28.7263 247.781 28.5033 247.578 28.3042C247.439 28.1702 247.312 27.9081 247.18 27.768L246.648 27.2318C246.648 27.1526 246.546 27.0673 246.431 27.0185L246.171 26.7504H246.141C246.141 26.6651 246.044 26.5859 245.93 26.531L245.664 26.269C245.664 26.1898 245.561 26.1045 245.447 26.0496L245.187 25.7876C245.187 25.7023 245.084 25.6231 244.969 25.5682L244.71 25.3001C244.71 25.2209 244.607 25.1356 244.492 25.0808L244.227 24.8188V24.7883C244.227 24.7091 244.124 24.6299 244.009 24.575L243.75 24.3069H243.719C243.719 24.2277 243.623 24.1424 243.508 24.0875L243.242 23.8255V23.7951C243.242 23.7158 243.14 23.6366 243.025 23.5818L242.765 23.3137H242.735C242.735 23.2284 242.639 23.1491 242.524 23.0943L242.258 22.8323C242.258 22.7531 242.156 22.6677 242.041 22.619L241.751 22.3265C241.751 22.1925 241.491 22.0584 241.352 22.0584C241.352 22.0408 241.349 22.0234 241.342 22.0071C241.336 21.9908 241.326 21.9761 241.313 21.9636C241.301 21.9512 241.287 21.9413 241.27 21.9346C241.254 21.9278 241.237 21.9243 241.22 21.9243C240.96 21.7964 240.821 21.6562 240.561 21.5222C240.333 21.355 240.113 21.176 239.903 20.986C239.77 20.986 239.505 20.858 239.372 20.858C239.106 20.7239 238.714 20.7239 238.575 20.5838C238.346 20.6032 238.116 20.5589 237.91 20.4558H235.664C235.506 20.558 235.319 20.6031 235.133 20.5838C234.734 20.7239 234.475 20.7239 234.336 20.858C234.076 20.858 233.943 20.9859 233.804 21.2602C233.521 21.2675 233.246 21.3586 233.013 21.5222C232.886 21.6562 232.615 21.7964 232.488 21.9243C232.308 22.118 232.078 22.2572 231.824 22.3265C231.723 22.5273 231.588 22.7087 231.425 22.8627C231.292 22.9968 231.292 23.1248 231.165 23.1248L181.958 84.4314C180.795 85.841 180.214 87.6485 180.336 89.4788C180.459 91.309 181.275 93.0213 182.616 94.2602C182.771 94.4442 182.941 94.6154 183.123 94.772C183.275 94.9555 183.443 95.1248 183.624 95.2778C183.78 95.4618 183.949 95.633 184.132 95.7896C184.638 96.2964 185.141 96.8062 185.641 97.3191C185.981 97.6542 186.318 97.9935 186.65 98.3367C186.805 98.5188 186.975 98.688 187.157 98.8425C187.469 99.2006 187.817 99.5253 188.196 99.8113C189.439 100.902 191.047 101.475 192.694 101.414H229.36V106.478C229.349 107.508 229.554 108.53 229.962 109.475C230.37 110.42 230.972 111.268 231.727 111.962C231.884 112.138 232.053 112.303 232.216 112.455C232.367 112.626 232.53 112.784 232.699 112.943C232.855 113.116 233.02 113.281 233.194 113.436C233.351 113.607 233.508 113.765 233.677 113.924C233.834 114.101 234.004 114.265 234.173 114.424C234.33 114.594 234.487 114.759 234.656 114.911C234.813 115.088 234.982 115.252 235.151 115.411C235.308 115.581 235.465 115.746 235.634 115.898C235.788 116.074 235.951 116.24 236.123 116.398C237.121 117.486 238.42 118.246 239.852 118.579C241.284 118.911 242.782 118.8 244.151 118.261C245.52 117.722 246.696 116.779 247.526 115.555C248.356 114.331 248.801 112.884 248.804 111.401V101.39H250.132C251.1 101.407 252.061 101.229 252.96 100.868C253.859 100.506 254.678 99.9676 255.368 99.2836C256.059 98.5997 256.608 97.7839 256.983 96.8838C257.358 95.9837 257.552 95.0173 257.554 94.0408C257.567 93.0285 257.373 92.0242 256.982 91.0917C256.591 90.1592 256.013 89.3188 255.283 88.6237ZM229.36 59.9843V81.5796H212.114L229.36 59.9843Z" fill="#871E35"/>
<path opacity="0.1" d="M255.283 88.6237C255.126 88.447 254.957 88.2764 254.788 88.1179C254.625 87.9412 254.456 87.7767 254.287 87.6183C254.124 87.4416 253.961 87.2709 253.792 87.1125C253.629 86.9358 253.46 86.7652 253.291 86.6128C253.127 86.4361 252.964 86.2655 252.795 86.1071C252.632 85.9304 252.463 85.7598 252.294 85.6074C252.131 85.4307 251.962 85.2601 251.799 85.1017C251.643 84.9261 251.478 84.7593 251.304 84.602C251.141 84.4253 250.972 84.2608 250.803 84.1023C250.291 83.5318 249.692 83.0483 249.027 82.6704V32.3137C249.027 32.0456 248.901 31.9116 248.901 31.6435C248.933 31.37 248.887 31.0929 248.768 30.8452C248.768 30.7112 248.641 30.443 248.641 30.309C248.568 30.035 248.477 29.7663 248.369 29.5046C248.232 29.3557 248.142 29.1691 248.109 28.9684C247.959 28.7263 247.781 28.5033 247.578 28.3042C247.439 28.1702 247.312 27.9081 247.18 27.768L246.648 27.2318C246.648 27.1526 246.546 27.0673 246.431 27.0185L246.171 26.7504H246.141C246.141 26.6651 246.044 26.5859 245.93 26.531L245.664 26.269C245.664 26.1898 245.561 26.1045 245.447 26.0496L245.187 25.7876C245.187 25.7023 245.084 25.6231 244.969 25.5682L244.71 25.3001C244.71 25.2209 244.607 25.1356 244.492 25.0808L244.227 24.8188V24.7883C244.227 24.7091 244.124 24.6299 244.009 24.575L243.75 24.3069H243.719C243.719 24.2277 243.623 24.1424 243.508 24.0875L243.242 23.8255V23.7951C243.242 23.7158 243.14 23.6366 243.025 23.5818L242.765 23.3137H242.735C242.735 23.2284 242.639 23.1491 242.524 23.0943L242.258 22.8323C242.258 22.7531 242.156 22.6677 242.041 22.619L241.751 22.3265C241.751 22.1925 241.491 22.0584 241.352 22.0584C241.352 22.0408 241.349 22.0234 241.342 22.0071C241.336 21.9908 241.326 21.9761 241.313 21.9636C241.301 21.9512 241.287 21.9413 241.27 21.9346C241.254 21.9278 241.237 21.9243 241.22 21.9243C240.96 21.7964 240.821 21.6562 240.561 21.5222C240.333 21.355 240.113 21.176 239.903 20.986C239.77 20.986 239.505 20.858 239.372 20.858C239.106 20.7239 238.714 20.7239 238.575 20.5838C238.346 20.6032 238.116 20.5589 237.91 20.4558H235.664C235.506 20.558 235.319 20.6031 235.133 20.5838C234.734 20.7239 234.475 20.7239 234.336 20.858C234.076 20.858 233.943 20.9859 233.804 21.2602C233.521 21.2675 233.246 21.3586 233.013 21.5222C232.886 21.6562 232.615 21.7964 232.488 21.9243C232.308 22.118 232.078 22.2572 231.824 22.3265C231.723 22.5273 231.588 22.7087 231.425 22.8627C231.292 22.9968 231.292 23.1248 231.165 23.1248L181.958 84.4314C180.795 85.841 180.214 87.6485 180.336 89.4788C180.459 91.309 181.275 93.0213 182.616 94.2602C182.771 94.4442 182.941 94.6154 183.123 94.772C183.275 94.9555 183.443 95.1248 183.624 95.2778C183.78 95.4618 183.949 95.633 184.132 95.7896C184.638 96.2964 185.141 96.8062 185.641 97.3191C185.981 97.6542 186.318 97.9935 186.65 98.3367C186.805 98.5188 186.975 98.688 187.157 98.8425C187.469 99.2006 187.817 99.5253 188.196 99.8113C189.439 100.902 191.047 101.475 192.694 101.414H229.36V106.478C229.349 107.508 229.554 108.53 229.962 109.475C230.37 110.42 230.972 111.268 231.727 111.962C231.884 112.138 232.053 112.303 232.216 112.455C232.367 112.626 232.53 112.784 232.699 112.943C232.855 113.116 233.02 113.281 233.194 113.436C233.351 113.607 233.508 113.765 233.677 113.924C233.834 114.101 234.004 114.265 234.173 114.424C234.33 114.594 234.487 114.759 234.656 114.911C234.813 115.088 234.982 115.252 235.151 115.411C235.308 115.581 235.465 115.746 235.634 115.898C235.788 116.074 235.951 116.24 236.123 116.398C237.121 117.486 238.42 118.246 239.852 118.579C241.284 118.911 242.782 118.8 244.151 118.261C245.52 117.722 246.696 116.779 247.526 115.555C248.356 114.331 248.801 112.884 248.804 111.401V101.39H250.132C251.1 101.407 252.061 101.229 252.96 100.868C253.859 100.506 254.678 99.9676 255.368 99.2836C256.059 98.5997 256.608 97.7839 256.983 96.8838C257.358 95.9837 257.552 95.0173 257.554 94.0408C257.567 93.0285 257.373 92.0242 256.982 91.0917C256.591 90.1592 256.013 89.3188 255.283 88.6237ZM229.36 59.9843V81.5796H212.114L229.36 59.9843Z" fill="#E3AC1E"/>
<path d="M252.656 88.9471C252.656 89.9233 252.462 90.8896 252.088 91.7896C251.713 92.6897 251.165 93.5055 250.475 94.1896C249.784 94.8736 248.966 95.4121 248.068 95.7737C247.169 96.1353 246.208 96.3128 245.241 96.2958H243.919V106.454C243.919 108.403 243.151 110.272 241.786 111.65C240.42 113.028 238.568 113.802 236.636 113.802C234.705 113.802 232.852 113.028 231.487 111.65C230.121 110.272 229.354 108.403 229.354 106.454V96.2958H187.646C185.999 96.3597 184.39 95.7864 183.147 94.6932C182.379 94.1128 181.735 93.3808 181.255 92.5416C180.776 91.7025 180.47 90.7737 180.357 89.8117C180.244 88.8497 180.326 87.8746 180.598 86.9456C180.87 86.0166 181.327 85.153 181.939 84.4074L230.942 22.9424C231.075 22.9424 231.075 22.8144 231.208 22.6804C231.372 22.5279 231.507 22.3461 231.606 22.1441C231.86 22.0748 232.09 21.9356 232.27 21.742C232.403 21.6079 232.669 21.4739 232.802 21.3398C233.032 21.1707 233.308 21.0771 233.593 21.0717C233.726 20.8097 233.858 20.6756 234.118 20.6756C234.251 20.5415 234.517 20.5416 234.915 20.4075C235.102 20.4276 235.291 20.3801 235.447 20.2734H237.699C237.901 20.3823 238.129 20.4289 238.357 20.4075C238.49 20.5416 238.888 20.5415 239.154 20.6756C239.287 20.6756 239.553 20.8097 239.686 20.8097C239.951 21.0717 240.211 21.2057 240.344 21.3398C240.609 21.4739 240.742 21.6079 241.008 21.742C241.043 21.742 241.077 21.7561 241.102 21.7812C241.127 21.8064 241.141 21.8405 241.141 21.876C241.274 21.876 241.533 22.0101 241.533 22.1441L242.065 22.6804C242.198 22.8144 242.33 23.0764 242.463 23.2105C242.666 23.4121 242.844 23.6371 242.995 23.8808C243.028 24.0824 243.12 24.2692 243.26 24.417C243.369 24.6758 243.458 24.9427 243.526 25.2153C243.526 25.3493 243.653 25.6174 243.653 25.7515C243.772 26.0013 243.819 26.2804 243.786 26.5558C243.786 26.8178 243.919 26.9519 243.919 27.22V81.5983H245.241C247.188 81.5885 249.059 82.3554 250.448 83.7318C251.837 85.1083 252.631 86.9828 252.656 88.9471ZM229.354 48.596L203.008 81.5983H229.354V48.596Z" fill="#871E35"/>
<path d="M154.778 96.4663C154.757 96.6058 154.785 96.7482 154.857 96.8693C154.928 96.9904 155.039 97.0827 155.171 97.1305C155.805 97.228 156.578 97.3316 157.435 97.4535C159.989 91.8596 162.598 87.4541 161.861 89.1968C160.736 91.9347 159.998 94.8188 159.669 97.7642C160.666 97.8983 162.991 98.1847 164.15 98.3248C166.819 88.3437 169.76 81.0071 169.416 83.3105C168.015 92.6031 168.262 95.6376 168.582 98.8854C179.409 100.214 193.63 101.786 203.938 102.682C205.622 97.1975 207.198 91.2015 207.343 91.6403C208.472 94.9003 208.448 99.507 208.165 103.041C211.449 103.303 214.082 103.443 215.695 103.443C215.695 103.443 216.902 98.8001 217.12 97.2646C217.766 93.3356 217.729 89.3229 217.011 85.4066C216.268 81.4093 214.686 77.8142 213.207 74.1398C213.202 74.117 213.196 74.0946 213.189 74.0728C212.207 71.6655 211.502 69.1529 211.087 66.5839C211.083 66.5637 211.083 66.543 211.087 66.5229C210.811 64.6494 210.692 62.7558 210.731 60.8621C210.864 53.9277 207.784 47.694 201.933 45.4394C191.939 35.1353 178.214 39.8639 174.337 48.5776C172.821 52.4835 171.318 57.5838 170.007 61.5141C170.011 61.5205 170.013 61.5279 170.013 61.5354C170.013 61.5429 170.011 61.5502 170.007 61.5567C169.513 63.0984 168.926 64.6083 168.25 66.0781C164.657 73.0978 157.737 76.7173 154.778 96.4663Z" fill="#24221E"/>
<path d="M204.342 47.4869C208.092 49.9913 210.23 53.4098 210.381 58.4917C210.478 61.4532 210.381 64.3354 211.208 67.181C212.035 70.1181 213.533 72.5921 215.085 75.0599C217.543 78.9841 219.161 82.8352 219.155 87.8075C219.149 92.7798 218.406 98.7758 216.419 103.34C216.419 103.37 216.371 103.34 216.383 103.34C218.074 98.6783 218.69 92.1095 218.346 87.0763C217.965 81.5434 215.405 77.8995 212.833 73.5305C210.76 70.0623 209.613 66.1111 209.505 62.0625C209.433 59.552 209.699 56.9623 208.974 54.5492C208.116 51.6731 206.063 49.7293 204.01 47.9926C203.739 47.7428 204.059 47.298 204.342 47.4869Z" fill="#24221E"/>
<path d="M160.872 73.3478C164 69.6369 167.194 66.5109 169.259 61.7702C171.137 57.4499 172.399 52.8371 174.301 48.529C174.301 48.4559 174.428 48.4925 174.398 48.5717C171.379 56.2495 170.219 64.1345 164.942 70.3925C162.067 73.7926 159.223 76.9308 157.158 81.1048C155.046 85.5068 153.725 90.2521 153.257 95.1199C153.257 95.2905 153.034 95.2661 153.034 95.1199C153.031 87.1587 155.806 79.4507 160.872 73.3478Z" fill="#24221E"/>
<path d="M130.462 167.913C130.462 167.913 159.61 175.835 164.428 174.982C169.247 174.128 185.515 152.033 189.126 144.021C192.737 136.008 198.733 96.144 197.58 91.7567C196.426 87.3694 190.394 87.3084 185.303 98.618C180.213 109.927 168.178 134.789 166.035 136.836C163.891 138.884 128.113 165.793 130.462 167.913Z" fill="#EB9481"/>
<path d="M161.898 172.36C157.43 170.002 151.989 164.28 148.282 163.683C147.375 163.504 146.435 163.624 145.6 164.026C144.766 164.427 144.083 165.089 143.65 165.913C143.65 165.913 141.947 162.093 138.493 162.111C136.724 162.111 135.178 164.987 135.178 164.987C135.178 164.987 133.674 161.983 130.613 162.19C128.167 162.355 126.99 165.207 126.99 165.207C126.99 165.207 124.224 163.001 121.785 163.988C116.845 165.956 116.024 187.143 123.632 190.726C127.177 192.396 127.098 187.21 127.098 187.21C127.098 187.21 128.995 194.644 133.318 194.924C137.642 195.205 137.141 188.478 137.141 188.478C137.141 188.478 139.043 195.662 143.553 195.497C148.251 195.333 146.609 188.685 146.609 188.685C146.609 188.685 149.592 193.523 153.016 192.597C158.674 191.073 152.593 179.605 153.873 174.993H160.98L161.898 172.36Z" fill="#EB9481"/>
<path d="M155.449 167.852C159.875 169.717 164.923 162.666 169.476 164.306C175.382 166.432 169.923 173.787 160.974 174.981H153.867L155.449 167.852Z" fill="#EB9481"/>
<path d="M126.73 165.627C126.73 165.613 126.724 165.599 126.714 165.589C126.704 165.578 126.69 165.573 126.676 165.573C126.661 165.573 126.647 165.578 126.637 165.589C126.627 165.599 126.621 165.613 126.621 165.627C124.671 172.531 124.616 180.721 127.062 187.509C127.141 187.728 127.539 187.698 127.497 187.436C126.301 179.929 125.83 173.189 126.73 165.627Z" fill="#24221E"/>
<path d="M135.136 164.866C135.136 164.781 135.009 164.763 134.985 164.866C133.01 171.996 133.173 181.215 136.935 188.71C137.062 188.966 137.436 189.064 137.309 188.759C135.202 183.592 134.29 171.685 135.136 164.866Z" fill="#24221E"/>
<path d="M147.044 189.131C143.74 181.818 143.094 174.159 143.553 166.201C143.553 166.097 143.414 166.097 143.384 166.201C142.11 170.034 142.346 175.134 142.859 179.089C143.26 182.759 144.607 186.259 146.766 189.24C146.874 189.368 147.116 189.289 147.044 189.131Z" fill="#24221E"/>
<path d="M169.827 163.744C166.928 162.769 163.952 165.109 161.512 166.419C160.731 166.888 159.908 167.282 159.054 167.595C157.122 168.205 155.691 167.815 154.827 167.272C153.475 166.401 149.254 162.148 146.204 163.562C145.152 164.058 144.252 164.831 143.596 165.798C142.666 164.092 141.476 162.233 139.417 161.892C138.963 161.814 138.499 161.834 138.053 161.951C137.608 162.068 137.192 162.278 136.833 162.568C136.449 162.867 136.108 163.218 135.818 163.61C135.531 163.963 135.296 164.355 135.118 164.774C135.117 164.76 135.117 164.746 135.118 164.732L135.051 164.604L134.924 164.342C134.752 163.99 134.507 163.681 134.206 163.434C134.149 163.375 134.08 163.328 134.004 163.296C133.928 163.265 133.847 163.249 133.765 163.251C133.752 163.251 133.74 163.256 133.731 163.265C133.722 163.274 133.717 163.287 133.717 163.3C133.717 163.312 133.722 163.325 133.731 163.334C133.74 163.343 133.752 163.348 133.765 163.348C133.907 163.416 134.021 163.53 134.091 163.671C134.188 163.817 134.278 163.97 134.381 164.11C134.484 164.25 134.58 164.396 134.683 164.537L134.834 164.762L134.9 164.878C134.929 164.915 134.962 164.95 134.997 164.981C135.005 164.993 135.016 165.002 135.029 165.008C135.041 165.015 135.055 165.018 135.069 165.018C135.083 165.018 135.097 165.015 135.11 165.008C135.123 165.002 135.133 164.993 135.142 164.981C135.453 164.703 135.734 164.392 135.981 164.055C136.285 163.698 136.623 163.372 136.99 163.08C137.338 162.808 137.739 162.614 138.166 162.509C138.594 162.404 139.039 162.391 139.471 162.471C141.319 162.836 142.491 164.494 143.475 165.975C143.475 165.975 143.475 165.975 143.505 165.975C143.475 166.023 143.541 166.066 143.578 166.029C144.592 165.134 145.558 164.128 146.959 163.921C148.469 163.696 149.9 164.427 151.15 165.195C151.776 165.566 152.381 165.973 152.961 166.413C153.475 166.815 153.964 167.266 154.513 167.632C156.862 169.125 159.435 167.967 160.075 167.693C161.337 167.119 162.561 166.464 163.74 165.731C164.925 164.929 166.261 164.383 167.665 164.128C168.31 164.032 168.968 164.103 169.578 164.333C170.188 164.563 170.731 164.946 171.155 165.444C171.596 166.017 172.158 167.09 171.004 169.533C171.004 169.533 171.004 169.582 171.041 169.564C171.645 168.93 173.565 165.006 169.827 163.744Z" fill="#24221E"/>
<path d="M195.29 128.78L167.785 124.344C167.785 124.344 180.925 98.0875 188.817 90.4706C196.607 82.9513 200.399 90.6534 199.252 102.268C197.984 115.143 195.29 128.78 195.29 128.78Z" fill="#9F7815"/>
<path d="M194.398 123.613C193.625 123.43 192.834 123.315 192.061 123.138C191.288 122.961 190.545 122.852 189.784 122.736C188.232 122.492 186.674 122.273 185.122 122.059C182.055 121.633 178.987 121.164 175.908 120.841C174.157 120.646 172.417 120.378 170.66 120.231C170.606 120.231 170.6 120.317 170.66 120.329C173.71 121.048 176.813 121.548 179.905 122.09C182.997 122.632 186.04 123.071 189.12 123.406C189.983 123.504 190.853 123.613 191.716 123.656C192.58 123.699 193.498 123.784 194.385 123.796C194.409 123.798 194.433 123.79 194.451 123.774C194.469 123.758 194.48 123.735 194.482 123.711C194.484 123.686 194.476 123.663 194.46 123.644C194.444 123.626 194.422 123.615 194.398 123.613Z" fill="#24221E"/>
<path d="M179.977 175.225H252.819C252.819 175.225 222.542 99.3973 207.15 88.3193C202.531 84.9923 195.17 84.6206 190.206 91.299C186.136 96.7832 174.838 118.567 174.325 126.404C173.812 134.24 179.905 141.985 179.905 141.985L179.977 175.225Z" fill="#8A6912"/>
<path d="M204.095 123.844C204.282 123.795 204.463 123.771 204.644 123.734C204.804 123.697 204.97 123.698 205.129 123.734C205.289 123.771 205.439 123.844 205.567 123.947C205.695 124.05 205.798 124.181 205.87 124.329C205.941 124.478 205.978 124.641 205.979 124.806C205.974 124.953 206.007 125.099 206.075 125.229C206.143 125.36 206.243 125.47 206.365 125.55C206.502 125.637 206.657 125.691 206.818 125.708C207.003 125.735 207.186 125.772 207.368 125.818C207.186 125.867 207.005 125.891 206.818 125.928C206.616 125.968 206.406 125.949 206.214 125.873C206.01 125.785 205.836 125.638 205.715 125.45C205.593 125.262 205.53 125.043 205.532 124.819C205.528 124.672 205.488 124.529 205.416 124.402C205.343 124.275 205.239 124.169 205.115 124.093C204.972 124.015 204.813 123.967 204.65 123.953C204.463 123.917 204.282 123.892 204.095 123.844Z" fill="white"/>
<path d="M176.233 123.844C176.415 123.795 176.596 123.771 176.777 123.734C176.937 123.697 177.102 123.698 177.262 123.734C177.422 123.771 177.571 123.844 177.699 123.947C177.827 124.05 177.931 124.181 178.002 124.329C178.074 124.478 178.111 124.641 178.111 124.806C178.108 124.954 178.142 125.1 178.211 125.23C178.28 125.36 178.381 125.47 178.504 125.55C178.64 125.639 178.795 125.693 178.957 125.708C179.138 125.745 179.319 125.763 179.5 125.818C179.319 125.867 179.138 125.891 178.957 125.928C178.754 125.967 178.545 125.948 178.353 125.873C178.15 125.783 177.978 125.635 177.856 125.448C177.735 125.261 177.671 125.042 177.671 124.819C177.667 124.672 177.627 124.529 177.554 124.402C177.481 124.275 177.378 124.169 177.254 124.093C177.111 124.014 176.952 123.966 176.789 123.953C176.596 123.917 176.415 123.892 176.233 123.844Z" fill="white"/>
<path d="M214.215 160.369C214.396 160.32 214.584 160.296 214.765 160.259C214.925 160.225 215.09 160.227 215.249 160.265C215.408 160.303 215.556 160.376 215.683 160.48C215.81 160.583 215.913 160.714 215.984 160.862C216.055 161.01 216.092 161.173 216.093 161.338C216.092 161.485 216.127 161.63 216.195 161.76C216.264 161.89 216.364 162 216.486 162.081C216.623 162.166 216.778 162.218 216.939 162.233C217.12 162.27 217.307 162.294 217.488 162.343C217.307 162.398 217.12 162.422 216.939 162.459C216.736 162.497 216.526 162.476 216.335 162.398C216.13 162.31 215.956 162.163 215.834 161.975C215.711 161.788 215.646 161.568 215.646 161.344C215.645 161.198 215.606 161.054 215.533 160.928C215.46 160.802 215.356 160.697 215.23 160.625C215.09 160.542 214.933 160.494 214.771 160.485C214.584 160.448 214.396 160.424 214.215 160.369Z" fill="white"/>
<path d="M226.812 125.819C226.993 125.764 227.18 125.745 227.361 125.709C227.52 125.672 227.686 125.672 227.845 125.709C228.005 125.746 228.154 125.819 228.282 125.922C228.409 126.025 228.512 126.156 228.583 126.304C228.654 126.453 228.69 126.616 228.69 126.781C228.687 126.929 228.722 127.074 228.791 127.204C228.859 127.334 228.96 127.444 229.082 127.525C229.218 127.613 229.374 127.666 229.535 127.677C229.716 127.72 229.903 127.738 230.084 127.793C229.903 127.842 229.716 127.866 229.535 127.902C229.333 127.943 229.123 127.924 228.931 127.848C228.727 127.759 228.552 127.612 228.43 127.425C228.308 127.237 228.242 127.018 228.243 126.793C228.242 126.647 228.202 126.502 228.129 126.375C228.056 126.248 227.952 126.142 227.826 126.068C227.685 125.988 227.528 125.941 227.367 125.928C227.18 125.867 226.993 125.867 226.812 125.819Z" fill="white"/>
<path d="M194.608 107.24C194.796 107.191 194.977 107.167 195.158 107.13C195.359 107.086 195.569 107.101 195.762 107.173C195.971 107.252 196.152 107.393 196.281 107.578C196.409 107.763 196.479 107.983 196.48 108.209C196.48 108.356 196.515 108.501 196.584 108.63C196.652 108.76 196.752 108.871 196.873 108.952C197.012 109.034 197.166 109.086 197.326 109.104C197.513 109.141 197.694 109.165 197.875 109.214C197.694 109.269 197.513 109.287 197.326 109.33C197.123 109.365 196.914 109.344 196.722 109.269C196.515 109.18 196.339 109.03 196.217 108.839C196.095 108.647 196.034 108.424 196.04 108.197C196.037 108.051 195.997 107.908 195.924 107.782C195.851 107.656 195.747 107.551 195.623 107.478C195.481 107.394 195.322 107.344 195.158 107.331C194.977 107.313 194.796 107.295 194.608 107.24Z" fill="white"/>
<path d="M214.433 106.819C214.614 106.77 214.795 106.746 214.983 106.709C215.184 106.667 215.393 106.681 215.586 106.752C215.796 106.832 215.977 106.974 216.106 107.158C216.235 107.343 216.306 107.562 216.311 107.788C216.308 107.935 216.343 108.081 216.412 108.211C216.48 108.341 216.581 108.452 216.704 108.531C216.841 108.617 216.996 108.669 217.156 108.684C217.338 108.72 217.519 108.745 217.706 108.793C217.519 108.848 217.338 108.873 217.156 108.909C216.954 108.948 216.744 108.927 216.553 108.848C216.348 108.76 216.174 108.613 216.052 108.426C215.929 108.238 215.864 108.019 215.864 107.794C215.862 107.648 215.823 107.505 215.75 107.379C215.677 107.253 215.573 107.149 215.448 107.075C215.308 106.992 215.15 106.944 214.989 106.935C214.802 106.906 214.616 106.867 214.433 106.819Z" fill="white"/>
<path d="M201.601 87.6186C201.782 87.5698 201.969 87.5454 202.151 87.5089C202.31 87.4722 202.476 87.4723 202.635 87.5092C202.794 87.546 202.943 87.6187 203.071 87.7218C203.199 87.8249 203.302 87.9557 203.372 88.1045C203.443 88.2533 203.48 88.4163 203.479 88.5813C203.476 88.7288 203.51 88.8747 203.579 89.0049C203.648 89.1351 203.748 89.2452 203.872 89.3247C204.008 89.4127 204.163 89.4669 204.324 89.4832C204.506 89.5197 204.693 89.538 204.874 89.5928C204.693 89.6416 204.506 89.666 204.324 89.7025C204.122 89.7434 203.912 89.7244 203.721 89.6477C203.516 89.5593 203.342 89.4123 203.219 89.2249C203.097 89.0375 203.032 88.818 203.032 88.5935C203.031 88.4466 202.992 88.3024 202.919 88.1753C202.846 88.0482 202.741 87.9424 202.616 87.8684C202.474 87.7885 202.318 87.7407 202.157 87.7282C201.969 87.6917 201.782 87.6673 201.601 87.6186Z" fill="white"/>
<path d="M189.748 139.127C189.929 139.078 190.11 139.054 190.291 139.017C190.492 138.972 190.702 138.987 190.895 139.06C191.105 139.138 191.286 139.278 191.416 139.461C191.545 139.645 191.616 139.864 191.619 140.09C191.616 140.237 191.651 140.383 191.719 140.513C191.788 140.644 191.889 140.754 192.012 140.833C192.148 140.922 192.303 140.976 192.465 140.992C192.646 141.028 192.827 141.053 193.008 141.101C192.827 141.156 192.646 141.174 192.465 141.211C192.262 141.25 192.053 141.231 191.861 141.156C191.658 141.066 191.486 140.919 191.364 140.731C191.243 140.544 191.179 140.326 191.179 140.102C191.175 139.955 191.135 139.812 191.062 139.685C190.99 139.559 190.886 139.453 190.762 139.377C190.618 139.298 190.46 139.25 190.297 139.237C190.11 139.2 189.929 139.182 189.748 139.127Z" fill="white"/>
<path d="M211.378 172.598C211.559 172.544 211.746 172.519 211.927 172.483C212.087 172.448 212.252 172.45 212.411 172.488C212.57 172.527 212.719 172.6 212.846 172.703C212.973 172.806 213.076 172.937 213.147 173.086C213.218 173.234 213.255 173.396 213.256 173.561C213.254 173.708 213.289 173.854 213.358 173.984C213.427 174.113 213.526 174.224 213.648 174.305C213.785 174.392 213.94 174.444 214.101 174.457C214.282 174.494 214.47 174.518 214.651 174.567C214.47 174.622 214.282 174.646 214.101 174.682C213.898 174.721 213.689 174.7 213.497 174.622C213.293 174.534 213.118 174.387 212.995 174.199C212.873 174.012 212.808 173.792 212.809 173.567C212.808 173.421 212.769 173.278 212.696 173.152C212.623 173.025 212.518 172.921 212.392 172.848C212.253 172.766 212.095 172.718 211.933 172.708C211.728 172.672 211.541 172.647 211.378 172.598Z" fill="white"/>
<path d="M200.72 154.611C200.901 154.562 201.082 154.538 201.263 154.502C201.465 154.46 201.673 154.474 201.867 154.544C202.077 154.623 202.259 154.764 202.388 154.949C202.518 155.134 202.589 155.354 202.592 155.58C202.589 155.727 202.624 155.873 202.692 156.003C202.761 156.133 202.861 156.244 202.984 156.324C203.121 156.41 203.276 156.463 203.437 156.476C203.618 156.512 203.799 156.537 203.987 156.586C203.799 156.64 203.618 156.659 203.437 156.701C203.234 156.736 203.025 156.715 202.833 156.64C202.63 156.55 202.458 156.403 202.337 156.216C202.215 156.029 202.151 155.81 202.151 155.586C202.147 155.441 202.107 155.298 202.034 155.173C201.961 155.047 201.858 154.942 201.734 154.867C201.594 154.781 201.434 154.733 201.269 154.727C201.112 154.684 200.901 154.666 200.72 154.611Z" fill="white"/>
<path d="M181.028 157.883C181.215 157.828 181.396 157.804 181.577 157.767C181.737 157.733 181.902 157.735 182.061 157.773C182.22 157.811 182.369 157.884 182.496 157.988C182.623 158.091 182.726 158.222 182.797 158.37C182.868 158.518 182.905 158.681 182.906 158.846C182.904 158.993 182.939 159.138 183.008 159.268C183.076 159.398 183.176 159.508 183.298 159.589C183.435 159.677 183.59 159.729 183.751 159.741C183.938 159.778 184.12 159.802 184.301 159.851C184.12 159.899 183.936 159.938 183.751 159.967C183.548 160.005 183.339 159.984 183.147 159.906C182.942 159.818 182.768 159.671 182.645 159.484C182.523 159.296 182.458 159.076 182.459 158.852C182.458 158.706 182.42 158.564 182.348 158.438C182.276 158.312 182.173 158.207 182.048 158.133C181.906 158.051 181.747 158.003 181.583 157.993C181.396 157.956 181.215 157.932 181.028 157.883Z" fill="white"/>
<path d="M209.783 139.565C209.964 139.517 210.146 139.492 210.327 139.456C210.487 139.421 210.652 139.423 210.811 139.462C210.971 139.5 211.119 139.573 211.247 139.676C211.375 139.779 211.478 139.91 211.55 140.058C211.621 140.207 211.659 140.369 211.661 140.534C211.658 140.682 211.693 140.827 211.762 140.957C211.83 141.088 211.931 141.198 212.054 141.278C212.19 141.365 212.346 141.417 212.507 141.43C212.688 141.467 212.869 141.491 213.05 141.54C212.869 141.595 212.688 141.613 212.507 141.655C212.304 141.693 212.094 141.672 211.903 141.595C211.7 141.505 211.527 141.357 211.406 141.17C211.285 140.983 211.22 140.764 211.22 140.54C211.216 140.395 211.176 140.253 211.103 140.127C211.031 140.001 210.927 139.896 210.804 139.821C210.662 139.737 210.503 139.689 210.339 139.681C210.17 139.639 209.964 139.62 209.783 139.565Z" fill="white"/>
<path d="M234.958 164.189C235.139 164.141 235.326 164.116 235.508 164.08C235.709 164.035 235.918 164.05 236.111 164.122C236.321 164.201 236.502 164.343 236.63 164.528C236.759 164.713 236.828 164.933 236.83 165.158C236.829 165.305 236.865 165.45 236.933 165.58C237.002 165.71 237.101 165.82 237.222 165.902C237.361 165.984 237.515 166.036 237.675 166.054C237.863 166.091 238.044 166.115 238.225 166.164C238.044 166.219 237.863 166.237 237.675 166.28C237.515 166.309 237.35 166.303 237.192 166.26C237.034 166.218 236.888 166.14 236.763 166.033C236.639 165.927 236.54 165.793 236.473 165.643C236.406 165.493 236.373 165.329 236.377 165.164C236.376 165.018 236.337 164.875 236.264 164.749C236.191 164.623 236.086 164.518 235.96 164.445C235.821 164.361 235.664 164.311 235.501 164.299C235.326 164.257 235.139 164.257 234.958 164.189Z" fill="white"/>
<path d="M224.964 149.156C225.146 149.107 225.333 149.083 225.514 149.047C225.674 149.012 225.839 149.014 225.998 149.052C226.157 149.09 226.305 149.164 226.432 149.267C226.559 149.37 226.662 149.501 226.733 149.649C226.804 149.798 226.841 149.96 226.842 150.125C226.84 150.272 226.874 150.418 226.943 150.548C227.012 150.678 227.112 150.789 227.235 150.868C227.371 150.957 227.526 151.009 227.688 151.021C227.869 151.057 228.056 151.082 228.237 151.131C228.056 151.185 227.869 151.21 227.688 151.246C227.485 151.285 227.275 151.264 227.084 151.185C226.879 151.098 226.704 150.951 226.582 150.763C226.459 150.576 226.394 150.356 226.395 150.131C226.394 149.985 226.355 149.842 226.282 149.715C226.209 149.589 226.105 149.485 225.979 149.412C225.839 149.33 225.682 149.282 225.52 149.272C225.333 149.235 225.146 149.211 224.964 149.156Z" fill="white"/>
<path d="M246.208 171.063C246.395 171.015 246.576 170.99 246.757 170.954C246.917 170.919 247.082 170.921 247.241 170.959C247.4 170.998 247.548 171.071 247.675 171.174C247.803 171.278 247.905 171.408 247.976 171.557C248.047 171.705 248.085 171.868 248.085 172.032C248.084 172.18 248.119 172.325 248.188 172.455C248.256 172.585 248.356 172.695 248.478 172.776C248.614 172.863 248.77 172.916 248.931 172.928C249.118 172.965 249.299 172.989 249.48 173.038C249.299 173.086 249.116 173.124 248.931 173.154C248.728 173.192 248.518 173.171 248.327 173.093C248.122 173.005 247.948 172.858 247.826 172.671C247.705 172.483 247.642 172.263 247.645 172.038C247.641 171.893 247.601 171.751 247.528 171.625C247.455 171.499 247.352 171.394 247.228 171.319C247.086 171.238 246.927 171.19 246.763 171.179C246.576 171.143 246.401 171.118 246.208 171.063Z" fill="white"/>
<path d="M196.281 117.617C196.19 117.782 196.076 117.928 195.973 118.086C195.885 118.226 195.768 118.344 195.628 118.432C195.489 118.519 195.333 118.574 195.17 118.592C195.007 118.611 194.842 118.591 194.687 118.537C194.532 118.482 194.392 118.392 194.276 118.275C194.176 118.169 194.049 118.09 193.909 118.047C193.77 118.005 193.622 117.999 193.479 118.032C193.321 118.067 193.174 118.14 193.05 118.245C192.901 118.357 192.746 118.46 192.585 118.556C192.682 118.391 192.791 118.245 192.893 118.086C193.012 117.911 193.177 117.774 193.37 117.69C193.575 117.609 193.798 117.59 194.012 117.636C194.227 117.681 194.424 117.789 194.578 117.946C194.683 118.048 194.812 118.121 194.952 118.158C195.093 118.196 195.24 118.196 195.381 118.159C195.538 118.116 195.683 118.037 195.804 117.928C195.997 117.824 196.142 117.709 196.281 117.617Z" fill="white"/>
<path d="M188.992 105.277C188.902 105.442 188.787 105.588 188.684 105.747C188.597 105.886 188.479 106.004 188.34 106.092C188.201 106.179 188.044 106.234 187.881 106.253C187.718 106.271 187.553 106.252 187.399 106.197C187.244 106.142 187.103 106.053 186.988 105.935C186.887 105.828 186.761 105.75 186.621 105.707C186.481 105.664 186.333 105.659 186.191 105.692C186.033 105.727 185.886 105.8 185.762 105.905C185.612 106.017 185.457 106.121 185.297 106.216C185.393 106.051 185.502 105.905 185.605 105.747C185.723 105.571 185.889 105.434 186.082 105.35C186.286 105.269 186.509 105.251 186.724 105.296C186.938 105.342 187.135 105.449 187.29 105.606C187.394 105.709 187.523 105.782 187.663 105.819C187.804 105.857 187.952 105.857 188.093 105.82C188.249 105.776 188.394 105.697 188.515 105.588C188.684 105.485 188.829 105.369 188.992 105.277Z" fill="white"/>
<path d="M225.87 139.096C225.774 139.267 225.665 139.413 225.562 139.565C225.447 139.742 225.287 139.883 225.097 139.974C224.897 140.061 224.675 140.088 224.46 140.049C224.245 140.01 224.047 139.907 223.889 139.754C223.788 139.649 223.661 139.572 223.522 139.529C223.383 139.486 223.235 139.48 223.092 139.51C222.935 139.546 222.788 139.619 222.664 139.724C222.507 139.827 222.362 139.943 222.199 140.034C222.289 139.87 222.404 139.724 222.507 139.565C222.623 139.39 222.786 139.253 222.978 139.169C223.182 139.091 223.405 139.073 223.619 139.118C223.833 139.164 224.03 139.27 224.185 139.425C224.288 139.527 224.416 139.601 224.556 139.638C224.696 139.676 224.843 139.676 224.982 139.638C225.14 139.597 225.287 139.52 225.411 139.413C225.58 139.309 225.725 139.194 225.87 139.096Z" fill="white"/>
<path d="M207.428 99.1048C207.338 99.2694 207.223 99.4156 207.121 99.574C207.008 99.7485 206.849 99.8878 206.662 99.9762C206.458 100.069 206.231 100.098 206.01 100.06C205.79 100.022 205.586 99.9189 205.424 99.7629C205.323 99.6567 205.196 99.5781 205.057 99.5344C204.918 99.4907 204.77 99.4834 204.627 99.5131C204.469 99.55 204.323 99.623 204.198 99.7264C204.041 99.83 203.896 99.9457 203.733 100.043C203.823 99.8726 203.938 99.7264 204.041 99.5679C204.158 99.3929 204.324 99.2571 204.518 99.178C204.722 99.097 204.945 99.0781 205.16 99.1236C205.374 99.169 205.571 99.2769 205.726 99.4339C205.831 99.5404 205.962 99.6177 206.106 99.6582C206.25 99.6988 206.402 99.7013 206.547 99.6654C206.703 99.6198 206.847 99.5408 206.97 99.4339C207.151 99.312 207.265 99.1962 207.428 99.1048Z" fill="white"/>
<path d="M194.639 89.9889C194.548 90.1534 194.434 90.2996 194.331 90.4581C194.217 90.6332 194.058 90.7742 193.872 90.8663C193.668 90.9585 193.44 90.9868 193.22 90.9477C192.999 90.9087 192.795 90.8039 192.634 90.647C192.533 90.5404 192.407 90.4619 192.267 90.4192C192.128 90.3765 191.979 90.371 191.837 90.4032C191.679 90.4377 191.532 90.5109 191.408 90.6165C191.251 90.7201 191.106 90.8359 190.943 90.9273C191.034 90.7628 191.149 90.6165 191.251 90.4581C191.368 90.2815 191.534 90.1438 191.728 90.062C191.932 89.981 192.156 89.9621 192.37 90.0076C192.585 90.0531 192.781 90.161 192.936 90.3179C193.04 90.4207 193.169 90.4944 193.31 90.5318C193.45 90.5692 193.598 90.569 193.739 90.5312C193.896 90.488 194.041 90.4088 194.162 90.2996C194.331 90.1961 194.47 90.0803 194.639 89.9889Z" fill="white"/>
<path d="M206.71 110.707C206.764 110.89 206.782 111.079 206.824 111.261C206.862 111.465 206.847 111.675 206.782 111.871C206.703 112.081 206.562 112.263 206.379 112.392C206.196 112.522 205.979 112.592 205.756 112.596C205.61 112.594 205.466 112.629 205.337 112.698C205.208 112.767 205.099 112.868 205.019 112.992C204.931 113.129 204.879 113.286 204.868 113.449C204.826 113.632 204.808 113.821 204.753 114.003C204.705 113.821 204.681 113.632 204.645 113.449C204.603 113.244 204.624 113.032 204.705 112.84C204.791 112.632 204.937 112.456 205.123 112.332C205.309 112.208 205.527 112.143 205.75 112.145C205.894 112.143 206.036 112.104 206.161 112.03C206.286 111.956 206.39 111.851 206.462 111.725C206.541 111.582 206.589 111.424 206.601 111.261C206.637 111.079 206.661 110.89 206.71 110.707Z" fill="white"/>
<path d="M202.356 143.167C202.404 143.35 202.428 143.539 202.465 143.722C202.499 143.883 202.497 144.05 202.459 144.21C202.421 144.37 202.349 144.52 202.246 144.648C202.144 144.777 202.014 144.881 201.867 144.952C201.72 145.024 201.559 145.061 201.396 145.062C201.25 145.059 201.105 145.094 200.977 145.164C200.848 145.233 200.738 145.334 200.659 145.458C200.574 145.597 200.522 145.753 200.508 145.915C200.472 146.098 200.448 146.287 200.399 146.47C200.345 146.287 200.321 146.098 200.285 145.915C200.246 145.711 200.267 145.499 200.345 145.306C200.433 145.1 200.578 144.924 200.764 144.8C200.95 144.677 201.167 144.611 201.39 144.611C201.535 144.61 201.677 144.571 201.802 144.497C201.927 144.423 202.03 144.318 202.102 144.191C202.184 144.05 202.232 143.891 202.241 143.728C202.277 143.539 202.32 143.35 202.356 143.167Z" fill="white"/>
<path d="M244.589 158.206C244.643 158.389 244.667 158.572 244.704 158.754C244.738 158.916 244.736 159.083 244.698 159.244C244.66 159.404 244.587 159.554 244.485 159.683C244.383 159.812 244.254 159.916 244.106 159.989C243.959 160.061 243.798 160.099 243.635 160.101C243.489 160.098 243.344 160.133 243.215 160.203C243.086 160.272 242.977 160.373 242.898 160.497C242.809 160.634 242.757 160.791 242.747 160.954C242.711 161.137 242.687 161.32 242.638 161.503C242.584 161.32 242.56 161.137 242.524 160.954C242.487 160.749 242.508 160.538 242.584 160.345C242.672 160.14 242.819 159.965 243.004 159.843C243.19 159.72 243.407 159.656 243.629 159.656C243.773 159.652 243.914 159.612 244.038 159.538C244.163 159.465 244.267 159.361 244.341 159.236C244.422 159.092 244.47 158.932 244.48 158.767C244.522 158.572 244.547 158.389 244.589 158.206Z" fill="white"/>
<path d="M225.025 115.204C225.073 115.387 225.097 115.569 225.133 115.758C225.176 115.961 225.161 116.173 225.091 116.368C225.012 116.579 224.871 116.761 224.688 116.892C224.506 117.022 224.288 117.094 224.064 117.099C223.918 117.096 223.774 117.131 223.645 117.2C223.516 117.27 223.407 117.371 223.328 117.495C223.243 117.633 223.191 117.79 223.177 117.952C223.141 118.135 223.116 118.318 223.068 118.507C223.014 118.318 222.996 118.135 222.953 117.952C222.924 117.79 222.93 117.623 222.972 117.464C223.015 117.305 223.091 117.157 223.197 117.032C223.303 116.906 223.435 116.806 223.584 116.739C223.733 116.671 223.895 116.638 224.058 116.642C224.203 116.64 224.345 116.6 224.469 116.526C224.594 116.453 224.698 116.348 224.771 116.221C224.855 116.081 224.903 115.922 224.91 115.758C224.952 115.569 224.97 115.387 225.025 115.204Z" fill="white"/>
<path d="M225.024 167.303C225.072 167.486 225.097 167.669 225.133 167.852C225.167 168.013 225.165 168.18 225.127 168.341C225.089 168.501 225.017 168.652 224.914 168.78C224.812 168.909 224.683 169.014 224.536 169.086C224.389 169.158 224.228 169.196 224.064 169.198C223.918 169.196 223.774 169.23 223.645 169.3C223.516 169.369 223.407 169.471 223.327 169.594C223.241 169.732 223.19 169.889 223.176 170.051C223.14 170.234 223.116 170.417 223.068 170.6C223.013 170.417 222.995 170.234 222.953 170.051C222.919 169.846 222.94 169.636 223.013 169.442C223.102 169.237 223.249 169.063 223.434 168.941C223.62 168.819 223.836 168.754 224.058 168.753C224.202 168.75 224.343 168.709 224.468 168.635C224.592 168.562 224.696 168.458 224.771 168.333C224.856 168.191 224.904 168.03 224.909 167.864C224.952 167.687 224.97 167.504 225.024 167.303Z" fill="white"/>
<path d="M234.958 137.476C235.012 137.659 235.03 137.847 235.066 138.03C235.103 138.191 235.103 138.358 235.066 138.519C235.03 138.68 234.958 138.83 234.855 138.959C234.753 139.088 234.624 139.192 234.476 139.263C234.329 139.334 234.167 139.371 234.004 139.371C233.858 139.369 233.714 139.404 233.585 139.473C233.456 139.542 233.347 139.643 233.267 139.767C233.179 139.904 233.127 140.061 233.116 140.224C233.074 140.407 233.056 140.596 233.001 140.778C232.953 140.596 232.929 140.407 232.893 140.224C232.851 140.019 232.872 139.807 232.953 139.615C233.039 139.408 233.183 139.232 233.368 139.109C233.553 138.985 233.77 138.919 233.992 138.92C234.137 138.919 234.28 138.879 234.406 138.806C234.532 138.732 234.637 138.626 234.71 138.499C234.789 138.357 234.837 138.199 234.849 138.036C234.885 137.847 234.928 137.659 234.958 137.476Z" fill="white"/>
<path d="M184.621 144.331C184.675 144.514 184.693 144.697 184.73 144.88C184.766 145.041 184.766 145.208 184.729 145.369C184.693 145.53 184.621 145.681 184.519 145.811C184.417 145.94 184.287 146.044 184.14 146.116C183.992 146.188 183.831 146.226 183.667 146.226C183.521 146.223 183.376 146.258 183.247 146.327C183.118 146.396 183.009 146.498 182.93 146.622C182.841 146.759 182.789 146.917 182.779 147.079C182.737 147.262 182.719 147.445 182.664 147.628C182.616 147.445 182.592 147.262 182.556 147.079C182.516 146.875 182.537 146.663 182.616 146.47C182.703 146.265 182.848 146.09 183.032 145.968C183.217 145.845 183.434 145.78 183.655 145.782C183.8 145.778 183.942 145.738 184.067 145.664C184.193 145.591 184.298 145.486 184.373 145.361C184.453 145.217 184.501 145.057 184.512 144.892C184.548 144.697 184.573 144.514 184.621 144.331Z" fill="white"/>
<path d="M185.599 115.204C185.645 115.387 185.681 115.572 185.708 115.758C185.753 115.961 185.74 116.172 185.672 116.368C185.592 116.579 185.452 116.761 185.269 116.892C185.086 117.022 184.869 117.094 184.645 117.099C184.499 117.096 184.354 117.13 184.225 117.2C184.096 117.269 183.987 117.371 183.908 117.495C183.821 117.632 183.769 117.789 183.757 117.952C183.715 118.135 183.697 118.318 183.643 118.507C183.594 118.318 183.57 118.135 183.534 117.952C183.493 117.748 183.512 117.536 183.588 117.343C183.676 117.136 183.822 116.961 184.007 116.837C184.193 116.714 184.411 116.648 184.633 116.648C184.778 116.646 184.921 116.606 185.047 116.532C185.172 116.459 185.277 116.354 185.352 116.228C185.431 116.085 185.478 115.927 185.49 115.764C185.527 115.569 185.551 115.387 185.599 115.204Z" fill="white"/>
<path d="M196.13 96.2711C196.178 96.4539 196.202 96.6367 196.239 96.8256C196.281 97.0288 196.266 97.2398 196.196 97.435C196.117 97.6462 195.977 97.8287 195.794 97.959C195.611 98.0893 195.394 98.1614 195.17 98.1662C195.024 98.1634 194.879 98.1984 194.751 98.2677C194.622 98.337 194.512 98.4384 194.433 98.5623C194.348 98.7006 194.296 98.8571 194.282 99.0193C194.246 99.2021 194.222 99.3849 194.174 99.5738C194.119 99.3849 194.101 99.2021 194.059 99.0193C194.022 98.8145 194.043 98.6033 194.119 98.4099C194.208 98.2052 194.354 98.0311 194.54 97.9088C194.725 97.7866 194.942 97.7214 195.164 97.7214C195.308 97.7192 195.45 97.6793 195.575 97.6056C195.7 97.532 195.804 97.427 195.876 97.3009C195.961 97.1609 196.009 97.0016 196.015 96.8378C196.058 96.6185 196.076 96.4539 196.13 96.2711Z" fill="white"/>
<path d="M193.304 125.538C193.353 125.727 193.377 125.91 193.413 126.093C193.447 126.254 193.445 126.421 193.407 126.582C193.369 126.743 193.297 126.893 193.195 127.022C193.092 127.151 192.963 127.255 192.816 127.327C192.669 127.399 192.508 127.438 192.344 127.44C192.198 127.437 192.054 127.472 191.925 127.541C191.796 127.61 191.687 127.712 191.607 127.836C191.521 127.974 191.47 128.13 191.457 128.293C191.42 128.476 191.396 128.658 191.348 128.841C191.293 128.658 191.269 128.476 191.233 128.293C191.196 128.088 191.217 127.877 191.293 127.683C191.383 127.479 191.529 127.305 191.714 127.182C191.9 127.06 192.117 126.995 192.338 126.995C192.482 126.991 192.623 126.95 192.748 126.877C192.872 126.803 192.977 126.699 193.051 126.574C193.132 126.431 193.179 126.27 193.19 126.105C193.226 125.91 193.262 125.727 193.304 125.538Z" fill="white"/>
<path d="M218.684 129.475C218.732 129.658 218.756 129.847 218.793 130.03C218.827 130.191 218.825 130.358 218.787 130.518C218.749 130.678 218.676 130.828 218.574 130.956C218.472 131.085 218.342 131.188 218.195 131.26C218.048 131.332 217.887 131.369 217.724 131.37C217.578 131.369 217.434 131.404 217.305 131.473C217.176 131.542 217.067 131.643 216.987 131.766C216.903 131.905 216.851 132.061 216.836 132.223C216.8 132.406 216.776 132.595 216.727 132.778C216.673 132.595 216.655 132.406 216.613 132.223C216.575 132.018 216.596 131.807 216.673 131.614C216.761 131.408 216.906 131.232 217.092 131.108C217.278 130.985 217.495 130.919 217.718 130.919C217.863 130.918 218.005 130.879 218.13 130.805C218.255 130.731 218.358 130.626 218.43 130.499C218.515 130.359 218.562 130.199 218.569 130.036C218.623 129.847 218.623 129.658 218.684 129.475Z" fill="white"/>
<path d="M195.224 162.343C195.272 162.532 195.296 162.715 195.333 162.898C195.369 163.059 195.369 163.226 195.332 163.387C195.296 163.548 195.224 163.699 195.122 163.828C195.02 163.958 194.89 164.062 194.743 164.134C194.595 164.206 194.434 164.244 194.27 164.244C194.124 164.24 193.979 164.274 193.849 164.343C193.72 164.413 193.611 164.515 193.533 164.64C193.446 164.776 193.392 164.93 193.376 165.091C193.349 165.278 193.313 165.463 193.267 165.646C193.219 165.463 193.195 165.28 193.159 165.091C193.119 164.887 193.137 164.675 193.213 164.482C193.3 164.276 193.446 164.1 193.632 163.978C193.818 163.855 194.036 163.791 194.258 163.793C194.403 163.79 194.545 163.749 194.67 163.676C194.796 163.602 194.901 163.498 194.976 163.373C195.055 163.228 195.102 163.068 195.115 162.904C195.152 162.715 195.176 162.532 195.224 162.343Z" fill="white"/>
<path d="M214.33 120.182C214.427 120.018 214.541 119.871 214.644 119.713C214.755 119.537 214.915 119.397 215.103 119.311C215.303 119.223 215.524 119.196 215.739 119.234C215.953 119.272 216.152 119.373 216.311 119.524C216.413 119.63 216.54 119.709 216.681 119.753C216.821 119.796 216.97 119.804 217.114 119.774C217.269 119.737 217.414 119.664 217.537 119.561C217.694 119.451 217.838 119.341 218.008 119.244C217.911 119.414 217.796 119.561 217.694 119.719C217.577 119.892 217.413 120.028 217.223 120.109C217.018 120.188 216.795 120.207 216.581 120.161C216.367 120.116 216.17 120.009 216.015 119.853C215.91 119.753 215.783 119.681 215.643 119.643C215.504 119.606 215.358 119.605 215.218 119.64C215.062 119.685 214.918 119.764 214.795 119.871C214.644 119.975 214.499 120.091 214.33 120.182Z" fill="white"/>
<path d="M199.53 133.717C199.62 133.552 199.735 133.406 199.838 133.248C199.925 133.108 200.043 132.99 200.182 132.902C200.321 132.815 200.478 132.76 200.641 132.742C200.804 132.723 200.969 132.742 201.124 132.797C201.278 132.852 201.419 132.942 201.535 133.059C201.635 133.166 201.761 133.245 201.901 133.287C202.041 133.33 202.189 133.335 202.332 133.302C202.489 133.267 202.636 133.194 202.76 133.089C202.91 132.977 203.065 132.873 203.225 132.778C203.129 132.943 203.02 133.089 202.917 133.248C202.825 133.384 202.704 133.498 202.562 133.581C202.42 133.664 202.262 133.714 202.099 133.728C201.936 133.741 201.772 133.717 201.619 133.659C201.466 133.6 201.328 133.507 201.215 133.388C201.111 133.286 200.983 133.213 200.844 133.175C200.704 133.138 200.557 133.138 200.417 133.174C200.262 133.22 200.118 133.299 199.995 133.406C199.838 133.51 199.693 133.625 199.53 133.717Z" fill="white"/>
<path d="M189.494 153.654C189.591 153.483 189.705 153.337 189.808 153.185C189.896 153.045 190.014 152.927 190.153 152.839C190.292 152.752 190.449 152.697 190.612 152.679C190.775 152.661 190.939 152.68 191.094 152.734C191.249 152.789 191.389 152.879 191.505 152.996C191.606 153.101 191.733 153.179 191.872 153.222C192.012 153.264 192.16 153.271 192.302 153.239C192.46 153.204 192.607 153.131 192.731 153.026C192.88 152.914 193.035 152.811 193.196 152.715C193.099 152.88 192.99 153.026 192.888 153.185C192.796 153.321 192.675 153.435 192.534 153.518C192.393 153.601 192.235 153.651 192.073 153.664C191.91 153.678 191.746 153.654 191.594 153.596C191.441 153.537 191.303 153.444 191.191 153.325C191.087 153.223 190.958 153.149 190.817 153.112C190.676 153.074 190.529 153.074 190.388 153.112C190.231 153.152 190.087 153.229 189.965 153.337C189.808 153.447 189.639 153.556 189.494 153.654Z" fill="white"/>
<path d="M193.83 174.366C193.926 174.201 194.041 174.055 194.144 173.897C194.255 173.72 194.414 173.581 194.603 173.494C194.803 173.408 195.023 173.382 195.238 173.42C195.452 173.458 195.651 173.558 195.81 173.708C195.911 173.814 196.037 173.893 196.177 173.937C196.316 173.981 196.464 173.988 196.607 173.957C196.765 173.919 196.912 173.844 197.036 173.738C197.187 173.635 197.332 173.525 197.501 173.427C197.404 173.598 197.296 173.744 197.193 173.897C197.075 174.072 196.909 174.209 196.716 174.293C196.512 174.372 196.289 174.39 196.075 174.345C195.86 174.299 195.664 174.192 195.508 174.037C195.404 173.936 195.276 173.864 195.137 173.827C194.997 173.79 194.851 173.789 194.711 173.823C194.555 173.869 194.411 173.948 194.289 174.055C194.144 174.159 193.999 174.274 193.83 174.366Z" fill="white"/>
<path d="M213.243 151.601C213.334 151.436 213.448 151.29 213.551 151.132C213.664 150.957 213.823 150.818 214.01 150.729C214.214 150.636 214.441 150.607 214.661 150.645C214.882 150.683 215.086 150.787 215.248 150.943C215.349 151.049 215.475 151.128 215.614 151.172C215.754 151.216 215.902 151.223 216.045 151.192C216.202 151.154 216.348 151.081 216.474 150.979C216.625 150.876 216.77 150.76 216.939 150.662C216.842 150.833 216.733 150.979 216.631 151.138C216.514 151.313 216.348 151.448 216.154 151.528C215.95 151.609 215.727 151.627 215.512 151.582C215.297 151.537 215.101 151.429 214.946 151.272C214.84 151.171 214.712 151.099 214.571 151.062C214.431 151.025 214.284 151.024 214.143 151.058C213.987 151.104 213.843 151.183 213.72 151.29C213.551 151.394 213.406 151.509 213.243 151.601Z" fill="white"/>
<path d="M226.6 159.85C226.691 159.686 226.805 159.54 226.908 159.381C227.022 159.208 227.181 159.069 227.367 158.979C227.567 158.893 227.788 158.867 228.002 158.905C228.217 158.943 228.416 159.043 228.575 159.192C228.676 159.299 228.802 159.377 228.941 159.421C229.081 159.465 229.229 159.472 229.372 159.442C229.529 159.405 229.676 159.332 229.801 159.229C229.958 159.125 230.102 159.01 230.265 158.912C230.175 159.083 230.06 159.229 229.957 159.387C229.842 159.564 229.675 159.7 229.48 159.777C229.276 159.858 229.053 159.877 228.839 159.832C228.624 159.786 228.427 159.678 228.273 159.521C228.167 159.421 228.038 159.349 227.898 159.312C227.758 159.275 227.611 159.273 227.47 159.308C227.314 159.354 227.17 159.433 227.047 159.54C226.908 159.643 226.763 159.759 226.6 159.85Z" fill="white"/>
<path d="M204.131 166.114C204.222 165.95 204.337 165.804 204.439 165.645C204.55 165.469 204.71 165.329 204.898 165.243C205.102 165.15 205.329 165.121 205.549 165.159C205.77 165.197 205.974 165.3 206.136 165.456C206.237 165.563 206.363 165.642 206.503 165.686C206.642 165.729 206.79 165.736 206.933 165.706C207.091 165.668 207.238 165.593 207.362 165.487C207.513 165.383 207.658 165.273 207.827 165.176C207.73 165.347 207.622 165.493 207.519 165.645C207.402 165.822 207.236 165.96 207.042 166.041C206.838 166.122 206.615 166.141 206.4 166.096C206.185 166.05 205.989 165.942 205.834 165.785C205.729 165.685 205.6 165.613 205.46 165.576C205.319 165.538 205.172 165.537 205.031 165.572C204.875 165.618 204.731 165.697 204.608 165.804C204.439 165.907 204.294 166.023 204.131 166.114Z" fill="white"/>
<path d="M233.116 174.366C233.212 174.202 233.321 174.055 233.424 173.897C233.536 173.722 233.695 173.583 233.883 173.495C234.087 173.402 234.313 173.372 234.534 173.41C234.754 173.448 234.959 173.552 235.121 173.708C235.222 173.814 235.348 173.893 235.487 173.937C235.627 173.98 235.775 173.988 235.918 173.958C236.075 173.921 236.222 173.848 236.346 173.745C236.503 173.635 236.648 173.525 236.811 173.428C236.721 173.598 236.606 173.745 236.503 173.903C236.387 174.076 236.223 174.212 236.032 174.293C235.828 174.373 235.605 174.392 235.391 174.346C235.176 174.301 234.98 174.193 234.825 174.037C234.72 173.937 234.592 173.865 234.453 173.828C234.314 173.791 234.167 173.789 234.028 173.824C233.869 173.868 233.723 173.947 233.599 174.055C233.418 174.159 233.273 174.275 233.116 174.366Z" fill="white"/>
<path d="M236.383 152.07C236.473 151.899 236.588 151.753 236.691 151.595C236.805 151.422 236.964 151.283 237.15 151.193C237.354 151.1 237.58 151.07 237.801 151.108C238.021 151.146 238.226 151.25 238.388 151.406C238.489 151.512 238.615 151.591 238.754 151.634C238.894 151.678 239.042 151.685 239.185 151.656C239.342 151.619 239.489 151.546 239.613 151.442C239.77 151.339 239.915 151.223 240.078 151.126C239.988 151.296 239.873 151.442 239.77 151.601C239.655 151.777 239.488 151.913 239.293 151.991C239.089 152.072 238.866 152.091 238.652 152.045C238.437 152 238.24 151.892 238.086 151.735C237.981 151.635 237.853 151.563 237.714 151.526C237.575 151.489 237.429 151.487 237.289 151.522C237.13 151.566 236.984 151.645 236.86 151.753C236.691 151.863 236.546 151.979 236.383 152.07Z" fill="white"/>
<path d="M183.45 168.973C183.546 168.802 183.655 168.656 183.758 168.497C183.872 168.324 184.031 168.185 184.217 168.095C184.421 168.002 184.647 167.973 184.868 168.011C185.088 168.049 185.293 168.152 185.454 168.308C185.556 168.415 185.682 168.493 185.821 168.537C185.961 168.581 186.109 168.588 186.252 168.558C186.409 168.521 186.556 168.448 186.68 168.345C186.837 168.241 186.982 168.126 187.145 168.028C187.055 168.199 186.94 168.345 186.837 168.503C186.722 168.678 186.558 168.814 186.366 168.893C186.162 168.973 185.939 168.992 185.725 168.947C185.51 168.901 185.314 168.794 185.159 168.637C185.054 168.537 184.926 168.466 184.787 168.429C184.647 168.393 184.501 168.393 184.362 168.43C184.203 168.469 184.056 168.547 183.933 168.656C183.758 168.759 183.601 168.875 183.45 168.973Z" fill="white"/>
<path d="M181.789 134.186C181.879 134.021 181.994 133.875 182.097 133.717C182.211 133.542 182.369 133.401 182.555 133.308C182.76 133.216 182.987 133.188 183.208 133.227C183.428 133.266 183.632 133.371 183.793 133.528C183.894 133.634 184.02 133.713 184.16 133.756C184.3 133.798 184.448 133.804 184.59 133.772C184.75 133.74 184.897 133.666 185.019 133.558C185.176 133.455 185.321 133.339 185.484 133.248C185.39 133.409 185.287 133.566 185.176 133.717C185.06 133.892 184.897 134.029 184.705 134.113C184.501 134.193 184.278 134.211 184.064 134.166C183.849 134.121 183.652 134.013 183.497 133.857C183.394 133.756 183.266 133.683 183.126 133.646C182.987 133.608 182.84 133.608 182.7 133.644C182.542 133.688 182.396 133.767 182.272 133.875C182.103 133.979 181.958 134.095 181.789 134.186Z" fill="white"/>
<path d="M201.492 87.771C201.269 88.9105 196.172 96.4116 191.052 96.3445C189.385 96.3141 189.119 87.1251 189.119 87.1251L188.944 86.4548L186.529 77.0221L197.356 69.4844L198.926 68.4851C198.926 68.4851 199.415 71.1114 200.001 74.3836C200.001 74.5359 200.055 74.6883 200.079 74.8528C200.103 75.0173 200.158 75.2062 200.182 75.3829C200.278 75.8704 200.369 76.3701 200.454 76.8697C200.52 77.2475 200.58 77.6132 200.635 78.0153C200.689 78.4175 200.749 78.8075 200.816 79.234C201.234 82.0608 201.46 84.9131 201.492 87.771Z" fill="#EB9481"/>
<path d="M200.001 74.3836C199.136 77.0845 197.699 79.5632 195.79 81.6477C193.88 83.7321 191.545 85.3725 188.944 86.4548L186.529 77.0221L197.356 69.4844L198.926 68.4851C198.926 68.4851 199.415 71.1114 200.001 74.3836Z" fill="#24221E"/>
<path d="M173.257 63.0134C172.81 80.1117 182.918 82.3115 186.541 82.4029C189.856 82.4882 201.16 82.3541 203.358 65.3959C205.556 48.4378 197.815 42.85 190.243 42.2407C182.671 41.6313 173.703 45.9151 173.257 63.0134Z" fill="#EB9481"/>
<path d="M175.829 57.8399C176.227 57.7729 176.578 57.651 176.964 57.5474C177.377 57.4966 177.762 57.3128 178.063 57.0234C178.14 56.9135 178.179 56.781 178.174 56.6465C178.168 56.512 178.119 56.3831 178.033 56.28C177.832 56.103 177.588 55.9832 177.326 55.9329C177.064 55.8825 176.793 55.9035 176.541 55.9936C176.006 56.0956 175.528 56.3955 175.201 56.8345C175.132 56.9392 175.095 57.0616 175.094 57.187C175.092 57.3125 175.127 57.4357 175.193 57.5418C175.26 57.6479 175.355 57.7325 175.468 57.7854C175.58 57.8383 175.706 57.8572 175.829 57.8399Z" fill="#24221E"/>
<path d="M187.157 60.3382C186.767 60.295 186.38 60.2299 185.997 60.1432C185.584 60.1319 185.185 59.9842 184.862 59.7228C184.776 59.6203 184.725 59.4918 184.719 59.3573C184.712 59.2228 184.75 59.0899 184.826 58.9794C185.011 58.7846 185.243 58.643 185.5 58.5691C185.757 58.4952 186.029 58.4917 186.287 58.5589C186.829 58.6152 187.331 58.8738 187.694 59.284C187.773 59.3814 187.823 59.5001 187.836 59.6254C187.849 59.7507 187.826 59.8772 187.769 59.9892C187.711 60.1012 187.623 60.194 187.514 60.256C187.406 60.318 187.281 60.3466 187.157 60.3382Z" fill="#24221E"/>
<path d="M178.328 63.403C178.328 63.3604 178.244 63.4639 178.244 63.5127C178.359 64.6705 178.298 66.0171 177.284 66.4741C177.247 66.4741 177.284 66.5473 177.284 66.5412C178.552 66.273 178.618 64.4816 178.328 63.403Z" fill="#24221E"/>
<path d="M177.218 62.2573C175.358 62.2573 175.461 65.9987 177.188 66.017C178.915 66.0353 178.77 62.2756 177.218 62.2573Z" fill="#24221E"/>
<path d="M176.451 62.5316C176.161 62.7388 175.883 63.1044 175.527 63.141C175.171 63.1775 174.808 62.7815 174.537 62.3976C174.537 62.361 174.482 62.3976 174.482 62.4402C174.482 63.1593 174.742 63.9027 175.424 64.0184C176.107 64.1342 176.493 63.5005 176.632 62.7997C176.674 62.6474 176.566 62.4463 176.451 62.5316Z" fill="#24221E"/>
<path d="M185.907 73.3539C185.623 73.6159 185.333 73.9632 184.911 74.0059C184.489 73.9776 184.078 73.8615 183.703 73.6647C183.695 73.6606 183.685 73.6594 183.676 73.6612C183.667 73.6629 183.659 73.6676 183.653 73.6745C183.647 73.6814 183.643 73.6901 183.642 73.6993C183.641 73.7085 183.644 73.7177 183.648 73.7256C183.806 73.9614 184.024 74.1495 184.279 74.2697C184.535 74.39 184.818 74.4378 185.098 74.4081C185.336 74.357 185.554 74.2342 185.722 74.0558C185.89 73.8774 186.001 73.6518 186.04 73.4087C186.016 73.3417 185.949 73.3173 185.907 73.3539Z" fill="#24221E"/>
<path d="M180.134 68.68C180.134 68.68 180.001 70.4228 180.044 71.2393C181.625 71.1517 183.211 71.2912 184.754 71.6536C185.116 71.7511 185.092 71.4526 184.681 71.2332C183.458 70.5901 182.072 70.3312 180.702 70.4898C180.629 70.2643 180.961 67.8086 180.835 67.8086C180.21 67.9011 179.601 68.0774 179.023 68.3327C179.204 64.6766 179.965 61.118 180.092 57.4924C180.094 57.4658 180.086 57.4395 180.07 57.4184C180.054 57.3972 180.031 57.3827 180.005 57.3775C179.979 57.3723 179.952 57.3767 179.929 57.39C179.906 57.4033 179.889 57.4245 179.881 57.4497C178.818 61.1485 178.516 65.3286 178.232 69.0822C178.196 69.5453 179.82 68.8384 180.134 68.68Z" fill="#24221E"/>
<path d="M188.195 63.4642C187.517 63.1959 186.775 63.1365 186.064 63.2936C185.682 63.3811 185.321 63.5425 185.001 63.7689C184.671 64.0177 184.4 64.3385 184.21 64.7073L183.854 65.3715L184.584 65.2923C185.098 65.2373 185.616 65.2373 186.13 65.2923C186.666 65.3396 187.182 65.5241 187.628 65.8285C187.336 65.2902 186.845 64.8896 186.263 64.7134C185.695 64.5241 185.095 64.4556 184.5 64.5123L184.874 65.1217C185.186 64.5929 185.668 64.1868 186.239 63.97C186.868 63.7201 187.525 63.5502 188.195 63.4642Z" fill="#24221E"/>
<path d="M186.1 66.4928C185.554 66.3633 185.027 66.1582 184.536 65.8834C184.421 65.8103 183.981 65.4752 184.005 65.3777C184.067 65.0943 184.165 64.82 184.295 64.5612C184.092 64.7912 183.938 65.0608 183.842 65.3533C183.876 65.5144 183.944 65.6661 184.042 65.7977C184.14 65.9293 184.265 66.0376 184.409 66.115C184.929 66.3933 185.513 66.5239 186.1 66.4928Z" fill="#24221E"/>
<path d="M182.091 71.1177C182.091 71.1177 183.142 72.6411 184.349 72.8239C185.738 73.0432 185.901 71.7819 184.349 71.0629C183.564 70.6912 182.091 71.1177 182.091 71.1177Z" fill="#24221E"/>
<path d="M184.343 72.8538C183.817 72.7435 183.333 72.4834 182.948 72.1043C183.238 71.6716 183.902 71.1903 185.394 72.0007C185.611 72.5125 185.225 72.9635 184.343 72.8538Z" fill="#FF99BA"/>
<path d="M203.255 65.8041C200.466 66.1575 199.536 60.2651 199.536 60.2651C199.536 60.2651 193.848 60.5576 191.571 52.3923C191.853 54.8591 192.844 57.1889 194.421 59.0951C194.421 59.0951 184.331 58.4858 179.699 50.2413C179.699 50.2413 181.595 54.4763 183.25 55.9326C183.25 55.9326 178.981 54.9577 176.765 51.6062C176.765 51.6062 175.243 56.5846 173.957 58.0044C173.957 58.0044 173.516 40.2662 189.874 41.3509C189.874 41.3509 200.091 41.5337 204.143 49.4918C208.195 57.4499 203.255 65.8041 203.255 65.8041Z" fill="#24221E"/>
<path d="M200.647 66.6331C200.647 66.6331 204.023 61.0819 206.498 62.264C208.974 63.4462 206.655 71.3433 203.908 72.5681C203.566 72.7505 203.192 72.8612 202.806 72.8935C202.421 72.9258 202.034 72.879 201.667 72.756C201.3 72.633 200.962 72.4364 200.672 72.1779C200.383 71.9194 200.148 71.6044 199.983 71.2519L200.647 66.6331Z" fill="#EB9481"/>
<path d="M205.78 64.5122C205.822 64.5122 205.834 64.567 205.78 64.5853C203.853 65.5115 202.93 67.4188 202.314 69.3809C202.857 68.607 203.63 68.1622 204.65 68.7716C204.705 68.802 204.65 68.8873 204.602 68.8812C204.249 68.7899 203.877 68.8118 203.537 68.944C203.197 69.0762 202.907 69.3119 202.706 69.6186C202.368 70.1293 202.088 70.6772 201.873 71.2516C201.788 71.4344 201.468 71.3613 201.523 71.1541C201.519 71.1381 201.519 71.1214 201.523 71.1054C201.353 68.5888 203.093 64.9327 205.78 64.5122Z" fill="#24221E"/>
<path d="M202.319 71.678C202.328 71.8358 202.383 71.9874 202.477 72.1137C202.571 72.24 202.7 72.3353 202.848 72.3874C202.996 72.4396 203.156 72.4463 203.307 72.4067C203.459 72.3671 203.596 72.283 203.7 72.1651C203.804 72.0471 203.871 71.9006 203.893 71.7441C203.914 71.5876 203.889 71.4281 203.821 71.2859C203.753 71.1437 203.644 71.0251 203.509 70.9452C203.374 70.8653 203.218 70.8277 203.062 70.8371C202.958 70.8425 202.857 70.8687 202.763 70.914C202.67 70.9593 202.586 71.0229 202.517 71.1011C202.448 71.1793 202.395 71.2706 202.361 71.3696C202.327 71.4686 202.313 71.5735 202.319 71.678Z" fill="white"/>
<path d="M204.216 70.3561C204.221 70.4574 204.255 70.5549 204.315 70.6363C204.375 70.7177 204.458 70.7793 204.553 70.8132C204.647 70.8471 204.75 70.8519 204.847 70.8269C204.945 70.8019 205.033 70.7482 205.1 70.6728C205.167 70.5973 205.21 70.5034 205.225 70.403C205.239 70.3025 205.223 70.2001 205.179 70.1087C205.136 70.0173 205.066 69.9411 204.98 69.8897C204.893 69.8382 204.793 69.8139 204.693 69.8198C204.626 69.8229 204.561 69.8393 204.501 69.8681C204.441 69.8968 204.387 69.9373 204.343 69.9872C204.299 70.0371 204.265 70.0954 204.243 70.1587C204.221 70.2221 204.212 70.2891 204.216 70.3561Z" fill="white"/>
<path d="M149.266 103.611L140.496 105.667L146.804 133.065L155.574 131.009L149.266 103.611Z" fill="white"/>
<path d="M127.889 30.8883C120.562 32.6085 113.905 36.4821 108.759 42.0195C103.614 47.5569 100.21 54.5095 98.9798 61.9984C97.7492 69.4873 98.7464 77.1763 101.845 84.0934C104.944 91.0104 110.006 96.8451 116.391 100.86C122.775 104.874 130.196 106.889 137.715 106.648C145.234 106.408 152.513 103.923 158.633 99.5088C164.753 95.0943 169.438 88.9479 172.097 81.8467C174.756 74.7455 175.268 67.0082 173.57 59.613C172.442 54.699 170.365 50.0575 167.458 45.954C164.551 41.8504 160.871 38.3652 156.629 35.6975C152.386 33.0299 147.665 31.232 142.733 30.4068C137.802 29.5816 132.758 29.7452 127.889 30.8883ZM143.299 97.8374C137.51 99.1962 131.452 98.792 125.891 96.6758C120.329 94.5596 115.515 90.8266 112.056 85.9489C108.597 81.0713 106.65 75.2681 106.46 69.2734C106.27 63.2787 107.846 57.3618 110.989 52.2712C114.132 47.1806 118.7 43.1449 124.117 40.6746C129.533 38.2043 135.553 37.4104 141.416 38.3933C147.28 39.3762 152.722 42.0917 157.056 46.1964C161.39 50.3011 164.42 55.6106 165.763 61.4532C167.563 69.2838 166.207 77.5152 161.995 84.338C157.783 91.1607 151.058 96.0163 143.299 97.8374Z" fill="#C8C8C7"/>
<path d="M152.259 123.256L146.377 124.635C144.341 125.112 143.073 127.166 143.546 129.221L151.069 161.895C151.543 163.951 153.577 165.23 155.614 164.752L161.496 163.373C163.533 162.896 164.8 160.842 164.327 158.787L156.804 126.113C156.331 124.057 154.296 122.778 152.259 123.256Z" fill="#24221E"/>
<g opacity="0.3">
<path d="M165.763 61.4412C167.105 67.2815 166.701 73.3923 164.602 79.001C162.503 84.6096 158.803 89.4643 153.97 92.9511C149.137 96.4379 143.388 98.4003 137.449 98.5901C131.511 98.78 125.65 97.1888 120.608 94.0177C115.566 90.8466 111.569 86.2381 109.122 80.7747C106.676 75.3114 105.889 69.2387 106.862 63.3243C107.836 57.41 110.525 51.9197 114.59 47.5475C118.655 43.1754 123.914 40.1177 129.701 38.7612C133.545 37.8595 137.527 37.7309 141.42 38.3828C145.313 39.0347 149.04 40.4543 152.389 42.5606C155.738 44.6668 158.643 47.4184 160.938 50.658C163.232 53.8977 164.872 57.5619 165.763 61.4412Z" fill="white"/>
<path d="M166.499 69.984C166.056 77.9647 162.509 85.4462 156.629 90.8023C150.749 96.1583 143.012 98.9559 135.099 98.5869L166.499 69.984Z" fill="white"/>
<path d="M152.677 42.7521L109.665 81.9272C108.595 79.7759 107.784 77.5031 107.249 75.1573C106.623 72.4696 106.371 69.7071 106.501 66.9494L138.257 38.0236C143.386 38.328 148.351 39.9562 152.677 42.7521Z" fill="white"/>
<path d="M164.936 58.5345L123.964 95.845C122.174 95.0147 120.469 94.0085 118.874 92.8409L162.502 53.1113C163.493 54.8311 164.309 56.6482 164.936 58.5345Z" fill="white"/>
<path d="M155.98 45.2265L111.743 85.5045C111.537 85.1998 111.332 84.8951 111.139 84.5844L155.123 44.5319C155.425 44.7512 155.709 44.9767 155.98 45.2265Z" fill="white"/>
<path d="M128.239 39.1449L108.614 57.011C108.946 56.164 109.321 55.3353 109.731 54.531L125.691 39.9919C126.518 39.6811 127.37 39.3947 128.239 39.1449Z" fill="white"/>
</g>
<path d="M115.173 73.5431C115.17 73.5026 115.17 73.4618 115.173 73.4213C115.064 72.8119 115.251 74.0002 115.173 73.6041C115.094 73.208 115.052 72.6657 115.016 72.1965C114.877 70.542 114.877 68.8787 115.016 67.2242C115.016 66.9865 115.058 66.755 115.076 66.5234C115.076 66.4503 115.009 67.0719 115.076 66.5783L115.13 66.1517C115.203 65.6033 115.293 65.0549 115.402 64.5126C115.631 63.3169 115.94 62.1382 116.326 60.9845C116.416 60.7103 116.519 60.436 116.616 60.1618C116.743 59.7901 116.447 60.5701 116.646 60.0826L116.845 59.6012C117.105 58.9919 117.389 58.3825 117.691 57.7732C117.992 57.1638 118.385 56.5118 118.765 55.9086C118.947 55.6283 119.128 55.3541 119.315 55.0799C119.635 54.6107 119.164 55.2688 119.412 54.9397L119.768 54.4644C120.867 53.0695 122.097 51.784 123.439 50.6255C123.439 50.6255 123.717 50.4001 123.512 50.5707C123.306 50.7413 123.62 50.4793 123.657 50.4488L124.26 49.9674C124.665 49.6628 125.076 49.3581 125.498 49.09C126.384 48.4928 127.299 47.9416 128.24 47.4386C128.492 47.2786 128.71 47.07 128.883 46.8248C129.055 46.5795 129.178 46.3024 129.244 46.0093C129.31 45.7162 129.318 45.4128 129.268 45.1165C129.218 44.8202 129.111 44.5367 128.952 44.2822C128.794 44.0277 128.587 43.8073 128.344 43.6334C128.101 43.4596 127.826 43.3357 127.536 43.269C127.245 43.2022 126.945 43.1938 126.651 43.2443C126.358 43.2948 126.077 43.4031 125.824 43.5632C119.858 46.7744 114.955 51.8442 112.491 58.2363C110.823 62.5349 110.112 67.151 110.408 71.7577C110.468 72.781 110.598 73.7989 110.795 74.8045C110.967 75.3845 111.359 75.8722 111.886 76.1611C112.414 76.4499 113.033 76.5165 113.609 76.3461C114.175 76.158 114.649 75.7585 114.933 75.2295C115.217 74.7005 115.289 74.082 115.136 73.5005L115.173 73.5431Z" fill="white"/>
<path d="M117.177 80.0265C117.302 80.4516 117.299 80.9045 117.169 81.328C117.039 81.7515 116.787 82.1265 116.446 82.4058C116.105 82.6851 115.689 82.856 115.252 82.897C114.814 82.938 114.375 82.8472 113.988 82.6361C113.602 82.425 113.286 82.103 113.081 81.7109C112.876 81.3188 112.791 80.8742 112.836 80.4332C112.881 79.9922 113.055 79.5746 113.335 79.2333C113.616 78.8919 113.99 78.6421 114.411 78.5153C114.691 78.4303 114.985 78.4019 115.276 78.4319C115.567 78.4619 115.849 78.5496 116.106 78.6901C116.363 78.8305 116.59 79.0209 116.774 79.2503C116.957 79.4797 117.094 79.7435 117.177 80.0265Z" fill="white"/>
<path d="M213.267 99.239C218.702 119.067 221.311 138.975 218.303 149.242C216.383 155.787 211.752 160.211 208.805 161.673C201.915 165.11 179.059 160.235 164.168 157.213C160.509 156.469 169.138 126.715 172.815 128.293C178.25 130.614 194.886 133.746 195.345 133.899C196.329 134.24 198.364 112.724 199.801 100.11C201.788 82.5368 210.133 87.7894 213.267 99.239Z" fill="#EB9481"/>
<path d="M135.552 122.626C133.934 125.289 136.035 127.726 136.035 127.726C134.656 128.422 133.562 129.584 132.944 131.01C131.971 133.57 135.522 136.232 135.522 136.232C134.241 137.254 133.296 138.644 132.811 140.218C132.122 142.765 135.329 145.964 135.329 145.964C134.667 147.559 134.596 149.341 135.13 150.985C136.73 155.317 143.583 156.737 147.931 157.688C152.279 158.638 165.491 157.2 168.039 157.188L174.289 129.079C174.289 129.079 155.986 119.238 150.739 118.86C146.277 118.555 137.37 119.64 135.552 122.626Z" fill="#EB9481"/>
<path d="M136.325 127.318C141.155 126.52 145.902 127.19 150.702 127.586C150.725 127.586 150.746 127.595 150.762 127.611C150.778 127.627 150.787 127.649 150.787 127.672C150.787 127.694 150.778 127.716 150.762 127.732C150.746 127.748 150.725 127.757 150.702 127.757C145.926 127.306 141.125 127.812 136.349 127.556C136.321 127.553 136.295 127.541 136.275 127.521C136.256 127.501 136.243 127.475 136.24 127.447C136.238 127.419 136.244 127.391 136.26 127.368C136.275 127.344 136.298 127.327 136.325 127.318Z" fill="#24221E"/>
<path d="M135.697 135.886C136.804 135.808 137.917 135.88 139.006 136.099C140.169 136.254 141.331 136.428 142.49 136.623C144.813 137.029 147.123 137.478 149.422 137.97C149.525 137.97 149.519 138.153 149.422 138.134C147.103 137.751 144.785 137.403 142.46 137.117C141.294 136.971 140.129 136.843 138.957 136.715C137.849 136.669 136.75 136.5 135.679 136.209C135.646 136.196 135.618 136.172 135.599 136.142C135.58 136.112 135.571 136.076 135.573 136.041C135.575 136.005 135.588 135.971 135.61 135.943C135.632 135.915 135.662 135.895 135.697 135.886Z" fill="#24221E"/>
<path d="M135.425 145.976C136.367 145.812 137.466 146.153 138.396 146.33C139.453 146.531 140.503 146.72 141.56 146.908C143.674 147.286 145.787 147.658 147.913 147.963C148.015 147.963 148.003 148.145 147.913 148.127C145.751 147.835 143.589 147.567 141.433 147.256C140.377 147.103 139.314 146.939 138.257 146.774C137.357 146.634 136.222 146.561 135.419 146.086C135.409 146.08 135.401 146.072 135.395 146.062C135.39 146.052 135.387 146.041 135.388 146.029C135.388 146.018 135.392 146.007 135.399 145.997C135.405 145.988 135.414 145.981 135.425 145.976Z" fill="#24221E"/>
<path d="M141.518 119.713C139.326 120 136.814 120.487 135.395 122.37C134.739 123.169 134.416 124.194 134.495 125.228C134.62 126.194 135.103 127.076 135.848 127.696C134.972 127.981 134.193 128.509 133.601 129.221C133.009 129.932 132.629 130.798 132.503 131.718C132.466 132.178 132.523 132.642 132.672 133.079C132.821 133.516 133.057 133.918 133.366 134.259C133.668 134.618 134.012 134.935 134.344 135.264C134.676 135.593 135.045 135.873 135.389 136.16C135.017 136.453 134.667 136.775 134.344 137.122C133.982 137.474 133.656 137.862 133.372 138.28C132.784 139.109 132.452 140.095 132.418 141.114C132.468 142.126 132.817 143.1 133.42 143.911C133.911 144.749 134.602 145.449 135.431 145.946C135.442 145.951 135.453 145.952 135.465 145.949C135.476 145.946 135.485 145.939 135.492 145.93C135.499 145.92 135.502 145.909 135.5 145.897C135.499 145.885 135.494 145.875 135.486 145.867C134.834 145.266 134.281 144.565 133.849 143.789C133.327 142.961 133.041 142.004 133.022 141.022C133.102 140.092 133.413 139.197 133.928 138.42C134.183 137.999 134.462 137.592 134.761 137.202C135.059 136.882 135.337 136.544 135.594 136.19C135.594 136.19 134.876 135.422 134.622 135.093C134.368 134.764 134.121 134.411 133.891 134.051C133.405 133.369 133.19 132.528 133.288 131.693C133.43 130.914 133.781 130.189 134.302 129.597C134.809 128.988 135.467 128.506 135.999 127.909C136.018 127.877 136.03 127.842 136.036 127.806C136.041 127.769 136.038 127.732 136.029 127.696C134.821 125.795 134.972 123.991 136.264 122.583C136.923 121.901 137.693 121.338 138.541 120.92C139.517 120.472 140.526 120.103 141.56 119.817C141.603 119.811 141.584 119.707 141.518 119.713Z" fill="#24221E"/>
<path d="M181.553 160.656C180.267 160.254 178.908 160.046 177.592 159.754C176.276 159.461 174.947 159.187 173.619 158.919C172.29 158.651 170.907 158.383 169.555 158.127C168.202 157.871 166.94 157.585 165.624 157.426C164.353 157.302 163.072 157.331 161.807 157.511C160.531 157.658 159.251 157.761 157.967 157.822C155.38 157.948 152.787 157.891 150.208 157.652C147.289 157.378 144.399 156.858 141.566 156.098C141.506 156.098 141.488 156.171 141.566 156.189C146.477 157.843 151.625 158.667 156.802 158.627C158.082 158.627 159.368 158.547 160.642 158.419C161.915 158.237 163.197 158.127 164.483 158.09C165.841 158.181 167.191 158.385 168.516 158.7C169.851 158.95 171.179 159.205 172.514 159.443C174.023 159.711 175.533 159.985 177.049 160.223C178.564 160.461 180.068 160.802 181.553 160.912C181.662 160.887 181.668 160.686 181.553 160.656Z" fill="#24221E"/>
<path d="M200.309 135.13C198.377 134.465 196.336 134.051 194.349 133.57C192.362 133.088 190.351 132.625 188.353 132.168C184.536 131.297 180.672 130.56 176.88 129.493C175.883 129.213 174.899 128.884 173.927 128.555C173.438 128.378 172.961 128.183 172.484 127.945C172.007 127.708 171.457 127.562 170.986 127.336C170.932 127.3 170.889 127.385 170.944 127.421C171.324 127.659 171.674 127.945 172.067 128.177C172.459 128.409 172.936 128.64 173.383 128.847C174.2 129.224 175.037 129.556 175.889 129.84C177.665 130.45 179.512 130.87 181.324 131.297C185.309 132.217 189.301 133.125 193.298 133.996C194.421 134.24 195.551 134.484 196.68 134.709C197.809 134.935 199.041 135.215 200.236 135.349C200.265 135.357 200.295 135.354 200.321 135.34C200.347 135.326 200.366 135.302 200.376 135.274C200.385 135.246 200.383 135.215 200.371 135.188C200.358 135.161 200.336 135.14 200.309 135.13Z" fill="#24221E"/>
<path d="M194.023 127.756L221.643 131.546C221.643 131.546 216.595 102.572 211.227 92.9746C205.931 83.5053 200.086 89.7633 197.857 101.219C195.357 113.918 194.023 127.756 194.023 127.756Z" fill="#9F7815"/>
<path d="M219.572 127.348C218.799 127.166 218.008 127.05 217.235 126.879C216.462 126.709 215.719 126.593 214.958 126.471C213.406 126.227 211.849 126.008 210.291 125.795C207.223 125.368 204.162 124.899 201.082 124.576C199.331 124.381 197.586 124.119 195.834 123.967C195.822 123.967 195.809 123.972 195.8 123.981C195.791 123.99 195.786 124.002 195.786 124.015C195.786 124.028 195.791 124.041 195.8 124.05C195.809 124.059 195.822 124.064 195.834 124.064C198.884 124.783 201.994 125.319 205.085 125.825C208.177 126.331 211.221 126.806 214.3 127.147C215.164 127.239 216.027 127.355 216.897 127.397C217.766 127.44 218.678 127.519 219.566 127.537C219.591 127.538 219.615 127.529 219.633 127.512C219.651 127.495 219.662 127.471 219.662 127.446C219.663 127.421 219.654 127.397 219.637 127.378C219.62 127.36 219.597 127.349 219.572 127.348Z" fill="#24221E"/>
<path d="M234.704 22.2233C234.349 25.6512 233.058 28.9123 230.973 31.6426C228.889 34.3728 226.094 36.4649 222.9 37.6853C219.706 38.9057 216.238 39.2064 212.885 38.5539C209.531 37.9013 206.423 36.3212 203.907 33.9899L194.681 35.3609L199.3 27.3114C198.241 24.6915 197.787 21.8623 197.975 19.039C198.162 16.2157 198.984 13.4726 200.38 11.0184C201.776 8.56418 203.708 6.46346 206.029 4.87599C208.35 3.28853 211 2.25612 213.776 1.85729C216.552 1.45846 219.381 1.70371 222.049 2.57438C224.718 3.44506 227.154 4.91823 229.173 6.88186C231.192 8.84549 232.74 11.2479 233.701 13.9063C234.661 16.5647 235.008 19.4092 234.716 22.2233H234.704Z" fill="white"/>
<path d="M234.704 22.2232C234.351 25.6536 233.063 28.9184 230.984 31.6559C229.963 33.0338 228.742 34.2479 227.361 35.2571C224.618 37.3352 221.361 38.6126 217.947 38.9498C217.096 39.03 216.24 39.0463 215.387 38.9985C214.531 38.9796 213.679 38.8899 212.838 38.7304C209.438 38.102 206.279 36.53 203.714 34.1908L203.932 34.2578L194.723 35.6837L194.053 35.7873L194.391 35.1779L198.98 27.1162V27.4331C197.639 24.1034 197.271 20.4561 197.917 16.9218C198.564 13.3874 200.2 10.1137 202.631 7.48692C205.062 4.86018 208.187 2.99015 211.637 2.0976C215.087 1.20505 218.718 1.32725 222.102 2.44977C224.766 3.36334 227.194 4.86651 229.209 6.84927C231.219 8.82418 232.759 11.2344 233.711 13.8977C234.663 16.5611 235.002 19.4079 234.704 22.2232ZM234.704 22.2232C234.995 19.4234 234.645 16.5937 233.682 13.9516C232.72 11.3096 231.169 8.92565 229.149 6.98334C227.13 5.04102 224.696 3.59208 222.035 2.74802C219.374 1.90395 216.556 1.68727 213.799 2.11463C211.061 2.53059 208.455 3.57274 206.178 5.16138C203.923 6.76375 202.042 8.84326 200.665 11.2549C199.305 13.667 198.504 16.3585 198.322 19.1277C198.155 21.8928 198.598 24.6609 199.62 27.232L199.687 27.4026L199.602 27.555L194.959 35.5862L194.626 35.0926L203.859 33.7886H203.986L204.077 33.8739C206.543 36.2001 209.602 37.7887 212.911 38.4623C213.735 38.6329 214.571 38.7368 215.411 38.7731C216.251 38.831 217.095 38.831 217.935 38.7731C219.618 38.6407 221.275 38.2715 222.856 37.6762C224.451 37.0906 225.951 36.2692 227.307 35.2389C227.989 34.7346 228.638 34.1872 229.251 33.5997C229.849 32.9948 230.409 32.3538 230.93 31.6802C233.032 28.9416 234.338 25.6675 234.704 22.2232Z" fill="#24221E"/>
<path d="M207.349 28.9809C207.338 28.7338 207.376 28.4869 207.462 28.2552C207.548 28.0234 207.68 27.8117 207.849 27.6328C208.018 27.4539 208.222 27.3116 208.447 27.2144C208.673 27.1173 208.916 27.0673 209.161 27.0676C209.664 27.0676 210.146 27.2692 210.501 27.628C210.857 27.9868 211.057 28.4735 211.057 28.9809C211.057 29.4884 210.857 29.9751 210.501 30.3339C210.146 30.6927 209.664 30.8943 209.161 30.8943C208.916 30.8946 208.673 30.8446 208.447 30.7475C208.222 30.6503 208.018 30.508 207.849 30.3291C207.68 30.1502 207.548 29.9385 207.462 29.7067C207.376 29.475 207.338 29.2281 207.349 28.9809ZM208.116 24.5693L207.687 9.75598H210.622L210.169 24.551L208.116 24.5693Z" fill="#871E35"/>
<path d="M214.397 28.9809C214.385 28.7338 214.423 28.4869 214.509 28.2552C214.595 28.0234 214.727 27.8117 214.896 27.6328C215.066 27.4539 215.269 27.3116 215.495 27.2144C215.72 27.1173 215.963 27.0673 216.208 27.0676C216.711 27.0676 217.193 27.2692 217.549 27.628C217.904 27.9868 218.104 28.4735 218.104 28.9809C218.104 29.4884 217.904 29.9751 217.549 30.3339C217.193 30.6927 216.711 30.8943 216.208 30.8943C215.963 30.8946 215.72 30.8446 215.495 30.7475C215.269 30.6503 215.066 30.508 214.896 30.3291C214.727 30.1502 214.595 29.9385 214.509 29.7067C214.423 29.475 214.385 29.2281 214.397 28.9809ZM215.163 24.5693L214.735 9.75598H217.669L217.241 24.5693H215.163Z" fill="#871E35"/>
<path d="M221.419 28.9809C221.408 28.7338 221.446 28.4869 221.532 28.2552C221.618 28.0234 221.749 27.8117 221.919 27.6328C222.088 27.4539 222.292 27.3116 222.517 27.2144C222.743 27.1173 222.985 27.0673 223.231 27.0676C223.733 27.0676 224.216 27.2692 224.571 27.628C224.927 27.9868 225.127 28.4735 225.127 28.9809C225.127 29.4884 224.927 29.9751 224.571 30.3339C224.216 30.6927 223.733 30.8943 223.231 30.8943C222.985 30.8946 222.743 30.8446 222.517 30.7475C222.292 30.6503 222.088 30.508 221.919 30.3291C221.749 30.1502 221.618 29.9385 221.532 29.7067C221.446 29.475 221.408 29.2281 221.419 28.9809ZM222.186 24.5693L221.757 9.75598H224.692L224.263 24.5693H222.186Z" fill="#871E35"/>
</svg>
