<!-- sample rectangle -->
<svg width="44" height="44" viewBox="0 0 44 44" fill="none" xmlns="http://www.w3.org/2000/svg">
<circle cx="22" cy="22" r="22" fill="#9F7815"/>
<path d="M23.122 25.75C23.122 26.0214 23.2167 26.2855 23.3918 26.5022C23.5669 26.719 23.8128 26.8767 24.0925 26.9516C24.3721 27.0264 24.6703 27.0143 24.9419 26.917C25.2135 26.8198 25.4438 26.6427 25.598 26.4125L29.1995 23.0537C29.3239 22.9376 29.4226 22.7998 29.4899 22.648C29.5572 22.4963 29.5918 22.3337 29.5917 22.1696C29.5917 22.0054 29.5569 21.8428 29.4895 21.6911C29.4221 21.5395 29.3234 21.4017 29.1989 21.2856C29.0744 21.1696 28.9266 21.0775 28.764 21.0147C28.6014 20.952 28.4271 20.9197 28.2511 20.9197C28.0751 20.9198 27.9009 20.9522 27.7383 21.0151C27.5758 21.078 27.4281 21.1701 27.3037 21.2862L25.803 22.6862V13.25C25.803 12.9185 25.6619 12.6005 25.4106 12.3661C25.1593 12.1317 24.8185 12 24.4632 12C24.1078 12 23.767 12.1317 23.5158 12.3661C23.2645 12.6005 23.1233 12.9185 23.1233 13.25V25.6875V25.75H23.122Z" fill="white"/>
<path d="M20.4852 18.25C20.4852 17.9786 20.3905 17.7145 20.2155 17.4978C20.0404 17.281 19.7944 17.1233 19.5148 17.0484C19.2351 16.9736 18.9369 16.9857 18.6653 17.083C18.3937 17.1802 18.1634 17.3573 18.0092 17.5875L14.409 20.9463C14.2811 21.0616 14.179 21.1995 14.1088 21.352C14.0386 21.5045 14.0016 21.6685 14.0001 21.8345C13.9985 22.0005 14.0324 22.1651 14.0998 22.3187C14.1671 22.4723 14.2666 22.6119 14.3924 22.7292C14.5182 22.8466 14.6678 22.9394 14.8325 23.0023C14.9972 23.0651 15.1736 23.0968 15.3515 23.0953C15.5294 23.0939 15.7052 23.0594 15.8687 22.9939C16.0321 22.9284 16.18 22.8331 16.3036 22.7138L17.8055 21.3138V30.75C17.8055 31.0815 17.9467 31.3995 18.198 31.6339C18.4492 31.8683 18.79 32 19.1454 32C19.5007 32 19.8415 31.8683 20.0928 31.6339C20.3441 31.3995 20.4852 31.0815 20.4852 30.75V18.3125V18.25Z" fill="white"/>
</svg>
