<svg width="48" height="48" viewBox="0 0 48 48" fill="none" xmlns="http://www.w3.org/2000/svg">
<rect width="48" height="48" rx="8" fill="#F3E9EB"/>
<path d="M24 29C23.4696 29 22.9609 28.7893 22.5858 28.4142C22.2107 28.0391 22 27.5304 22 27C22 25.89 22.89 25 24 25C24.5304 25 25.0391 25.2107 25.4142 25.5858C25.7893 25.9609 26 26.4696 26 27C26 27.5304 25.7893 28.0391 25.4142 28.4142C25.0391 28.7893 24.5304 29 24 29ZM30 32V22H18V32H30ZM30 20C30.5304 20 31.0391 20.2107 31.4142 20.5858C31.7893 20.9609 32 21.4696 32 22V32C32 32.5304 31.7893 33.0391 31.4142 33.4142C31.0391 33.7893 30.5304 34 30 34H18C17.4696 34 16.9609 33.7893 16.5858 33.4142C16.2107 33.0391 16 32.5304 16 32V22C16 20.89 16.89 20 18 20H19V18C19 16.6739 19.5268 15.4021 20.4645 14.4645C21.4021 13.5268 22.6739 13 24 13C24.6566 13 25.3068 13.1293 25.9134 13.3806C26.52 13.6319 27.0712 14.0002 27.5355 14.4645C27.9998 14.9288 28.3681 15.48 28.6194 16.0866C28.8707 16.6932 29 17.3434 29 18V20H30ZM24 15C23.2044 15 22.4413 15.3161 21.8787 15.8787C21.3161 16.4413 21 17.2044 21 18V20H27V18C27 17.2044 26.6839 16.4413 26.1213 15.8787C25.5587 15.3161 24.7956 15 24 15Z" fill="#871E35"/>
</svg>
