<!-- sample rectangle -->
<svg width="58" height="55" viewBox="0 0 58 55" fill="none" xmlns="http://www.w3.org/2000/svg">
<rect x="0.75" y="0.248779" width="56.6557" height="54" rx="8" fill="#F3E9EB"/>
<path d="M13.9546 28.134C13.9546 22.4311 13.9546 19.579 15.727 17.8081C17.4979 16.0356 20.3501 16.0356 26.053 16.0356H32.1021C37.805 16.0356 40.6572 16.0356 42.4281 17.8081C44.2005 19.579 44.2005 22.4311 44.2005 28.134C44.2005 33.8369 44.2005 36.6891 42.4281 38.46C40.6572 40.2324 37.805 40.2324 32.1021 40.2324H26.053C20.3501 40.2324 17.4979 40.2324 15.727 38.46C13.9546 36.6891 13.9546 33.8369 13.9546 28.134Z" stroke="#871E35" stroke-width="1.5"/>
<path d="M26.053 34.1831H20.0038M32.1021 34.1831H29.8337M13.9546 25.1094H44.2005" stroke="#871E35" stroke-width="1.5" stroke-linecap="round"/>
</svg>
