<svg width="48" height="48" viewBox="0 0 48 48" fill="none" xmlns="http://www.w3.org/2000/svg">
<rect width="48" height="48" rx="8" fill="#F3E9EB"/>
<path d="M19 29.0129L23.413 28.9979L33.045 19.4579C33.423 19.0799 33.631 18.5779 33.631 18.0439C33.631 17.5099 33.423 17.0079 33.045 16.6299L31.459 15.0439C30.703 14.2879 29.384 14.2919 28.634 15.0409L19 24.5829V29.0129ZM30.045 16.4579L31.634 18.0409L30.037 19.6229L28.451 18.0379L30.045 16.4579ZM21 25.4169L27.03 19.4439L28.616 21.0299L22.587 27.0009L21 27.0059V25.4169Z" fill="#871E35"/>
<path d="M17 33H31C32.103 33 33 32.103 33 31V22.332L31 24.332V31H20.158C20.132 31 20.105 31.01 20.079 31.01C20.046 31.01 20.013 31.001 19.979 31H17V17H23.847L25.847 15H17C15.897 15 15 15.897 15 17V31C15 32.103 15.897 33 17 33Z" fill="#871E35"/>
</svg>
