<svg width="48" height="48" viewBox="0 0 48 48" fill="none" xmlns="http://www.w3.org/2000/svg">
<rect width="48" height="48" rx="8" fill="#F3E9EB"/>
<path d="M34 21.6701C33.9368 21.4872 33.822 21.3266 33.6693 21.2076C33.5167 21.0887 33.3328 21.0166 33.14 21.0001L27.45 20.1701L24.9 15.0001C24.8181 14.8311 24.6902 14.6885 24.5311 14.5887C24.3719 14.489 24.1878 14.436 24 14.436C23.8121 14.436 23.6281 14.489 23.4689 14.5887C23.3097 14.6885 23.1819 14.8311 23.1 15.0001L20.55 20.1601L14.86 21.0001C14.6749 21.0265 14.5009 21.1041 14.3577 21.2243C14.2146 21.3445 14.1079 21.5024 14.05 21.6801C13.9969 21.8538 13.9922 22.0387 14.0362 22.2148C14.0802 22.391 14.1714 22.5519 14.3 22.6801L18.43 26.6801L17.43 32.3601C17.3896 32.5486 17.4045 32.7446 17.473 32.9248C17.5414 33.1049 17.6604 33.2614 17.8157 33.3755C17.971 33.4896 18.1559 33.5564 18.3483 33.5679C18.5407 33.5794 18.7322 33.535 18.9 33.4401L24 30.7701L29.1 33.4401C29.2403 33.5193 29.3988 33.5607 29.56 33.5601C29.7718 33.5609 29.9784 33.4944 30.15 33.3701C30.3051 33.259 30.4252 33.1058 30.4961 32.9286C30.567 32.7514 30.5857 32.5576 30.55 32.3701L29.55 26.6901L33.68 22.6901C33.8244 22.5678 33.9311 22.407 33.9877 22.2265C34.0444 22.0459 34.0486 21.853 34 21.6701ZM27.85 25.6701C27.7342 25.7826 27.6474 25.9213 27.5969 26.0745C27.5464 26.2278 27.5337 26.3909 27.56 26.5501L28.28 30.7501L24.52 28.7501C24.3738 28.6779 24.213 28.6403 24.05 28.6403C23.8869 28.6403 23.7261 28.6779 23.58 28.7501L19.82 30.7501L20.54 26.5501C20.5662 26.3909 20.5535 26.2278 20.503 26.0745C20.4525 25.9213 20.3657 25.7826 20.25 25.6701L17.25 22.6701L21.46 22.0601C21.622 22.0376 21.776 21.9757 21.9085 21.8798C22.041 21.7839 22.1479 21.657 22.22 21.5101L24 17.7001L25.88 21.5201C25.952 21.667 26.059 21.7939 26.1915 21.8898C26.324 21.9857 26.478 22.0476 26.64 22.0701L30.85 22.6801L27.85 25.6701Z" fill="#871E35"/>
</svg>
