<!-- sample rectangle -->
<svg width="19" height="20" viewBox="0 0 19 20" fill="none" xmlns="http://www.w3.org/2000/svg">
<path d="M17.0916 4.46655L17.5334 4.90843L18.7834 3.65843C18.842 3.59983 18.8749 3.52035 18.8749 3.43749C18.8749 3.35463 18.842 3.27516 18.7834 3.21655L17.5334 1.96655L17.0916 2.40843L17.8081 3.12499H14.1875V3.74999H17.8081L17.0916 4.46655ZM15.2166 7.40843L15.6584 6.96655L14.9419 6.24999H18.5625V5.62499H14.9419L15.6584 4.90843L15.2166 4.46655L13.9666 5.71655C13.908 5.77515 13.8751 5.85463 13.8751 5.93749C13.8751 6.02035 13.908 6.09983 13.9666 6.15843L15.2166 7.40843Z" fill="#565552"/>
<path d="M18.5094 9.74063C18.2879 9.51839 17.9905 9.38812 17.6769 9.37595C17.3634 9.36378 17.0568 9.4706 16.8187 9.675C16.7095 9.4886 16.5533 9.33401 16.3659 9.22657C16.1784 9.11913 15.9661 9.06257 15.75 9.0625C15.6102 9.06053 15.4714 9.08491 15.3406 9.13437C15.1958 9.18554 15.0621 9.26404 14.9469 9.36562C14.8369 9.1789 14.6803 9.02398 14.4924 8.91605C14.3044 8.80812 14.0917 8.7509 13.875 8.75C13.6551 8.75064 13.4393 8.80997 13.25 8.92188V3.75C13.25 3.41848 13.1183 3.10054 12.8839 2.86612C12.6495 2.6317 12.3315 2.5 12 2.5C11.7801 2.50064 11.5643 2.55997 11.375 2.67188V1.5625C11.3743 1.31409 11.2752 1.07606 11.0996 0.900407C10.9239 0.724752 10.6859 0.625742 10.4375 0.625H2.9375C2.68909 0.625742 2.45106 0.724752 2.27541 0.900407C2.09975 1.07606 2.00074 1.31409 2 1.5625V7.8125H1.6875C1.2731 7.8125 0.875671 7.97712 0.582646 8.27015C0.28962 8.56317 0.125 8.9606 0.125 9.375V10.6531L0.75 17.2031V19.0625C0.75 19.1454 0.782924 19.2249 0.841529 19.2835C0.900134 19.3421 0.97962 19.375 1.0625 19.375H7.9375C8.02038 19.375 8.09987 19.3421 8.15847 19.2835C8.21708 19.2249 8.25 19.1454 8.25 19.0625V17.2875L9.4125 15.625H10.0844L10.4375 16.6156V19.0625C10.4375 19.1454 10.4704 19.2249 10.529 19.2835C10.5876 19.3421 10.6671 19.375 10.75 19.375H17C17.0829 19.375 17.1624 19.3421 17.221 19.2835C17.2796 19.2249 17.3125 19.1454 17.3125 19.0625V16.6156L18.7469 12.5969C18.8313 12.3612 18.8746 12.1128 18.875 11.8625V10.625C18.8751 10.4608 18.8429 10.2982 18.7802 10.1464C18.7174 9.99469 18.6254 9.8568 18.5094 9.74063ZM7.625 18.75H1.375V17.5H7.625V18.75ZM7.775 16.875H1.34687L0.75 10.625V9.375C0.750742 9.12659 0.849752 8.88856 1.02541 8.71291C1.20106 8.53725 1.43909 8.43824 1.6875 8.4375H3.875C4.12364 8.4375 4.3621 8.53627 4.53791 8.71209C4.71373 8.8879 4.8125 9.12636 4.8125 9.375C4.8125 9.62364 4.71373 9.8621 4.53791 10.0379C4.3621 10.2137 4.12364 10.3125 3.875 10.3125H2.3125C2.22962 10.3125 2.15013 10.3454 2.09153 10.404C2.03292 10.4626 2 10.5421 2 10.625V14.6875C2.00074 14.9359 2.09975 15.1739 2.27541 15.3496C2.45106 15.5252 2.68909 15.6243 2.9375 15.625H8.65L7.775 16.875ZM2.9375 15C2.85462 15 2.77513 14.9671 2.71653 14.9085C2.65792 14.8499 2.625 14.7704 2.625 14.6875V13.75H8.25V13.125H2.625V10.9375H3.875C4.2894 10.9375 4.68683 10.7729 4.97985 10.4799C5.27288 10.1868 5.4375 9.7894 5.4375 9.375C5.4375 8.9606 5.27288 8.56317 4.97985 8.27015C4.68683 7.97712 4.2894 7.8125 3.875 7.8125H2.625V1.5625C2.625 1.47962 2.65792 1.40013 2.71653 1.34153C2.77513 1.28292 2.85462 1.25 2.9375 1.25H10.4375C10.5204 1.25 10.5999 1.28292 10.6585 1.34153C10.7171 1.40013 10.75 1.47962 10.75 1.5625V7.9875C10.5602 7.87359 10.3432 7.81312 10.1219 7.8125C9.79144 7.81332 9.47477 7.94496 9.24111 8.17861C9.00746 8.41227 8.87582 8.72894 8.875 9.05937V11.8625C8.87563 12.1138 8.91896 12.3632 9.00313 12.6L9.85938 15H2.9375ZM12 18.75H11.0625V16.875H12V18.75ZM13.5625 18.75H12.625V16.875H13.5625V18.75ZM15.125 18.75H14.1875V16.875H15.125V18.75ZM16.6875 18.75H15.75V16.875H16.6875V18.75ZM18.25 11.8625C18.2496 12.0414 18.219 12.2189 18.1594 12.3875L16.7812 16.25H10.9688L9.59063 12.3906C9.53126 12.2208 9.50064 12.0424 9.5 11.8625V9.05937C9.50021 8.9773 9.51657 8.89607 9.54817 8.82032C9.57977 8.74457 9.62598 8.67578 9.68416 8.61789C9.74234 8.56 9.81136 8.51413 9.88727 8.48291C9.96317 8.45169 10.0445 8.43573 10.1266 8.43594C10.2086 8.43614 10.2899 8.45251 10.3656 8.48411C10.4414 8.51571 10.5102 8.56192 10.568 8.6201C10.6259 8.67828 10.6718 8.7473 10.703 8.8232C10.7342 8.89911 10.7502 8.98042 10.75 9.0625V11.5625H11.375V3.75C11.3762 3.58462 11.4425 3.42636 11.5594 3.30941C11.6764 3.19247 11.8346 3.12623 12 3.125C12.1656 3.12549 12.3243 3.1915 12.4414 3.3086C12.5585 3.42571 12.6245 3.58439 12.625 3.75V11.5625H13.25V10C13.2512 9.83462 13.3175 9.67636 13.4344 9.55941C13.5514 9.44247 13.7096 9.37623 13.875 9.375C14.0406 9.37549 14.1993 9.4415 14.3164 9.5586C14.4335 9.67571 14.4995 9.83439 14.5 10V11.5625H15.125V10.3125C15.1251 10.2305 15.1414 10.1493 15.173 10.0737C15.2047 9.99807 15.251 9.92947 15.3094 9.87187C15.3755 9.80215 15.4583 9.75051 15.55 9.72188C15.6141 9.69883 15.6818 9.68719 15.75 9.6875C15.9156 9.68799 16.0743 9.754 16.1914 9.8711C16.3085 9.98821 16.3745 10.1469 16.375 10.3125V11.875H17V10.625C17.0005 10.4594 17.0665 10.3007 17.1836 10.1836C17.3007 10.0665 17.4594 10.0005 17.625 10C17.7904 10.0012 17.9486 10.0675 18.0656 10.1844C18.1825 10.3014 18.2488 10.4596 18.25 10.625V11.8625Z" fill="#565552"/>
<path d="M6.6875 1.875C6.06943 1.875 5.46525 2.05828 4.95134 2.40166C4.43744 2.74504 4.0369 3.2331 3.80038 3.80411C3.56385 4.37513 3.50197 5.00347 3.62255 5.60966C3.74313 6.21585 4.04075 6.77267 4.47779 7.20971C4.91483 7.64675 5.47165 7.94438 6.07784 8.06495C6.68404 8.18553 7.31237 8.12365 7.88339 7.88712C8.45441 7.6506 8.94246 7.25006 9.28584 6.73616C9.62922 6.22225 9.8125 5.61807 9.8125 5C9.81118 4.1716 9.48151 3.37752 8.89575 2.79175C8.30998 2.20599 7.5159 1.87632 6.6875 1.875ZM6.6875 7.5C6.19305 7.5 5.7097 7.35338 5.29858 7.07867C4.88745 6.80397 4.56702 6.41352 4.3778 5.95671C4.18858 5.49989 4.13908 4.99723 4.23554 4.51227C4.332 4.02732 4.5701 3.58186 4.91973 3.23223C5.26937 2.8826 5.71482 2.6445 6.19978 2.54804C6.68473 2.45157 7.1874 2.50108 7.64421 2.6903C8.10103 2.87952 8.49147 3.19995 8.76618 3.61107C9.04088 4.0222 9.1875 4.50555 9.1875 5C9.18659 5.66276 8.92291 6.29812 8.45426 6.76676C7.98562 7.23541 7.35026 7.49909 6.6875 7.5Z" fill="#565552"/>
<path d="M7.625 5.625C7.624 5.81831 7.56347 6.00662 7.45164 6.16431C7.33981 6.32199 7.18211 6.44139 7 6.50625V6.875H6.375V6.50625C6.19289 6.44139 6.03519 6.32199 5.92336 6.16431C5.81153 6.00662 5.751 5.81831 5.75 5.625H6.375C6.375 5.68681 6.39333 5.74723 6.42767 5.79862C6.462 5.85001 6.51081 5.89006 6.56791 5.91371C6.62501 5.93736 6.68785 5.94355 6.74847 5.9315C6.80909 5.91944 6.86477 5.88967 6.90847 5.84597C6.95218 5.80227 6.98194 5.74659 6.994 5.68597C7.00605 5.62535 6.99986 5.56251 6.97621 5.50541C6.95256 5.44831 6.91251 5.3995 6.86112 5.36517C6.80973 5.33083 6.74931 5.3125 6.6875 5.3125C6.46764 5.31079 6.25538 5.23187 6.08781 5.08953C5.92025 4.94718 5.80804 4.75047 5.77081 4.53378C5.73358 4.3171 5.77369 4.09422 5.88413 3.9041C5.99458 3.71399 6.16832 3.56874 6.375 3.49375V3.125H7V3.49375C7.18211 3.55861 7.33981 3.67801 7.45164 3.83569C7.56347 3.99338 7.624 4.18169 7.625 4.375H7C7 4.31319 6.98167 4.25277 6.94733 4.20138C6.913 4.14999 6.86419 4.10994 6.80709 4.08629C6.74999 4.06264 6.68715 4.05645 6.62653 4.0685C6.56591 4.08056 6.51023 4.11033 6.46653 4.15403C6.42282 4.19773 6.39306 4.25342 6.381 4.31403C6.36895 4.37465 6.37514 4.43749 6.39879 4.49459C6.42244 4.55169 6.46249 4.6005 6.51388 4.63483C6.56527 4.66917 6.62569 4.6875 6.6875 4.6875C6.93591 4.68824 7.17394 4.78725 7.34959 4.96291C7.52525 5.13856 7.62426 5.37659 7.625 5.625Z" fill="#565552"/>
</svg>
