<!-- sample rectangle -->
<svg width="21" height="20" viewBox="0 0 21 20" fill="none" xmlns="http://www.w3.org/2000/svg">
<path d="M15.886 20H5.11395C2.56512 20 0.5 17.9233 0.5 15.3717V8.47114C0.5 7.20464 1.2814 5.61221 2.28605 4.82996L7.3 0.918711C8.80698 -0.254663 11.2163 -0.310538 12.7791 0.788336L18.5279 4.82064C19.6349 5.59358 20.5 7.2512 20.5 8.60151V15.381C20.5 17.9233 18.4349 20 15.886 20ZM8.15581 2.01758L3.14186 5.92883C2.4814 6.45033 1.89535 7.63302 1.89535 8.47114V15.3717C1.89535 17.1504 3.33721 18.6031 5.11395 18.6031H15.886C17.6628 18.6031 19.1047 17.1597 19.1047 15.381V8.60151C19.1047 7.70752 18.4628 6.46895 17.7279 5.96608L11.9791 1.93377C10.9186 1.18877 9.16977 1.22602 8.15581 2.01758Z" fill="#871E35"/>
<path d="M10.5 16.2751C10.1186 16.2751 9.80231 15.9585 9.80231 15.5767V12.7829C9.80231 12.4011 10.1186 12.0845 10.5 12.0845C10.8814 12.0845 11.1977 12.4011 11.1977 12.7829V15.5767C11.1977 15.9585 10.8814 16.2751 10.5 16.2751Z" fill="#871E35"/>
</svg>
